<?xml version="1.0" encoding="utf-8"?>
<!-- Generator: Adobe Illustrator 21.0.0, SVG Export Plug-In . SVG Version: 6.00 Build 0)  -->
<svg version="1.1" id="Warstwa_1" xmlns="http://www.w3.org/2000/svg" xmlns:xlink="http://www.w3.org/1999/xlink" x="0px" y="0px"
	 viewBox="0 0 72.1 71.1" style="enable-background:new 0 0 72.1 71.1;" xml:space="preserve">
<style type="text/css">
	.st0{fill:#2D362E;}
	.st1{fill:#AFB1AC;}
	.st2{fill:#7E7E76;}
	.st3{fill:#8C8D8A;}
	.st4{fill:#9D9E9B;}
	.st5{fill:#A1A19A;}
	.st6{fill:#060805;}
	.st7{fill:#B8BBB6;}
	.st8{fill:#060704;}
	.st9{fill:#5C5D52;}
	.st10{fill:#0E110B;}
	.st11{fill:#161711;}
	.st12{fill:#5E6159;}
	.st13{fill:#888A85;}
	.st14{fill:#2A2C23;}
	.st15{fill:#2B2E28;}
	.st16{fill:#ACACA6;}
	.st17{fill:#1F130B;}
	.st18{fill:#A9AAA5;}
	.st19{fill:#6C4E3E;}
	.st20{fill:#2E302A;}
	.st21{fill:#706A5D;}
	.st22{fill:#43463F;}
	.st23{fill:#302F2A;}
</style>
<g id="wheel">
	<path id="tire" d="M27.8,0.1c0.1,0,0.3-0.1,0.5-0.1h12.8c11.9,0.1,19.9,6.7,26.7,15.5c2.9,3.7,3,8.1,4.2,12.3
		c0,0.1,0.1,0.3,0.1,0.4V42c0,0.1,0,0.2,0,0.2C70.3,56.1,61,63.8,49.3,69.4c-2.1,1-4.5,1.3-6.8,1.1c-3.3,0.3-6.6-0.5-9.9,0.4
		c-1.6,0-3.1,0.1-4.7,0.1C10.7,66.6,1.2,55.7,0.1,37.8c0.1-1.7,0.3-4.5,0.4-6.3c0.7-3.3,0.3-6.8,1.5-10.1C5.2,13,11.7,7.4,18.6,2.2
		C21.3,0.1,24.8,1.1,27.8,0.1z"/>
	<path class="st0" d="M43.3,70.2c0,0.3-0.1,0.6-0.3,0.9c-3.7,0-7.3,0-11,0C35.7,69.1,39.6,70.5,43.3,70.2z"/>
	<path class="st1" d="M9.2,44c-3.4-10.5-1-19.8,6.3-27.7c8.1-8.7,18.3-11.5,29.6-7.9c10.4,3.3,17.2,10.4,19,21.6
		c0.9,1.9,0.7,3.4-1.5,4.3c-1.7-0.3-1.5-2.2-2.6-3c-2.7-1.5-4.3,0.9-6.4,1.6c-1.4,0.6-2.9,1.1-4.1,2.1c-1.3,1-2.3,2.3-4,2.7
		c-2,0-3.1-1-3.4-2.9c0-1.3,0.3-2.6,0.4-3.9c0.5-1.8-2.3-2.2-1.7-4c2.7-2.7,6.3-3.6,9.7-4.9c3.3-1.2,3.4-2.8,0.9-4.9
		c-1.6-1.5-3.5-2.5-5.5-3.4c-5.7-2.6-6.4-2.3-9,2.9c-3,1.1-6.7,1.3-7,5.7c-3.7-1.2-1.6-4.7-2.9-6.9c-0.4-0.6-0.8-1.2-1.5-1.1
		c-4.4,0.6-10.2,7.3-10.5,12.1c4.3,1.5,8.8,0.9,13.1,1.8c1.6,1.2,2.5,2.9,3,4.8c-0.8,1.2-2.2,2.1-1.9,3.8c-0.2,1.4-0.3,2.9-1.9,3.6
		c-0.7,0.2-1.5,0-2.1-0.3c-3.4-1-6.7-2.3-10.2-2.7c-4.5-0.5-3.2,2.8-3.3,5.1C11.4,43.9,10.9,45.1,9.2,44z"/>
	<path class="st2" d="M63,44.1C59.1,60.4,37.8,69,22.8,60.2c0.6-0.9,1.6-1.1,2.6-1.2c2.2,1.1,1.8-2.8,3.8-2.1
		c4.4,4.2,9.4,2.7,14.2,1.2c2-0.6,3.8-1.8,5.8-2.6c3.9-0.7,5.9-2.8,5.7-6.8c2.9-1.4,3.2-4.8,5.3-6.9C62,41.7,61.9,43.5,63,44.1z"/>
	<path class="st3" d="M26,60.1c-1.1,0-2.1,0.1-3.2,0.1c-7-3.3-11.6-8.6-13.6-16.2c1.4,0,1.6-1,1.9-2.1c1.8-0.1,2.2,1.4,2.6,2.5
		c1.6,4.1,4.3,7.3,7.5,10.3c0,1.1,0.2,2,1.6,2.4C24.2,57.6,26.3,57.7,26,60.1z"/>
	<path class="st4" d="M63,44.1c-2.6,1.2-1.5-1.3-2-2.1c-0.3-0.4-0.5-0.9-0.4-1.5c0.5-2.2-0.5-4.8,1.8-6.5c1.7-0.8,1.7-2.4,1.8-4
		C65.8,34.9,64.7,39.5,63,44.1z"/>
	<path class="st5" d="M27.1,40.1c1.4-1.1,0.8-2.8,1.1-4.2c2.9-1.5,4,0.6,4.6,2.7c0.7,2.8,2.5,2.5,4.6,2.1c2.2-0.4,3.1-1.6,2.6-3.9
		c-0.6-2.7-0.1-4.4,3.2-2.7c0.1,1.8,1,2.8,2.9,2.9c1.1,0.6,1.5,1.7,2,2.7c0.4,0.8,0.7,1.7,0.5,2.7c-1.2,3-1.9,6.3-4.2,8.8
		C42.4,51.6,41.9,50,41,49c-2.9-3.6-4.5-0.7-6.3,1.3c-0.7,0.7-1.4,1.2-2.4,1.4c-2.3,0.4-4.7,0.1-5.4-2.2c-0.7-2.2-2.1-0.5-2.9-1.2
		c-0.6-0.9-0.2-1.7,0.2-2.5C25.8,44.2,26.3,42,27.1,40.1z"/>
	<path class="st6" d="M37.3,16c-0.2-6.4,0.2-6.7,6.5-4.7c1.1,0.3,2.2,0.8,3.2,1.3c3.6,1.8,8.4,3.8,8.5,7.4c0.1,3-5.2,3.4-8.3,4.6
		c-2.1,0.8-3.7,2.7-6.2,2.5c-0.8-0.2-1.2-0.6-1.4-1.4c0-0.2,0-0.4,0.1-0.5c2.9-4.3,2.9-4.3-1.8-7.2C37.5,17.4,37.2,16.8,37.3,16z"/>
	<path class="st7" d="M37.3,16c0.3,0.4,0.5,0.7,0.8,1.1c2.2,2.6,2.3,5.7,2.1,8.8c0.3,0.4,0.6,0.7,0.9,1.1c4.3,2.1,4.3,2.1,2,4
		c-3.4,2.8-7.8,2-11.7,3c-0.3,0.1-0.5-0.7-0.2-1.2c-1.6-0.9-3.7-1.6-2.2-4.2c-0.6-2.3-0.6-4.5,1-6.5C28.9,16.1,33.2,16.1,37.3,16z"
		/>
	<path class="st8" d="M25.3,46.3c-0.3,0.6-0.7,1.2-1,1.8c0.9,3.2-0.4,5.4-3.2,7c-6.1-2.2-7.3-8.2-9.9-13.1c-2.3-5.4-1.8-6.2,3.8-5.7
		c2.3,0.4,3.7,1.9,4.3,4c0.8,2.6,2.6,3.9,5.2,4.3C25.2,45,25.6,45.5,25.3,46.3z"/>
	<path class="st9" d="M31.1,32.9c3.9-1.5,8-1.3,12-1.9c0.6,1,0.6,2,0,3.1c-1.8,0.2-3.5,0.2-1.5,2.7c1.1,1.4,0.6,3.9-0.8,4.4
		c-2.5,1-5.3,1.6-8,1.5c-1.9-0.1-1.4-2.1-1.2-3.6c0.3-2.3-1.4-3.1-3.4-3.3C27.9,33.7,29,32.8,31.1,32.9z"/>
	<path class="st10" d="M58,41.1c-0.1,0.3-0.1,0.5-0.1,0.8c-1.4,2.1-0.3,7.6-3.8,7c-1.1-0.2-1.6-1.3-1.9-2.9
		c-0.3-2.8,1.3-4.6,1.5-7.1c0.4-2.5-1.4-4.3-0.9-6.8c1.6-0.9,2.7-5,5.1-2.1C58.5,33.7,58.4,37.4,58,41.1z"/>
	<path class="st8" d="M13.1,27c0.5-5.6,8.6-14.4,13.7-14.9c1-0.1,1.5,0.5,1.4,1.5c0.3,2.6,1.3,5.3-1.8,7c-2,1.5-3.8,3.2-5.6,4.9
		C18.7,28.5,15.9,27.8,13.1,27z"/>
	<path class="st11" d="M13.1,27c2.8,0,5.7,0.6,7-2.9c4.7,1.8,5.1,1.5,4.9-4.1c3.4-1,3-3.8,3.2-6.4c1.6,2.7,0.3,5.9,1.8,8.6
		c-0.2,2.2,0.7,4.6-1,6.5C23.5,29.7,18.3,28.8,13.1,27z"/>
	<path class="st12" d="M23.9,44.9c-3.5,2.4-4.1-1-5.1-2.8c-1.2-2-1.1-4.8-3.8-5.9c3.8,0.4,7.5,1.4,11,2.9
		C25.9,41.3,26.5,43.6,23.9,44.9z"/>
	<path class="st13" d="M53.2,32.2c2,1.8,3.2,3.9,2.7,6.7c-3.5,3.8-3.5,3.8-7.6-1.1c-0.4-1.3,0-2.5,0.7-3.5
		C50.1,32.9,51.5,32.1,53.2,32.2z"/>
	<path class="st14" d="M23.9,44.9c0.7-1.9,1.4-3.8,2-5.7c0.4,0.3,0.7,0.6,1.1,0.9c1.1,2.6-0.1,4.5-1.8,6.3
		C24.8,45.8,24.4,45.4,23.9,44.9z"/>
	<path class="st15" d="M49,34.2c0.1,1.2,0.1,2.3,0.2,3.5c0.6,2.1,0.3,3.3-2.3,2.4c-1.1-0.8-0.8-2-1-3.1C46.5,35.6,47.3,34.3,49,34.2
		z"/>
	<path class="st2" d="M61.1,41.1c0-3.7-0.1-7.3-0.1-11c1.3,1,0.9,2.6,1.2,3.9C61.6,36.3,63,39,61.1,41.1z"/>
	<path class="st16" d="M53,46.2c0.7,0.9,1.5,1.8,2.2,2.7c0.7,1.3,2.7,2.4,0.9,4.1c-1.7,1.6-2.8,4.3-6,3c-1.1-0.1-1.9-0.8-2.7-1.5
		c-1.1-1.2-3-1.7-3.2-3.7c0.9-3.1,1.4-6.4,3.9-8.8C50.6,42.3,52.1,43.9,53,46.2z"/>
	<path class="st17" d="M48.2,53.9c0.6,0.7,1.2,1.5,1.8,2.2c-5.2,4-11.1,5.4-17.5,4.6c-2.1-0.3-4-0.7-3.4-3.6c-0.2-1.8,0.6-3,2.2-3.7
		c1.2-0.3,2.3-0.2,3.3,0.3c3.6,1.8,7.1,2.2,10.7,0C46.2,53.3,47.3,53.4,48.2,53.9z"/>
	<path class="st18" d="M31.2,54.1c-0.7,1-1.3,2-2,3c-1.9,0.1,0.1,4.3-3.1,3c-1.7-0.9-3.4-1.8-5.1-2.6c-2.2-1,0.1-1.6,0.1-2.4
		c1.3-2.2,2.7-4.4,3.2-7c3.5-0.9,4.8,3.5,7.9,3.3C33.1,52.7,32,53.4,31.2,54.1z"/>
	<path class="st19" d="M31.2,54.1c0.3-0.9,0.7-1.9,1-2.8c0.6-0.4,1.2-0.9,1.7-1.3c2.5-1.5,5.1-2.2,8-1.8c0.7,0.9,1.5,1.8,2.2,2.6
		c1.4,1,2.8,2,4.1,3C42.6,58.5,36.9,56.7,31.2,54.1z"/>
	<path class="st20" d="M53,46.2c-1.7-1.4-3.3-2.8-5-4.2c-0.3-0.7-0.7-1.3-1-2c1.5-0.1,2.1-1.1,2.3-2.4c1.8,2.8,4,3.6,6.7,1.2
		C56.2,41.8,52.9,43.4,53,46.2z"/>
	<path class="st21" d="M41.9,48.2c-2.3,2.2-5.1,2-8,1.8C36.9,44.5,38.9,44.1,41.9,48.2z"/>
	<path class="st22" d="M40.2,25.9c-2.3-2.6-1.3-5.9-2.1-8.8C46,20.2,46,20.2,40.2,25.9z"/>
	<path class="st23" d="M25,20c3.5,2.3,1.8,4.8-0.3,6.4c-2,1.5-4.2,0.7-4.6-2.3C21.8,22.7,23.4,21.4,25,20z"/>
</g>
</svg>
