<?xml version="1.0" encoding="utf-8"?>
<!-- Generator: Adobe Illustrator 21.0.0, SVG Export Plug-In . SVG Version: 6.00 Build 0)  -->
<svg version="1.1" id="body" xmlns="http://www.w3.org/2000/svg" xmlns:xlink="http://www.w3.org/1999/xlink" x="0px" y="0px"
	 viewBox="0 0 556.1 187" style="enable-background:new 0 0 556.1 187;" xml:space="preserve">
<style type="text/css">
	.st0{fill:none;}
	.st1{fill:#060405;}
	.st2{fill:#C4BB40;}
	.st3{fill:#FBEC9A;}
	.st4{fill:#C0AC27;}
	.st5{fill:#B58431;}
	.st6{fill:#FBF098;}
	.st7{fill:#070605;}
	.st8{fill:#4D0C0E;}
	.st9{fill:#D3C855;}
	.st10{fill:#463C16;}
	.st11{fill:#CCC55D;}
	.st12{fill:#6D110A;}
	.st13{fill:#B6AE45;}
	.st14{fill:#C19950;}
	.st15{fill:#1E1205;}
	.st16{fill:#5D4A32;}
	.st17{fill:#D1BF50;}
	.st18{fill:#B18C58;}
	.st19{fill:#E3CA54;}
	.st20{fill:#F7DC7A;}
	.st21{fill:#BBAA2A;}
	.st22{fill:#DDC177;}
	.st23{fill:#6D3C19;}
	.st24{fill:#989168;}
	.st25{fill:#483821;}
	.st26{fill:#70522D;}
	.st27{fill:#412F23;}
	.st28{fill:#BAA141;}
	.st29{fill:#9B672D;}
	.st30{fill:#E9CA7A;}
	.st31{fill:#484432;}
	.st32{fill:#A78364;}
	.st33{fill:#AC9419;}
	.st34{fill:#937139;}
	.st35{fill:#BC9E76;}
	.st36{fill:#DEBD79;}
	.st37{fill:#B26F56;}
	.st38{fill:#A48239;}
	.st39{fill:#D5C179;}
	.st40{fill:#352715;}
	.st41{fill:#C3BC45;}
	.st42{fill:#C9B53A;}
	.st43{fill:#AEAC5F;}
	.st44{fill:#9A943C;}
	.st45{fill:#F1D769;}
	.st46{fill:#765C2B;}
	.st47{fill:#E6CE82;}
	.st48{fill:#CEBB43;}
	.st49{fill:#D1C464;}
	.st50{fill:#CDBC60;}
	.st51{fill:#D8C862;}
	.st52{fill:#EBD274;}
	.st53{fill:#CDBC5F;}
	.st54{fill:#B09818;}
	.st55{fill:#B59D35;}
	.st56{fill:#402D0F;}
	.st57{fill:#D1B830;}
	.st58{fill:#4A3521;}
	.st59{fill:#61582C;}
	.st60{fill:#6D5F26;}
	.st61{fill:#C1B742;}
	.st62{fill:#FCEE90;}
	.st63{fill:#D2B941;}
	.st64{fill:#C6C047;}
	.st65{fill:#A59D27;}
	.st66{fill:#C9B639;}
	.st67{fill:#B8AA30;}
	.st68{fill:#BDB64E;}
	.st69{fill:#C0AE2C;}
	.st70{fill:#D9BE3F;}
	.st71{fill:#CAA54F;}
	.st72{fill:#1A1A14;}
	.st73{fill:#C6C04B;}
	.st74{fill:#B1AC35;}
	.st75{fill:#ECD05B;}
	.st76{fill:#4B1705;}
	.st77{fill:#1D1B13;}
	.st78{fill:#F0D656;}
	.st79{fill:#E2C943;}
	.st80{fill:#9F7A2F;}
	.st81{fill:#7B580A;}
	.st82{fill:#201708;}
	.st83{fill:#543C1F;}
	.st84{fill:#927B45;}
	.st85{fill:#F5DC60;}
	.st86{fill:#816429;}
	.st87{fill:#907341;}
	.st88{fill:#9C9188;}
	.st89{fill:#18150D;}
	.st90{fill:#8D8810;}
	.st91{fill:#BBA91F;}
	.st92{fill:#C0AC32;}
	.st93{fill:#0B0806;}
	.st94{fill:#F9EF9F;}
	.st95{fill:#E6CA50;}
	.st96{fill:#DFC85A;}
	.st97{fill:#795E27;}
	.st98{fill:#0F0B07;}
	.st99{fill:#2E2007;}
	.st100{fill:#B0A12A;}
	.st101{fill:#B2AC35;}
	.st102{fill:#E9D779;}
	.st103{fill:#DCCA6E;}
	.st104{fill:#EADC80;}
	.st105{fill:#F9E87B;}
	.st106{fill:#C4AD2B;}
	.st107{fill:#EBD66C;}
	.st108{fill:#DCC643;}
	.st109{fill:#E4CF52;}
	.st110{fill:#A58C18;}
	.st111{fill:#827974;}
	.st112{fill:#C4BE40;}
	.st113{fill:#B6AE37;}
	.st114{fill:#7E7502;}
	.st115{fill:#8A810D;}
	.st116{fill:#7C7403;}
	.st117{fill:#BBA71F;}
	.st118{fill:#E0CA4A;}
	.st119{fill:#8B7506;}
	.st120{fill:#E2CF75;}
	.st121{fill:#C4BD40;}
	.st122{fill:#BCB137;}
	.st123{fill:#BBB041;}
	.st124{fill:#B9B75B;}
	.st125{fill:#867408;}
	.st126{fill:#796805;}
	.st127{fill:#BBB05D;}
	.st128{fill:#BBA61E;}
	.st129{fill:#763204;}
	.st130{fill:#A8773E;}
	.st131{fill:#B28045;}
	.st132{fill:#BE8C53;}
	.st133{fill:#5D564D;}
	.st134{fill:#D1B63A;}
	.st135{fill:#39200C;}
	.st136{fill:#3E3414;}
	.st137{fill:#744D33;}
	.st138{fill:#231106;}
	.st139{fill:#1A1408;}
	.st140{fill:#2D2408;}
	.st141{fill:#4E3F0B;}
	.st142{fill:#BA9E1A;}
	.st143{fill:#CAB646;}
	.st144{fill:#A57439;}
	.st145{fill:#BE8C50;}
	.st146{fill:#926E46;}
	.st147{fill:#827662;}
	.st148{fill:#251A13;}
	.st149{fill:#4C310B;}
	.st150{fill:#6A6764;}
	.st151{fill:#BFAD56;}
	.st152{fill:#5E4127;}
	.st153{fill:#524B44;}
	.st154{fill:#F3E489;}
	.st155{fill:#E6D05D;}
	.st156{fill:#8C7C28;}
	.st157{fill:#8C7403;}
	.st158{fill:#D9C870;}
	.st159{fill:#C2AF27;}
	.st160{fill:#CEB93C;}
	.st161{fill:#ECDA8F;}
	.st162{fill:#E8D173;}
	.st163{fill:#B9A72D;}
	.st164{fill:#E3CE6E;}
	.st165{fill:#A29539;}
	.st166{fill:#E0D99C;}
	.st167{fill:#F2DE9F;}
	.st168{fill:#AEA357;}
	.st169{fill:#8C7705;}
	.st170{fill:#FCEE9A;}
	.st171{fill:#947903;}
	.st172{fill:#F1D971;}
	.st173{fill:#E3D261;}
	.st174{fill:#C0B32C;}
	.st175{fill:#543B29;}
	.st176{fill:#C2B47E;}
	.st177{fill:#BCA737;}
	.st178{fill:#291503;}
	.st179{fill:#6B624B;}
	.st180{fill:#AA793B;}
	.st181{fill:#42391E;}
	.st182{fill:#B47F3A;}
	.st183{fill:#B58446;}
	.st184{fill:#766638;}
	.st185{fill:#F9EAB4;}
	.st186{fill:#CDB629;}
	.st187{fill:#140A00;}
	.st188{fill:#7D6A2B;}
	.st189{fill:#4A400F;}
	.st190{fill:#CAB541;}
	.st191{fill:#888154;}
	.st192{fill:#2A2009;}
	.st193{fill:#BD8B4E;}
	.st194{fill:#A27D56;}
	.st195{fill:#B68546;}
</style>
<g>
	<g>
		<path class="st0" d="M278.5,166c-91.2,0-182.3,0-273.5,0.1c-3.4,0-4.1-0.7-4.1-4.1C1,109.7,14,66,13.8,13.7
			C13.8,10.2,1.6,0.9,5,0.9C187.3,1,369.7,1,552,0.9c3.4,0,4.1,0.7,4.1,4.1c-0.1,52.3-0.1,104.7,0,157c0,3.4-0.7,4.1-4.1,4.1
			C460.8,166,369.7,166,278.5,166z"/>
		<path class="st1" d="M159.9,160c-1.4-0.2-2.9,0.7-4-0.7c-0.7-1.1-1.2-2.4-3-2c-5.6-1.5-6.4-5.2-6.3-10.6
			c0.2-29.1-26.3-44.7-50.3-34.4c-12.5,5.4-20.5,15.8-20.6,30.4c-0.1,8.8,0.2,8.8-8.4,12.2c-0.9-0.4-1-1.2-1-2.1
			c0.5-7.6,1.4-15.2,3.6-22.5c2.2-5.7,3.8-11.6,7.4-16.7c5-7.2,12.6-9.2,20.5-10.7c8.7-0.7,17.5-2.4,26.2-0.1
			c4.4,1,8.5,2.6,12.1,5.3c5.3,3.8,8.4,9.3,11.1,15.1c1,2.2,2.1,4.2,4.2,5.4c1.8,2.1,2.6,4.8,3.5,7.3c0.6,2.4,2.1,4.6,2.3,7.1
			c0.1,4.5,0.6,9,2.4,13.2C160,157.5,160.7,158.7,159.9,160z"/>
		<path class="st2" d="M71.1,130.2c-1.3,7.7-2.6,15.3-3.9,23c-4.9,2.2-9.9,2.6-15,0.8c-3.3-1.2-7,0.4-10.2-1.7
			c-0.4-2.3,1.5-2.2,2.8-2.5c2.1-0.5,4.2-0.6,6.3-1.5c-10.1-1.5-20.2-0.4-30.3-1.1c-0.8-0.2-1.6-0.6-2-1.3c0-0.2,0-0.4,0-0.6
			c-0.3-1.4,0.7-1.9,1.7-1.8c6.6,1,12.2-2.6,19.2-3.6c-2.3-1.8-4.4-2.3-6.4-2.3c-6.9,0-12.7-3.6-18.9-5.8c-2-0.7-4.9-2-1.3-4.7
			c16.9-0.9,33.7-0.2,50.6-0.4c1.7,0,3.3-0.1,4.9,0.2C70.4,127.2,72,127.9,71.1,130.2z"/>
		<path class="st3" d="M501,11.9c0.6-0.3,1.2-0.6,1.9-1c6.4-2.1,12.8-1.7,19.6-1.2c-1.3,2.8-3.4,2.5-5,3.2c-5,1.1-10.2,0.9-15,3
			c-4.9,0.9-9.8,0.3-14.7,0.5c-2.4,0.1-4.9,0-7.3,0.8c-26.2,0.6-52.4,0.1-78.6,0.3c-2.6,0-5.3-0.3-7.9,0.7
			c-11.3,0.7-22.6,0.1-33.9,0.3c-10.1,0-20.3-0.7-30.3,0.2c-11.1,1-22.2,0.1-33.2,1.3c-2.3,0.6-4.7,0.4-7,0.5
			c-11-0.1-21.8,0.8-32.7,1.9c-4.2,0.4-8.2,1.6-11.8,3.7c-9.8,5.9-19.9,11.4-29.1,18.2c-3.5,2.1-6.8,4.7-10.4,6.6
			c-3.3,1.1-5.7,3.8-8.5,5.7c-0.5,0.2-0.9,0.3-1.4,0.3c-1.1-0.1-1.9-0.5-2.2-1.6c0.1-2,1.8-2.7,3-3.9c10.6-7.2,21.2-14.3,32.1-21.1
			c4.9-3.5,10.3-5.9,15.6-8.6c9.6-4.5,19.8-4.6,30.1-4.6c3.3,0,6.6-0.1,9.8-0.9c1.2-0.3,2.4-0.3,3.5-0.4c15.3,0.1,30.6-0.6,45.8-1.4
			c12.4-0.7,24.9,0.7,37.3-1.5c1.6-0.3,3.3,0.2,4.9,0.5c3.3,0.5,6.6,1,9.8-0.6c1.5-0.8,3.2-0.9,4.8-0.9c20.4-0.2,40.8-1.8,61.2-1.1
			c7.8,0.3,15.5-1.9,23.3-0.7c2.4,0.7,4.7,2,7.3,1.8c1.7,0.1,3.2,0.6,4.8,0.9C491.6,12.2,496.3,13.3,501,11.9z"/>
		<path class="st4" d="M19.1,114.3c2.8-0.1,3-2.1,3.1-4.2c1.2-1.3,2.9-1.4,4.5-1.4c2.6,0.1,4-1,4-3.8c0-1.5,0.1-3,1.3-4.1
			c11.2-3.3,22.9-3.4,34.4-5c1-0.1,2-0.1,3,0c10.2,0.6,10.1,4.7,6.6,10.5c-1.6,2.6-0.8,5.5-1.3,8.3c-1.1,2.2-2.7,1.9-4.9,1.6
			c-10.5-1.2-21.1-0.7-31.6-0.3c-0.6,0-1.2,0.5-1.8,0.9c-1.4,0.6-2.8,0.7-4.3,0.8c-3.4-0.1-6.8,0.3-10.2-0.3
			C20.6,116.5,19.2,116.1,19.1,114.3z"/>
		<path class="st5" d="M351,156.8c-17.8,0.1-35.6,0.2-53.4,0.3c-26.3,0.2-52.5,0.5-78.8,0.7c-14.1-0.9-28.2,0-42.3,0.4
			c-4.1,0.1-8.3,1.1-12.2-0.9c-0.5-0.5-0.6-1.1-0.1-1.7c5-2.1,10.5-1.4,15.7-2.2c1.3-0.2,2.7-0.1,4-0.1c25.2,0.7,50.3-0.5,75.4-1.3
			c23.8-0.7,47.6-0.8,71.4-0.5c13.1,0.2,26.3-1.6,39.4,0.7c1.6,0.3,3.3,0.3,4.8,1.3c1.5,3.1-0.9,2.8-2.6,2.8c-5.4,0.1-10.9,0-16.3,0
			C354.3,156.5,352.6,156.2,351,156.8z"/>
		<path class="st6" d="M23.9,92.9c2.5-5.8,7.4-8.3,13.1-9.7c13.3-3.1,26.5-6.8,40.1-8.9c2-0.3,3.9-0.7,5.9-0.8
			c1.3-0.5,2.7-0.4,4.1-0.4c8.9,0.7,17.7-1.8,26.8-0.8c4.3,0.5,8.6-2.3,13.2-1.6c2.2,0.3,5.7-0.2,5.6,2.7c-0.1,3-3.6,3.1-6,2.4
			c-4-1-7.1,1.1-10.4,2.4c-5.1,1.7-10.4,2.2-15.6,3c-8.9,1.3-17.7,3-26.6,4.2c-5.5,0-10.8,1.8-16.2,2.7c-10,1.7-19.8,4.4-29.9,5.6
			C26.6,93.8,25.1,94.2,23.9,92.9z"/>
		<path class="st7" d="M468.2,136c-5.1-17.6-16.2-28.3-32.5-29.6c-25.6-2-40.5,15-39.5,40.2c0.2,6.5,0.6,6.5-6,7.5
			c-0.8,0.5-1.6,0.5-2.4,0c-1.4-2-1.1-4.3-0.9-6.6c0.4-1.8,0.9-3.6,1-5.5c2.6-10.2,4.6-20.7,11.4-29.3c2.3-2.7,5.4-4.3,8.3-6.1
			c12.1-3.4,24.5-4.9,37.1-3.3c15.3,0.5,21.1,11.9,26.6,23.5c1.3,3,2.1,6.2,3.2,9.3c0.6,1.8,1.5,4.3-1,5c-2.3,0.6-4.5-0.7-4.8-3.6
			C468.5,136.9,468.4,136.4,468.2,136z"/>
		<path class="st8" d="M539,87.1c0.2,4.9,1.7,9.8,0,14.7c-1.4,1.5-3.2,1.6-5,1.5c-0.9,0-1.8-0.1-2.7-0.3c-3.6-1.5-3.7-4.8-3.8-7.9
			c-0.1-7.5,0.1-14.9-1-22.3c-0.5-8-2.4-15.7-4.4-23.4c-0.5-1.8-1.2-3.6-1.2-5.5c0.1-1.1,0.1-2.5,1.5-2.8c1.4-0.3,2.4,0.7,2.7,1.8
			c1.7,6.7,7,11.8,8.6,18.3c1.5,5.8,4.1,11.6,1.9,17.9c-0.7,2,0.6,3.4,2.3,4.4C538.9,84.5,538,86.1,539,87.1z"/>
		<path class="st9" d="M11.9,128.1c0.2,1.1,0.8,1.7,1.9,2c6.9,2,13,6.4,20.7,6.1c2.6-0.1,5.4,1.3,8.6,3.9
			c-7.6,1.4-13.9,5.1-21.2,4.7c-1.1-0.1-2.2-1-3.1,0.4c-5-5.4-11.9-9.4-11.8-18.1C8.9,126.2,10.5,126.6,11.9,128.1z"/>
		<path class="st10" d="M531.9,102.1c0.6,0,1.3-0.1,1.9-0.1c1.5,2,3,3.9,5.4,5c1.7,0.9,3.6,0.6,5.4,0.8c2.2,0.3,5.2-0.8,5.8,2.3
			c0.6,2.9,1.8,6.3-1.5,8.6c-0.4,0.5-0.9,0.9-1.5,1.2c-13.5,0.7-27,2-40.5,1.5c-1.3,0-2.6-0.3-3.7-1.2c0.4-3.4,3.2-2.8,5.2-2.7
			c10.7,0.3,21.2-1.5,31.9-1.2c2.4,0.1,6.5,1.1,6.4-2.5c-0.1-3.6-4.2-2.2-6.5-2.2c-21.8-0.1-43.5-0.1-65.3-0.1
			c-2.7,0-5.3-0.1-7.7,1.4c-2.7,0.9-4-0.3-4.3-3c0.6-1.2,1.6-1.8,2.8-2.1c7.1-1.4,14.3-1.5,21.5-1.3c13.2,0.8,26.4-0.7,39.6-0.9
			c1.2,0,2.3-0.3,3.2-1.1C530.5,103.7,531.2,102.9,531.9,102.1z"/>
		<path class="st11" d="M548,119.1c0.2-0.2,0.5-0.3,0.9-0.3c0,0.8-0.1,1.7,0,2.5c0.4,4.8,0.4,9.4-4.9,12c-0.3,4.9-3.2,6.7-7.7,7.3
			c-7.9,1-15.8,1.5-23.7,1.9c-0.6,0-1.3,0-1.9-0.2c-1.1-0.3-2.6-0.4-2.4-1.9c0.1-1,1.4-1.4,2.4-1.4c4.2,0.1,8-2,12-2.1
			c3.3,0,4.1-1.5,4.4-4.2c3.5-1.4,7.5,0.1,10.5-1.4c-2.9,0.8-6.4,0.8-9.9,0.7c-1.4-0.1-3.3,0.4-3.5-1.6c-0.2-1.8,1.6-2.4,3.1-2.6
			C534.9,126.7,541.5,123,548,119.1z"/>
		<path class="st12" d="M537.8,84c-5.7,0.2-4.2-3.9-3.3-6.5c2.4-7.2-1.1-13.4-2.5-20c-0.2-0.9-0.9-1.5-1.8-1.4
			c-2.8,0.1-3.3-1.5-3.2-3.8c0.1-3.4-2.3-6.1-3-9.3c-0.1-0.6-0.6-1.8-1.6-1c-0.4,0.3-0.2,1.2-0.3,1.9c-2.2,0.3-2.3-1.5-2.9-2.8
			c-0.4-3.1-1.6-6-3-8.8c-1.2-3.4-3.5-6.4-3.8-10.1c0.3-1.9,1.8-2.8,3.3-3.7c0.5-0.2,1-0.1,1.4,0c10,17.2,16.9,35.5,20.1,55.1
			C538,77.2,536.2,80.7,537.8,84z"/>
		<path class="st13" d="M11.9,128.1c-1.7,0-3.4-0.2-4.9-1c-0.3-0.5-0.6-1-0.9-1.5c2.2-1.4,4.5,0,6.8,0c17.2,0,34.4,0,51.6,0
			c0.8,0,1.7-0.1,2.4-0.4c2.1-1,2.7-2.9,2.9-4.9c-1.8-3.1-5-2.7-7.8-2.8c-6.8-0.3-13.7,0-20.5-0.1c-1.9,0-4.1,0.4-5.5-1.6
			c0.3-1.8,1.7-1.8,3-1.8c9.6,0,19.2,0,28.8,0c1.2,0,2.2,0,3.2,1c1.5,1.5,2.3,0.2,3-1c2.2-2.5,4.4-5.1,6.6-7.6
			c1.5-1.3,3.1-2.5,5-3.3c0.8-0.3,1.6-0.4,2.4-0.4c3.1,0.3,6.5-1.1,9.2,1.5C87,106,78.5,110.4,74.7,121c-1.1,3.1-2.4,6.1-3.6,9.2
			c-0.4-2.7-2.5-2.2-4.3-2.2C48.5,128.1,30.2,128.1,11.9,128.1z"/>
		<path class="st14" d="M197.2,52.1c-1.1,1-2.1,1.9-3.2,2.9c-4.3,5.4-10.3,8.7-15.7,12.9c-1.7,1-3.4,1.9-5.4,1.4
			c-1.1-2.9-6.1-0.9-6.2-5.1c-0.9,0.5-1.8,0.8-2.8,1c-1.9,0.2-3.8,1.2-5.7,0.2c-1.1-2.2,1.3-1.5,1.9-2.2c3.3-1.2,6.5-2.7,10.1-1.8
			c1.9,0.5,3.2-0.6,4.5-1.5c5.8-3.6,11.5-7.3,17.2-10.9c0.8,0.1,1.6,0.1,2.4-0.2c1.4-0.7,3.2-2.1,4.4-0.6
			C200.1,49.7,197.1,50.5,197.2,52.1z"/>
		<path class="st15" d="M516.9,143.9c-2.3,1.9-5.1,2.1-7.9,2.1c-7.8,0-15.6,0.3-23.4-0.1c-4.4-0.2-5.6,1.2-4.9,5.2
			c0.2,1.3,0.2,2.7,0,4c-0.2,1.4,1.1,3.7-1.7,3.8c-2.4,0.1-2.1-2.1-2.6-3.6c-0.9-3.3-1.8-6.7-2.7-10.1c1.4-3.9,1.2-7.5-0.6-11.4
			c-0.6-1.2-3.7-4.1,0.6-5.4c1.3,0.4,2.1,1.3,2.9,2.3c1.6,2.5,2.6,5.3,3.3,8.1c0.4,1.6,0.6,3.3,2.5,3.9c9.7,0.4,19.3-1.9,29-1.3
			C513.3,142.3,516.1,140.9,516.9,143.9z"/>
		<path class="st16" d="M290.7,10.8c1.2-2.3,3.4-1.7,5.3-1.7c31.5-0.5,63.1-0.9,94.6-1.3c6.6-0.1,13.3,0.1,19.9,0.1
			c15-0.9,30.1-0.2,45.1-0.4c0.7,0,1.2,0.4,1.5,1c-1.6,2.4-4.1,1.8-6.3,1.9c-11.9,0.1-23.7,0.1-35.6,0c-5.1,0.2-10.3-0.6-15.3,0.6
			c-4.5,0.6-9.1,0.3-13.6,0.2c-0.6,0-1.2-0.1-1.8-0.2c-6.9-1-13.8-0.5-20.8-0.6c-9.1-0.7-18,1.1-27,1c-13.9,0-27.9,0-41.8,0
			C293.5,11.4,292,12,290.7,10.8z"/>
		<path class="st17" d="M42,152c4.6,0.4,9.3-0.8,13.8,1.7c1.9,1.1,5.2,1,7.5-0.6c1.3-0.9,2.6-1.6,3.8,0.1c0.1,0.6,0.1,1.1,0.2,1.7
			c-1,1.7-2.6,1.2-4,1.2c-15-0.3-29.9-0.7-44.9-0.9c-3.1,0-4-1.8-4.9-4c-1-2.3,0.6-2.9,2.3-3.5c4.8,3.5,10.2,3,15.7,2.7
			C35,150.2,38.7,149.8,42,152z"/>
		<path class="st18" d="M197.2,52.1c-1.7-1.8,1.7-2,1-3.6c-2-0.8-4,3.3-6.2,0.4c11.2-7.7,23.1-14.4,34.9-21.2c1,0.9,1.4,2.2,2.1,3.3
			C218.4,38,207.8,45,197.2,52.1z"/>
		<path class="st19" d="M23.9,92.9c14.7-2,29.1-5.5,43.7-8.3c2.1-0.4,4.2-0.6,6.4-0.6c-0.8,3.5-5.1,2-6.6,4.6
			c-1.8,1.5-3.9,1.5-6.1,1.7c-2.3,0.2-4.7,0.3-6.1,2.6c-3.2,2.1-7,1.9-10.6,2.5c-4.5,0.7-9.2,0.9-12.4,4.9c-0.4-0.2-0.8-0.6-1-1
			c-0.5-2.4-1.5-4.2-4.4-4c-1.3,0.1-2.6-0.2-3.5-1.2C23.5,93.6,23.7,93.3,23.9,92.9z"/>
		<path class="st20" d="M160.1,63.1c-0.7,0.5-1.5,1-2.2,1.6c-0.3,1.2-1.3,1.9-2.3,2.4c-5.9,3.3-12.3,2.5-18.5,2
			c-4.7-0.3-9.2-0.3-13.8,0.4c-12,1.9-24.1,3.2-36.2,4.6c-1.3,0-2.7,0-4,0c-0.5-0.4-0.6-0.8,0-1.2c11.4-2.9,23.1-4.1,34.7-5.5
			C131.7,65.6,145.9,64.5,160.1,63.1z"/>
		<path class="st21" d="M42,152c-6,0-12.1-0.2-18.1,0.1c-3.7,0.2-6.4-1.1-8.1-4.3c0.7-0.6,1.1-1.6,2.2-1.6c2.1,2.9,5.1,2.5,8.1,2.5
			c2.5,0,4.9,0,7.8,0c-3.2-0.4-6,0-8.7-0.3c-1.6-0.2-3.8,0.4-4.2-2.2c9.1,0,18.2-0.1,27.3,0c2.6,0,6.4,0,6.7,2.6
			c0.2,2.3-3.7,0.7-5.5,1.7C47.2,151.7,44.2,149.9,42,152z"/>
		<path class="st22" d="M284,17.2c-4.8,2.3-9.7,0.3-14.6,0.6c-8.9,0.4-17.4,2.1-25.7,5.1c-1.8-0.1-4,0.6-4.8-2
			c3.3-4,8.1-4.5,12.6-4.8c8.3-0.5,16.6,0,24.9,0.1C278.9,16.8,281.8,14.4,284,17.2z"/>
		<path class="st23" d="M164,156.9c16.5,0.1,33,0.1,49.6,0.2c1.8,0,3.7-0.6,5.3,0.7c-17.7-0.2-35.4,1.1-53,2.5c-2,0.2-4,0.4-5.9-0.4
			c-0.3-1-0.7-1.9-1-2.9c-0.4-0.5-0.3-0.9,0.1-1.3C160.9,155.3,162.5,155.8,164,156.9z"/>
		<path class="st24" d="M516.9,143.9c-1.6-0.7-3.3-1.3-4.9-2c-0.3-0.2-0.4-0.4-0.3-0.6c0.1-0.2,0.2-0.3,0.3-0.3
			c8.6,0.1,17-1.2,25.5-2.1c3.7-0.4,5.2-2.9,6.5-5.8c0.2,0.8,0.2,2,0.7,2.3c2,1.1,1.5,2.6,1,4.3c-0.6,2-2.1,2.1-3.9,2.3
			C533.4,142.6,525.2,143.3,516.9,143.9z"/>
		<path class="st25" d="M284,17.2c-2.5-0.7-5.3,0.6-7.7-1c4.7-1.9,8.4-6.7,14.3-5.3c4.6-1.4,9.2-0.7,13.9-0.8
			C315.4,9.9,326.2,10,337,10c0.3,0.6,0.2,1.1-0.4,1.5c-1.9,1.1-4.1,0.8-6.1,0.9c-6-0.1-12,0.2-18,0.1c-3.4,0-6.8-0.5-10.1,0.4
			c-4.2,1.3-8.8-0.7-12.8,1.7c-0.8,0.9-1.8,1.7-2.8,2.4C285.9,17,285,17.1,284,17.2z"/>
		<path class="st26" d="M457,9c-1.5-1.6-3.4-0.9-5.2-0.9C438,8,424.3,7.9,410.5,7.9c11.7-1.2,23.5-0.6,35.3-0.8
			c7.5-0.2,15,0.2,22.4-0.2c6.9-0.4,13.1,0.9,18.6,5.3c0.2,0.1,0.5,0.3,0.7,0.4c-0.3,0.1-0.5,0.2-0.8,0.3c-1.6,0-3.2,0-4.8,0.1
			c-2.5-2.3-5.3-3.7-8.8-2.9c-4.1,0.1-8.1-0.2-12.2,0.2C459.5,10.2,458.1,10.2,457,9z"/>
		<path class="st27" d="M68.9,126c-1.3,1.9-3.3,1.2-5,1.2c-16.7,0-33.3-0.1-50-0.1c-2.7,0-5.3-0.5-7.8-1.4c-0.6-1.5-1-3-0.2-4.6
			c2.7-3.3,5.8-3.1,9.2-1.2c0.2,1.9-2,2-2.7,3.6c1.7,1.4,3.7,1,5.5,1c14.7,0,29.3,0,44,0.1C64.3,124.5,66.9,124,68.9,126z"/>
		<path class="st28" d="M517,18.7l-0.4,0.1l-0.4-0.1c-2.2-1.4-4.2-1.4-6,0.8c-2.9-0.7-7.5,1.3-7.2-4.6c1.4-3.5,4.6-1.4,6.9-2
			c2.3-0.6,4.8-0.7,7.3-1c1.8,0.1,4.6-2.4,4.9,1.8C519.5,14.7,516.6,15.1,517,18.7z"/>
		<path class="st29" d="M388.1,153.9c0.7,0.1,1.4,0.2,2.1,0.2c0.9,3.3-0.8,3.8-3.6,3.7c-11.9-0.4-23.7-0.7-35.6-1
			c6.5-1.8,13.1-0.4,19.6-0.8c1.7-0.1,3.8,0.8,4.4-1.9C379.3,151.5,383.7,152.5,388.1,153.9z"/>
		<path class="st30" d="M82.9,72.8c0,0.4,0,0.8,0,1.2c-13.4,2.2-26.7,5.2-39.9,8.4c-1.9,0.5-3.8,2-6,0.7C52,78,67.2,74.4,82.9,72.8z
			"/>
		<path class="st31" d="M473.7,129c-2.1,3.4,1,5.8,1.7,8.6c0.6,2.9,2.5,5.8-1.6,7.6c-5.8,1.1-5.8,1.1-5.8-4.8c0-1.5,0.1-3,0.1-4.5
			c1.1,2.3,2.4,4.3,5.6,4.1c-0.2-4.7-2.9-8.7-3.8-13.1C471.8,126.7,473.8,126,473.7,129z"/>
		<path class="st32" d="M15,120.1c-3.1-0.1-6.2-0.8-9.1,0.9c2.5-5.9,8.4-5.3,13.2-6.8c0.7,0.5,1.3,1,2,1.6c0,0.9-0.1,1.8-0.9,2.4
			c-0.6-0.1,0.1-0.1-0.4,0.1c-0.5,0.2-0.4,0.3,0,0.2c2.9-1.2,5.9-0.9,8.8-0.6c1.1,0.1,2.9,0.1,2.3,2.2
			C25.6,122.2,20.3,122.4,15,120.1z"/>
		<path class="st33" d="M21,146c3.4,2,7.1,0.6,10.6,0.9c2.1,0.2,4.3-0.2,6.7,2.8c-6.6,0-12.5,0.1-18.4-0.1c-1.8-0.1-1.9-2-1.9-3.5
			c0.2-0.2,0.5-0.3,0.8-0.3C19.5,145.9,20.3,146,21,146z"/>
		<path class="st34" d="M238.9,20.9c1.6,0.7,3.2,1.3,4.8,2c-4.9,2.7-9.8,5.4-14.8,8.1c-2.5,0-2.7-1.4-2.1-3.3
			c0.4-0.2,0.8-0.4,1.2-0.6c3.2-1.3,6.6-2.4,8.8-5.4C237.5,21.4,238.2,21.1,238.9,20.9z"/>
		<path class="st35" d="M27.2,109.9c-1.7,0-3.4,0.1-5.1,0.1c0-5.1-0.8-10.2,0.7-15.2c1,0.2,2,0.4,2.6,1.3
			C27.8,100.5,26.8,105.3,27.2,109.9z"/>
		<path class="st36" d="M521.9,13.8c-0.8-2.9-3.3-1.2-4.9-1.8c0.9-1.5,2.9-0.3,4-1.6c-6.2-1.2-12.2,0.3-18.2,0.6
			c0.8-0.6,1.5-1.7,2.3-1.7c5.4-0.3,10.7-0.6,16.1-0.5c1.2,0,3.4-0.4,3.6,1.7C525,12.2,523.6,13.3,521.9,13.8z"/>
		<path class="st37" d="M537.8,84c-2.6-1.5-4.1-3.3-1.7-6c1.2-1.3,0.5-2.8,1-4.1c1.7,4.3,2.3,8.7,1.9,13.3
			C538.6,86.1,538.2,85.1,537.8,84z"/>
		<path class="st38" d="M539.2,107c-3.9,0.6-6.2-0.5-5.4-5c1.7,0,3.5-0.1,5.2-0.1C539.1,103.5,539.1,105.3,539.2,107z"/>
		<path class="st4" d="M25.3,96c-1-0.1-1.8-0.3-2.4-1.2c0-0.3,0.1-0.6,0.3-0.8c1.3,0,2.7,0,4-0.1c3.7-0.4,5.3,1.2,4.7,4.9
			C29.6,98.1,27.8,96.2,25.3,96z"/>
		<path class="st18" d="M236.8,21.6c-1.5,4.2-5,5-8.8,5.4C230.7,24.8,233.7,23.1,236.8,21.6z"/>
		<path class="st39" d="M486.7,12.8c0-0.2,0-0.5,0.1-0.7c4.7-0.1,9.4-0.1,14.2-0.2C496.3,14.2,491.5,12.6,486.7,12.8z"/>
		<path class="st40" d="M152.9,157.3c0.5-1,1-2.5,2.4-1.7c1.3,0.8,0.5,2.4,0.6,3.6C154.9,158.6,153.9,157.9,152.9,157.3z"/>
		<path class="st41" d="M153.8,136.1c-0.9-2.3-1.9-4.7-2.8-7c-1.4-2.3-0.6-4.1,1.3-5.7c7.5-2.8,15.1-2.3,22.8-1
			c1.5,0.9,2.3,2.4,2.3,4.1c-0.1,3.9,1,7.8,1.2,11.7c-0.5,5.6-1.1,6.3-6.6,6.2c-4.5-0.1-9.3,1.3-13.6-1.5
			C156,141,155.5,138.2,153.8,136.1z"/>
		<path class="st42" d="M97.3,104.1c-3.4,0-6.8-0.1-10.2-0.1c0.2-2.7,2.5-2.9,4.3-3.2c9-1.5,18-2.9,27.1-1.9c4.1,1.4,8.8,0,12.6,2.8
			c0.5,0.9,0.5,1.7-0.2,2.4c-2,0.8-4,0.4-6-0.1C115.6,102.6,106.5,103.7,97.3,104.1z"/>
		<path class="st43" d="M152,123.9c-0.4,1.7-0.7,3.5-1.1,5.2c-2.6,0.2-3.3-1.7-4.1-3.6c-2.6-6.2-6-11.8-11-16.4
			c0.2-0.2,0.3-0.4,0.5-0.6c4.1-1,5.3,2.3,7.2,4.7c0.7,1.2,2,1.7,2.9,2.6C148.4,118.5,149.2,121.9,152,123.9z"/>
		<path class="st44" d="M153.8,136.1c2.7,0.5,2,4,4.2,4.9c1.9,3.3,3.3,6.7,3.2,10.5c-0.2,2.1,1.6,3.1,2.8,4.3c0,0.3,0,0.6,0,1
			c-1.8,0.2-3.5,0.2-4.9-1c-2.8-3.9-1.4-8.7-3.1-12.9C155.2,140.7,154.5,138.4,153.8,136.1z"/>
		<path class="st40" d="M156,143.1c2.7,3.9,1.5,8.7,3.1,12.9c-0.1,0.4-0.1,0.7-0.2,1.1C156.1,152.8,156,147.9,156,143.1z"/>
		<path class="st43" d="M124.8,104.1c2.1,0,4.1-0.1,6.2-0.1c0.2,0,0.5,0,0.7,0.1c1.9,0.7,3.9,1.4,4.7,3.7c0.1,0.5,0,0.9-0.3,1.3
			c0,0-0.2,0.2-0.2,0.2C132.4,107.1,128.7,105.4,124.8,104.1z"/>
		<path class="st45" d="M502.9,14.9c0.7,5.1,5.8,1.8,8,4.1c1.7,0.1,1.6,1.7,2.2,2.8c1.4,3.3,2.7,6.6,4.1,10c0.4,1.1,0.8,2.5-1.2,2.1
			c-1.2-0.2-1.7-1.4-2.3-2.4c-0.9-1.7-1.4-3.9-3.1-4.9c-2.7-1.6-2.3,2.6-4.3,2.8c-0.5,0-1-0.1-1.4-0.3c-2.4-6.9-7.6-7.8-14.2-7.6
			c-14.1,0.4-28.3,0.1-42.4,0.1c-13.1,0-26.2,1.6-39.3,1.1c-4.4-0.2-4.8,0.6-3.6,5.1c0.5,1.8,1,3.5,0.9,5.4
			c-0.4,2.2-1.1,4.2-3.6,1.8c-2.1-1.9-5.4-1.6-7.2-4c-0.8-3.8-3.6-7.5-1-11.6c6.6-0.9,13.2-1.6,19.8-1.7c27.8-0.1,55.6,0,83.3-0.1
			c-3.7-0.5-7.4,0-11-0.2c-1.9-0.1-4.1,0.4-5.6-1.5C488.2,14,495.6,15.7,502.9,14.9z"/>
		<path class="st46" d="M457,9c6.1,0,12.1,0,18.2,0c1.8,0.2,1.5,1.2,0.7,2.2c-21.6,0.4-43.2,0.9-64.8,1.3
			c-6.8,0.1-13.6,0.3-20.5,0.5c-1.6,0.1-3.3-0.6-4.8,0.7c-0.3,0.7-0.7,0.7-1.2,0.2c-0.7-1.4-0.8-2.7,0.6-3.8c0.3,0,0.6,0,1,0.1
			c9.4,1.3,18.7-0.6,28.1-0.2c0.2-0.3,0.5-0.6,0.8-0.9C429,9,443,9,457,9z"/>
		<path class="st47" d="M384.9,13.7c0.3,0.1,0.7,0.1,1,0c-1,2-2.9,1.4-4.4,1.3c-6.4-0.5-12.8-0.4-19.2-0.1
			c-17.5,0.7-35.1,0.4-52.6,1.3c-7.6,0.4-15.2,0.8-22.8,0.7c0.5-0.9,0.9-1.8,1.4-2.7c1.5-1.3,3.4-0.7,5.1-1.2
			c3.8-0.1,7.5,0.2,11.3-0.4c20.4-0.3,40.8-1.3,61.2-1.1c3.1,0,6.3-0.2,9.4,0.3C378.3,12.9,381.9,11.8,384.9,13.7z"/>
		<path class="st48" d="M205,50c3.3-2,6.6-4.1,9.9-6.1c1-0.4,1.2,0.2,1.3,1c-0.7,2.3-2.5,3.6-4.4,4.9c-0.3,0.2-1.2-0.1-0.8,0.7
			c0.1,0.2,0.9,0.3,1.2,0.6c-0.1,3-2.9,3.8-4.7,5.3c-1.5,1.3-2.9,2.7-4.3,4.1c-2.4,1.1-5,1.6-7,3.2c2.4-0.5,5-1.3,7.6-0.1
			c-0.8,3,0.2,6.3-1.6,9.1c-1.2,1.1-2.7,1.2-4.1,1.6c-3,0.8-5.6,0.8-6.6-3c-0.3-1.3-1.2-1.9-2.6-1.5c-0.9,0.2-1.8,0.1-2.7-0.4
			c-1.7-2.3,0.4-3.2,1.6-4.4c3.5-3.6,7.8-6.2,11.7-9.3c1.4-1.1,3.1-2,3.8-3.8C203.6,51,204.3,50.6,205,50z"/>
		<path class="st49" d="M480.9,15.9c5.3,0,10.6,0.1,16,0.1c1.1,0,3.1-0.6,2.1,1.9c-1.3,1-2.9,0.6-4.3,0.6c-27,0-54,0.1-81,0
			c-4.5-1.2-9.1,0.3-13.7-0.1c-2.1-0.2-4.3,0.4-6-1.4c1.7-1.5,3.8-0.9,5.7-0.9C426.8,16,453.8,15.9,480.9,15.9z"/>
		<path class="st50" d="M216,45c-0.4-0.4-0.8-0.7-1.2-1.1c4.4-4.9,10.5-7.4,15.8-10.8c9.3-5.9,18.5-12.5,30.1-13
			c9.4-0.4,18.9-0.7,28.3-1c1.1,1.1,3.2-0.5,4.1,1.4c-1,2.1-3,1.9-4.8,1.8c-9.3-0.5-18.5,1.1-27.8,1.1c-8.4-0.1-15.2,4.2-22,8.3
			c-7.3,4.5-14.3,9.6-21.9,13.6C216.5,45.2,216.3,45.1,216,45z"/>
		<path class="st51" d="M295.9,18.9c0.9-0.3,1.9-0.8,2.8-0.8c20.5,0,40.9-1.9,61.4-1c4.2,1,8.4,0.2,12.6,0.5
			c1.1,0.1,2.9-0.5,2.1,1.8c-2.1,1.5-4.5,1-6.7,1c-15.1,0-30.1,0-45.2,0c-2.8,0-5.6,0-8.3,1c-3.9-1.5-8.1-0.8-12.1-1
			C300.1,20.3,297.7,20.9,295.9,18.9z"/>
		<path class="st52" d="M178,67c5.2-4.2,10.3-8.5,16-12c0.7,0.4,1.4,0.7,2.2,1.1c0.2,2.4-1.6,3.6-3.2,4.6c-3.3,2.2-6.3,4.8-9.3,7.3
			c-1.5,1-2.7,2.4-4.2,3.3c-5.9,2.2-11.9,3-18.1,1.1c-0.8-3,1.7-2.5,3.1-2.7c2.9-0.3,5.9-0.1,8.8-0.5C174.9,69.2,177.3,69.6,178,67z
			"/>
		<path class="st53" d="M375,19c-2.8-1.9-6-0.5-8.9-1c-2-0.3-4.2,0.8-6-0.9c11.3,0,22.6-0.1,33.9-0.1c6.3,0.6,12.8-1.1,19.1,1
			c-4.8,1.1-9.7,1-14.6,1.1c-1.8,0-3.7-0.5-5.1,1.1c-0.5,0.4-1,0.6-1.6,0.6c-3.6-0.5-7.3-0.3-11-0.4C378.7,20.3,376.6,20.7,375,19z"
			/>
		<path class="st54" d="M183,67c3.9-4.2,9.6-6.2,13.1-10.9c0.3,0,0.6-0.1,0.8-0.2c2.4-1.1,3.8-4.1,6.9-4.1c0.8,2.7-1.7,3-3,4.1
			c-5,4.4-11.2,7.3-15,13C183.9,69.9,182.9,69.2,183,67z"/>
		<path class="st55" d="M295.9,18.9c4.7,0,9.5,0,14.2,0.1c1.7,0,3.8-0.5,4.2,2.1c0.8,0.9,0.9,2,0.8,3.1c-1.1,3.8-0.7,8-3.6,11.2
			c-0.5,0.1-1,0.1-1.5-0.1c-1.2-1.4-0.4-2.9-0.4-4.4c-0.2-3.1,3.1-6.3-0.2-9.4c-3.8-0.2-7.6,0-11.4-0.1c-1.8,0-3.7,0.1-5.1-1.3
			c-1.3-0.3-2.9,0.4-3.9-1C291.4,19,293.6,19,295.9,18.9z"/>
		<path class="st56" d="M475.9,11.2c0.3-0.9,0-1.6-0.7-2.2c3.4-0.7,5.9,0.3,6.8,3.9C479.7,13,477.4,13.5,475.9,11.2z"/>
		<path class="st52" d="M203.9,51.8c-2.6,0.9-4,3.7-6.9,4.1c2-2.9,4.6-4.9,8-5.9C204.6,50.6,204.3,51.2,203.9,51.8z"/>
		<path class="st57" d="M131,104c0-0.7,0-1.3,0-2c-1.4-4.4-5.5-5.5-9-6.1c-11.3-2-22.8-2.5-33.7,1.8c-3.9,1.5-8,3.8-7.3,9.4
			c-1.9,2.8-3.3,6.1-7,7c-2.1-4,0.1-7.4,1.9-10.7c1.8-3.2,1.4-5-2.7-5.8c-6.6-1.3-12.8,0.7-19.2,1c-6.8,0.4-13.5,1.2-20,3.2
			c-0.5,0.1-1.2-0.4-1.8-0.7c-0.2-0.2-0.3-0.4-0.2-0.7c0.1-0.2,0.2-0.3,0.3-0.3c1.9-7.1,8.3-4.7,13-5.9c3.2-0.8,6.7-0.6,9.9-2.1
			c6-2.7,12.6-2.4,18.9-3.3c16.8-2.5,33.8-4,50.8-5.9c8.1-0.9,16.2-1.3,24.2-2.1c2-0.2,4-0.3,5.9,0.5c2.4,2.2,0.2,2.9-1.3,2.9
			c-7.3,0-13.9,2.9-20.8,4.2c-1.4,0.3-3.3,0.1-3.7,1.8c-0.4,1.5,1.4,2.1,2.2,3c2.7,3,6.4,5.4,5.8,10.3
			C135.2,105.1,133.2,105.4,131,104L131,104z"/>
		<path class="st58" d="M32.2,100c-0.2,0.3-0.2,0.6-0.1,1c0,1.3-0.3,2.7-0.1,4c0.7,4-0.9,5.6-4.8,5c-3-4.3-0.7-9.3-1.9-13.9
			c3.5-2,5.5-0.5,6.7,2.8C32,99.3,32.1,99.7,32.2,100z"/>
		<path class="st59" d="M36,115.8c11,0.9,22-0.5,33,1.2c3.1,0.5,3.7,1.6,2.2,4.2c-3.2-0.8-6.5-0.6-9.7-1.2c-7.3-1.1-14.7-0.2-22-0.5
			c-2.6-0.2-5.3,0.4-7.8-0.8c-1.7-1.1-0.5-1.8,0.4-2.6C33.3,115.9,34.7,115.8,36,115.8z"/>
		<path class="st60" d="M32,116c-0.3,0.6-0.7,1.2-1,1.9c-3.6,0.9-7.2,1-10.8,0c-0.1-0.8,0.1-1.5,0.8-2C24.7,115.9,28.3,116,32,116z"
			/>
		<path class="st61" d="M164,155.9c-2.9,0.2-4.2-1.1-4-4c0.7-3,2.9-4.2,5.7-4.8c2.3-0.5,4.6-0.5,7-0.5c20,0,40-0.2,59.9,0
			c49.3,0.6,98.5-1.7,147.8-1c2.6,0,5.4-0.7,7.7,1.4c0,2.3,0,4.6,0.1,6.9c-4.4,0-8.7,0.1-13.1,0.1c-8-0.2-15.9-1.2-23.8-1.1
			c-25.4,0.2-50.8-0.4-76.1,0.3c-15.6,0.4-31.3,0-46.8,1.1c-13,0.9-25.9,0.6-38.9,0.6C180.9,154.9,172.5,156.3,164,155.9z"/>
		<path class="st62" d="M178,67c1.5,3.1-1.1,2.5-2.6,3c-4.7,1.6-9.8,0-14.4,2c-4.1,2.5-8.8,2.6-13.3,3.4c-8.7-0.6-17,1.9-25.6,2.6
			c-2.1,0.2-4.3,0.8-6.1-0.9c4.6-4.6,10.8-1.8,16.1-3.8c-4.4-1.6-8.9-2.1-13.4-0.4c-1.4,0.5-2.8,1.4-4.2,1c-9.2-2.2-18.4,1.6-27.6,0
			c1.2-1.5,3.1-1.4,4.6-1.6c12.7-1.9,25.4-3.6,38.1-5.4c3.4-0.5,6.5,0.8,9.8,0.9c5.8,0.1,11.3-0.3,16.9-1.9c2.8-0.5,5.5-0.1,8.2,0.4
			c2.6,1.3,5.9,0.8,8.4,2.5C174.6,68.2,176.3,67.6,178,67z"/>
		<path class="st63" d="M116,77.1c10.7-0.3,21.2-3.5,32-3.1c-0.4,2.8-2.9,2.3-4.6,2.5c-13.6,1.7-27,4.3-40.7,5.9
			c1.1,0.5,2.6-0.5,3.4,0.9c-3.2,3.5-7.7,2.5-11.5,2.8c-7.2,0.6-14.4,2-21.6,2.8c-2.1,0.2-4.3,1-6.1-0.9c1-3.7,5.1-1.8,7-4
			c12.7-2,25.5-4,38.2-6C113.5,77.8,114.7,77.4,116,77.1z"/>
		<path class="st64" d="M473.7,129c-1.2-0.7-2.5-1.4-3.7-2.1c-2.5-5.4-5.7-10.4-9.3-15.1c-3.8-5.1-9.8-6-15.6-7.1
			c2.5-3.5,6-2.1,8.9-1.4c3.8,1,7.3,3,9.2,6.8c0.6,1.3,1.6,2.1,2.8,2.9c0.3,0.1,0.8,0.1,0.9,0.3c5.4,8.5,13.6,6.3,21.4,5.7
			c4.9-0.4,9.9-1.6,14.6,1c15,0.8,30-1.3,45-0.9c-5.4,6.6-13,8.6-20.9,9.9c-1,0.2-2.3,0.1-2.2,1.4c0.1,1,1.4,0.5,2.1,0.7
			c-0.3,2.3-2.2,2.2-3.8,2.3c-13.1,0.4-26.1,1.5-39.2,2.1c-3.7,0.2-6.5-0.8-8-4.4C475.3,130.3,474.5,129.7,473.7,129z"/>
		<path class="st65" d="M388,147c-4.3,0-8.7,0-13,0c-68.1,0.3-136.2,1.5-204.3,1c-4,0-8,0.1-10.7,3.9c0.3-3.8-1.6-7.2-2-10.9
			c5.6,3.9,11.8,1.6,17.7,1.6c2.2,0,0.9-3.1,1.4-4.7c0.5-0.3,0.9-0.4,1.5-0.3c1.6,0.9,1.4,2.8,2.2,4.1c1.8,1.3,3.9,0.8,5.8,0.8
			c15,0,29.9,0,44.9,0.1c2.3,0,4.7-0.5,6.6,1.4c-0.7,2.5-2.7,1.3-4.2,1.4c-21.6,0.6-43.3,0.7-61.9,0.5c18.9,0.3,41,0.5,62.9-0.7
			c21.1-1.1,42.2-0.8,63.3-0.6c23.5,0.2,46.9,0,70.4,0.3c2,0,4,0.2,6-0.3c3.8-0.4,7.5-0.1,10.7-0.2c-8.6-0.3-17.7,0.9-26.9,0.5
			c-16.4,0-32.9,0-49.3,0c-2,0-4,0.3-5.9-0.5c-0.6-0.5-0.7-1-0.3-1.7c1.9-1.5,4.1-1.1,6.2-1.1c9.8-0.1,19.6,0,29.3,0
			c13.1,0,26.2,0,39.3,0c2.5,0,5,0,6.6-2.4c2.8-1.1,2.8,1.9,4.2,2.8C389,143.7,388.9,145.4,388,147z"/>
		<path class="st66" d="M463.3,110.1c-3-0.4-4.3-3.2-6.9-4.5c-3.9-1.9-7.4-2-11.3-1c-12.9-1-25.7-0.4-38.2,3.3
			c-2.9,1.1-2.9-1.8-3.2-3c-0.7-2.3,1.1-3.9,3.1-5.1c2.6-0.9,5-2.9,8-1.3c1,2.3,3,2.1,5,2.1c6.1,0,12.1-1.5,18.3-1.2
			c4.1,0.2,8.3-0.1,12.6,1.7c0.1,0.1,0.3-0.9-0.1-0.4c-0.1,0.1-0.2,0-0.5-0.2c-0.8-0.4-1.4-0.9-0.9-1.9c4.8-1.5,14.8,3,16.3,7.4
			c0.4,1,0.2,1.9-0.5,2.8C464.4,109.4,463.8,109.7,463.3,110.1z"/>
		<path class="st67" d="M407,101c-3.2,2.3-3.7,4.6-0.1,7c-2.3,1.8-4.5,3.5-6.8,5.3c-3,1.1-3.6,4-5.1,6.3c-1.3,1.9-2.1,4.8-5.5,3.2
			c-1.5-3.6,1.5-6,2.2-9c3.7-5.7,6.9-11.9,14.1-14.2C406.7,99.7,407.2,100,407,101z"/>
		<path class="st68" d="M389.9,122.9c2.8-0.8,4-3,5.2-5.4c1-2.1,1.9-4.6,5.1-4.2c-6.4,8.5-8.3,18.9-11.3,28.7
			c-2.3,0.2-2.9-1.1-2.9-3.1C384.2,134.3,386.3,125.9,389.9,122.9z"/>
		<path class="st69" d="M465,109c-1-5-8.8-9.9-16-10c-0.2,0-0.5,0-0.7-0.1c-1.1-0.6-2.4-1.3-0.7-2.6c4.8-1.1,8.7,1.3,12.7,3.2
			c1.9,0.9,3.7,2.2,5.5,3.4c3.4,2.2,6.4,2.2,9.5-0.6c2.4-2.2,5.2-3.5,8.6-3.5c3.5,0,5.7-1.4,5.9-5.2c0.2-3.3,2.6-5.1,5.4-5.8
			c5.2-1.3,8.9-5.1,13.3-7.7c1.7-1,2.9-2.4,1.8-4.5c-1-1.8-1.8-4.1-4.8-3.4c-2.1,0.5-4.5,1-4.5-2.5c2-1.7,4.5-1.9,7-2
			c1.8-0.1,3.7,0.3,4.9-1.5c1.1-1.7,0.7-3.5,0.8-5.3c0.1-2.1,0.7-3.8,2.1-5.4c3.3-3.6,4.9-3.5,7.3,0.7c0.5,0.9,1.1,1.7,1.5,2.6
			c1,4.4,1.7,8.9,3.2,13.2c1.5,8.1,1.3,16.2,1.4,24.4c0,2.3-0.4,4.8,2.7,5.7c0,1,0,2,0,3c-1,1.8-2.8,1.4-4.4,1.4
			c-12.9-0.2-25.7,1.7-38.6,1c-0.7,0-1.3,0.1-1.9,0.5C479.7,108.3,472.3,108.6,465,109z"/>
		<path class="st70" d="M524,59c-0.5-0.4-1-0.8-1.5-1.2c-1.3-1.1-0.9-4.5-2.8-3.7c-2.3,1-4.7,2.9-4.8,6.3c0,2.2,0.9,4.6-0.8,6.7
			c-0.7,0.6-1.5,0.6-2.3,0.1c-0.2-7.3-2.7-14.3-2.8-21.7c0.6-1.8,0.5-3.6,1-5.4c0.5-2,1.3-4,3.5-4.4c2.3-0.5,3.6,1.3,4.9,2.8
			c0.6,0.8,0.9,1.8,1.5,2.6c0.7,1,1.4,2,2.1,3c0.3,1.7,0.7,3.3,1,5C522.1,52.4,525.8,55.5,524,59z"/>
		<path class="st71" d="M524,59c0.7-3.5-3.7-6.4-0.9-10.1c2.7,7.4,4.1,15.1,4.8,23C525.3,68,524.3,63.6,524,59z"/>
		<path class="st72" d="M503,120c-7.8,0.3-15.6,0-23.2,1c-7.1,0.9-11.3-1.7-13.7-8c-0.2-2.6,1.3-2.9,3.5-2.9c25.3,0,50.5,0,75.8,0
			c2.8,0,3.9,0.9,3.8,3.7c-0.1,2.9-1.1,4.2-4.1,4.3c-12.3,0.3-24.5,0.6-36.8,1C506.4,119.1,504.5,118.4,503,120z"/>
		<path class="st38" d="M487,108c1.5-1.5,3.5-0.9,5.2-0.9c12-0.4,23.9-0.7,35.9-1.1c1.3,0,2.6-0.6,3.8-0.9c-0.2,1.8-1.6,1.9-2.9,1.9
			C515,107.2,501,108.5,487,108z"/>
		<path class="st73" d="M512,141c0,0.3,0,0.6,0,1c-10.3,1.1-20.6,2.6-31.1,2.1c-0.4-0.7-0.5-1.6-0.8-2.4c-1.7-5.7-1-6.4,5-6.8
			c11.2-0.8,22.4-1.2,33.6-2.2c2.8-0.2,5.6-0.7,8.3,0.2c-0.2,1.9,1.7,2.7,3.5,4.9c-8-1.1-14.3,3.1-21.5,2
			C509.7,141.6,511,140.7,512,141z"/>
		<path class="st74" d="M527,133c-14.8,1-29.6,2-44.3,3c-2.3,0.1-2.8,1.3-2.6,3.2c0.2,1.6,0.5,3.2,0.8,4.8c-2.7-4-2.8-8.9-4.8-13.1
			c4.1,5,9.8,3.1,14.7,2.8c10.7-0.7,21.4-1.7,32.1-1.8c1.4,0,3,0.4,4.2-1c3.6,0,7.3,0,11.5,0C534.5,133.4,530.7,132.9,527,133z"/>
		<path class="st75" d="M519.9,41c-7-5.6-7-5.6-9.2,3.1c-0.1,0.4-0.6,0.7-1,1.1c-3.7-4.7-4.6-10.2-4.1-16c1.3-0.6,1.4-1.8,1.4-3
			c0-1.4,0.8-2.1,2.2-2.1c1.2,0,2.3,0.1,2.8,1.5c0.9,2.3,2.5,4.2,3.3,6.6c0.7,2.1,1.5,1.1,1.8-0.4C518.5,34.7,520.5,37.5,519.9,41z"
			/>
		<path class="st76" d="M513,21.8c-0.7-0.9-1.5-1.8-2.2-2.8c0.4-1.1-1.8-2.7,0.5-3.2c2.4-0.6,4.2,0.4,4.9,2.9
			C515.7,20.4,514,20.7,513,21.8z"/>
		<path class="st77" d="M61.9,118.9c3,1.2,7-1.9,9.3,2.2c-0.8,1.6-1.5,3.3-2.3,4.9c-17.8,0-35.6,0-53.4,0c-1.3,0-2.7,0-4-0.1
			c-1.5-0.2-2.4-1.1-2.4-2.7c-0.1-1.9,1.2-2.1,2.6-2.2c1.1,0,2.4,0.1,3.2-0.9c5.4-0.8,10.9,0.3,16.2-1c2.6-1.3,5.4-0.3,8.2-0.6
			C46.9,118.7,54.4,118,61.9,118.9z"/>
		<path class="st78" d="M119,100c-8.9-0.2-17.7,0.7-26.5,2c-1.9,0.3-3.9,0.6-5.4,2c-0.7,0-1.3,0-2,0c-1.9-2.7-0.8-4.8,1.7-6.1
			c1.8-1,3.8-2.1,5.9-2.4c9.5-1.3,19-1.9,28.6-0.3c0.8,0.1,1.5,0.6,2.2,1.1c1.1,0.7,2.3,1.5,1.9,3.1c-0.4,1.6-1.8,1.1-2.9,1.1
			C121.2,100.5,120.1,100.7,119,100z"/>
		<path class="st79" d="M119,100c1.8-0.4,5.1,1,5.2-1.1c0.2-2.7-3.1-2.5-5.3-3c-8.4-2.1-16.8-0.2-25.2,0.1c-5.4,0.2-8.4,3.2-8.7,8
			c-0.8,1.8-2.6,2.1-4,3c-3.1-1.1-2.6-3.1-0.9-4.9c3.9-4.4,8.8-7.2,14.5-7.9c8.7-1.2,17.4-1.3,26.1-0.1c2.7,0.4,5.5,1.2,7.9,2.5
			c1.9,1,4.3,2.5,2.4,5.4C127,101.4,122.9,101.5,119,100z"/>
		<path class="st80" d="M172.9,68.9c-3.3,0.6-6.2-0.3-9.1-1.7c-0.1-1-0.6-2.1,0.1-3.1c1.6-0.7,3.2-1.4,4.8-2.2
			c1.6,1.8-1.7,2.2-0.8,3.7C169.5,66.9,173.4,64.4,172.9,68.9z"/>
		<path class="st81" d="M164,64.1c0.6,1,1.5,2.1-0.1,3.1c-2.6,0.3-5-0.7-7.5-1.2c0.1-0.9,0.8-1.1,1.5-1.3
			C160,65.7,161.9,63.5,164,64.1z"/>
		<path class="st82" d="M384.9,13.7c-3.1,0.4-6.2,1.2-9.1-0.6c-1.4-2.1-3.7-1.6-5.7-1.7c-1.9-0.2-3.9,0.2-5.7-0.8
			c-0.5-0.4-0.5-0.8-0.1-1.3c5.4-0.1,10.9-0.2,16.3-0.2c1.6,0,3.3-0.5,4.6,1C385.1,11.3,385,12.5,384.9,13.7z"/>
		<path class="st83" d="M364.2,9.2c-0.1,0.3-0.2,0.6-0.3,1c-0.8,2.7-3.2,1.5-4.9,1.7c-1.8,0.2-3.6,0-5.3,0c-5.6-0.6-11.3,1.2-16.7-1
			c0-0.3,0-0.6,0-1C346.1,10.1,355.1,8.2,364.2,9.2z"/>
		<path class="st84" d="M415,10c0.2,0,0.3,0,0.5,0.1c0.6,0.3,0.6,0.8,0,0.8c-5.9,0.1-11.9,0.2-17.8,0c-3.9-0.1-7.8,1-11.6-0.8
			c4.6-0.1,9.2-0.1,13.9-0.2C405,9.3,410,9.2,415,10z"/>
		<path class="st26" d="M415,10c-5,0-10,0-15,0c4.9-2.1,10-0.4,15-0.9C415,9.3,415,9.7,415,10z"/>
		<path class="st85" d="M67,88c10.1-0.2,19.8-3,29.9-3.6c3-0.2,6.3,0.8,9.1-1.3c0.6-0.7,1.4-1,2.3-1.2c3.7-0.4,7.6,0.3,11.2-0.9
			c12.4-2.2,25.1-2.3,37.6-3.3c5.1-0.4,10.2-1.6,15.4-1c2,0.2,4.6-0.3,4.8,3c-4,3.4-9.1,1.4-13.6,2.7c-2.1,0.6-4.6,0.3-6.9,0
			c-0.3-0.1-0.6-0.1-0.9-0.2c-14.4,0.4-28.7,2-42.9,3.8c-12.9,1.6-25.9,2.9-38.9,4.3c-6.4,0.7-12.8,1.3-19.2,2
			c-1.4-1.6,0-1.6,1.1-2.1C59.6,88.4,63.6,89.9,67,88z"/>
		<path class="st86" d="M353.9,11.1c3.3-0.6,6.8,0.9,10-0.8c2.9-0.1,5.8-0.2,8.7-0.3c2.1-0.1,3.5,0.7,3.1,3.2
			c-23.9-0.3-47.9,0.2-71.8,0.8c-3.9-0.5-7.9-1-11.8,0.2c-1.3,1.2-2.6-0.2-3.9,0.1c1.9-3.4,5.2-2,7.9-2.3c1.9-0.2,3.9-0.1,5.9-0.1
			c3.3-1,6.8,0.3,10.1-0.8c6.3,0,12.7,0,19,0.1C338.7,11.7,346.3,11.8,353.9,11.1z"/>
		<path class="st87" d="M353.9,11.1c-7.6,1.6-15.2,1.4-22.8,0.1c1.9-0.1,3.9-0.1,5.8-0.2C342.6,11,348.3,11,353.9,11.1z"/>
		<path class="st83" d="M312.1,11.1c-3.2,1.7-6.7,0.6-10.1,0.8C305.3,10.1,308.8,11.3,312.1,11.1z"/>
		<path class="st88" d="M39,119.1c-2.6,0-5.2,0.1-7.8,0.1c-5,0-10.1,0-15.7,0c1.8-1.7,3.4-0.9,4.8-1.3c3.6,0,7.2,0,10.8,0
			c2.6,0.1,5.3,0.2,7.9,0.3c0.4,0.2,0.5,0.3,0.4,0.5C39.2,119,39.1,119.1,39,119.1z"/>
		<path class="st89" d="M152,123.9c-4.8-0.4-4.7-4.5-5.9-7.7c0.5-0.9,1.4-1.2,2.3-1.4c8.9,0.2,17.7-0.9,26.6-1
			c9.1,1.3,18.2,1.3,27.4,0c1.1-0.3,2.3-0.3,3.5-0.3c22.3,0,44.6-1.1,66.9-1.2c8.9,0,17.9-0.9,26.9-0.8c7.5-0.2,15,0.8,22.5-0.7
			c4-0.7,7.9-0.4,11.9-0.4c16.8,0.2,33.5-1.6,50.2-1c2,0.1,4-0.1,5.9,0.6c1.6,0.7,2.5,1.9,2.1,3.8c-1.2,4.4-4.1,6.1-8.6,5.6
			c-2.5-0.3-5,0-7.4,0.8c-1.5,0.3-3,0.4-4.5,0.4c-20.8-0.2-41.6,1.7-62.4,1c-2.7-0.1-5.3,0.2-8,0.6c-0.6,0.1-1.3,0.2-1.9,0.2
			c-39.3,0.2-78.6,2.1-118,2c-2.2,0.1-4.4-0.1-6.5-1.1C167.4,122.7,159.7,123.1,152,123.9z"/>
		<path class="st90" d="M175.1,123.3c1.9,0,3.8-0.1,5.7-0.1c0.2,2-3.1,1.9-2.4,4.2c-0.1,3.5,2.2,7.2-0.4,10.6c-0.3,0-0.6,0-0.9-0.1
			C176.4,133.1,175.8,128.2,175.1,123.3z"/>
		<path class="st91" d="M137,103c-2.1-4-4.3-7.8-8.3-10.2c-1.1-0.7-2.5-1.4-2.2-3c0.3-1.9,2.3-2.5,3.8-2.7
			c8.2-0.6,15.7-5.3,24.1-4.3c0.5,0.1,1.1-0.6,1.7-0.9c0,0,0,0,0,0c6.5-0.1,12.9-1.8,19.4-0.7c0.9,8.1-0.2,16-3.2,23.6
			c-0.7,1.7-2.2,2.9-4,3.4c-0.5,0.1-1,0-1.4-0.4c-1.8-3.8-4.6-1.3-7-1c-0.5,0.1-1,0.2-1.4,0.3c-4.5,0.1-8.6,0.4-10.4,5.6
			c-0.8,2.3-2.7,2.7-4.8,1.2c-2.1-2-3.2-5.3-7-5c0-0.3,0-0.7,0-1C134.9,106,135.8,104.5,137,103z"/>
		<path class="st92" d="M143,114c1.4-0.2,3.5,0.6,3.8-1.4c1-6.9,6-6.7,11-6.6c0.5,0,1,0,1.5,0.1c1.7,4.2,4.8,2.7,7.7,1.9
			c6.2-2.9,5.6-9.1,6.9-14.3c0.9-3.8,0.8-7.8,1.2-11.6c0.9-0.6,1.7-0.4,2.4,0.4c1,1.8,0.3,3.6,0,5.3c-1.2,6.9-1,13.8-1,20.8
			c0,1.8,0.2,3.7-0.9,5.3c-7.1,1.4-14.3,1.1-21.6,1.2c-1.9,0-4-0.6-5.8,0.6c-0.7,0.2-1.3,0.4-2,0.5C144.8,115.9,143.1,116.1,143,114
			z"/>
		<path class="st42" d="M137,103c-0.3,1.7-0.6,3.3-1,5c-1.1-2-4.1-1.7-5-4C133.1,104.3,135,103.3,137,103z"/>
		<path class="st93" d="M505.6,29.1c1.4,5.3,2.7,10.7,4.1,16c1,5.2,2,10.4,3.1,15.6c0.4,2.1,0.7,4.3-0.6,6.2c-1.6,1.5-3.5,0.8-5.3,1
			c-2.5-0.1-4.9,0.6-7.4,0.4c-1.8-0.2-3.8,0.1-4.6-2.1c0.3-0.4,0.7-0.7,1-1c0.4-0.4-0.3-0.2-0.3-0.2c-19.6,2.5-39.4,0.4-59.1,2.2
			c-4.9,0.5-10,0-14.9,0.1c-2,0-4-0.2-5.8,0.8c-0.5,0.2-1.1,0.2-1.6,0.1c-2.1-1.5-2-3.9-2.5-6.1c-1-4.6-2-9.2-3.6-13.7
			c-2.2-4.7-2.5-9.7-2.8-14.8c-0.1-3.4-1.6-6.4-2.7-9.6c-0.9-2.7,0-3.6,2.7-3.6c31.1,0,62.2-0.2,93.2-0.2c3.2,0,5.4,1,5.6,4.8
			C504.1,26.5,505.1,27.8,505.6,29.1z"/>
		<path class="st94" d="M393.2,19.9c0.3-2.7,2.4-1.8,3.8-1.8c5.3-0.1,10.7-0.1,16-0.1c28.7,0,57.3,0,86,0c0.6,0.1,1.3,0.2,1.9,0.3
			C465.3,19.6,429.6,18,394,20C393.7,20.3,393.4,20.3,393.2,19.9z"/>
		<path class="st95" d="M405.1,33.7c2.7,4.4,1.7,9.7,4,14.2c0.5,1.5,0,3.3-1.4,1.6c-2-2.4-4.6-2.1-6.9-3.1
			c-2.9-3.6-3.3-8.3-4.8-12.4c-0.3-1-0.6-1.9-0.1-2.9c2.8,1.2,6.8,0.1,8.4,4.1C404.5,35.3,404.9,34.2,405.1,33.7z"/>
		<path class="st96" d="M396,31c0.3,0.7,0.6,1.4,1,2.1c-0.4,2.2,0.9,4.1,0.8,6.3c-0.3,1.4-0.6,3.5-2.1,3.5c-2.5-0.1-2.4-3.1-3.7-4.6
			c-2-4.9-4.3-9.8-3.8-15.3c1-1.2,3-1.2,3.6-2.9c0.4-0.1,0.9-0.1,1.3-0.2c0.3,0,0.5,0.1,0.8,0.1C394.7,23.7,396.4,27.1,396,31z"/>
		<path class="st97" d="M292.2,14.1c3.9-2,7.8-1.5,11.8-0.2C300,14,296.1,14.1,292.2,14.1z"/>
		<path class="st98" d="M203.3,59.9c-0.9-2.9,2-3,3.2-4.2c1.8-1.7,3.9-3.1,5.8-4.6c0.6-4.3,5.7-4,7.5-7.1
			c9.8-7.3,20.3-13.5,31.3-18.9c4.1-2,8.7-1.5,13.1-2.1c12-0.2,23.9-1.4,35.9-1.4c6.8,0,7.9,2,4.6,8.2c-1.9,1.3-4.1,0.2-6.2,0.6
			c-13.8-0.3-27.4,1.1-40.9,3.6c-1.4-0.1-2.9-0.3-3-2c-0.1-1.8,1.5-2.6,2.9-2.9c4.2-0.8,8.4-1.9,11.6-1.7
			c-4.6,0.1-10.2,1.1-15.7,2.7c-2.5,0.7-4.6,2-5.1,4.8c-0.2,1.5-0.1,3.1-0.6,4.6c-3.1,4.8-8.4,6.9-12.8,10c-3.1,2.2-6.2,4.4-9.3,6.7
			c-1.8,1.7-3,3.6-1.6,6.1c1.4,2.7,3,5.3,6.6,5.2c7.6-0.2,15.2,0.2,22.8-0.6c9.4-1,18.9-0.2,28.3-0.3c3,0,6,0,8.6-1.6
			c3.1-3.2,2.4-8.4,5.9-11.4c1.9-0.3,2.5,0.9,2.8,2.4c-0.7,5.2-0.3,10.7-4.6,14.7c-8.7,2.1-17.6,1.6-26.5,1.6
			c-3.1,0-6.3-0.4-9.3,0.7c-14.6,0-29.2,1.6-43.9,1.4c-0.5,0-1,0-1.5-0.1c-6.8-0.3-6.8-0.3-6.8-7c0-1.2,0-2.3-0.1-3.4
			c-0.2-0.7-0.6-1.2-1-1.7C204.7,61.4,203.6,61,203.3,59.9z"/>
		<path class="st99" d="M207.1,62c1.4,1.3,1.2,3.1,0.9,4.6c-1,5.2,0.9,7.3,6.1,6.5c-0.4,2.3-2.3,1.9-3.8,2.1c-1.9,0.2-3.9,0-5.6,1.2
			c-0.5,0.2-0.9,0.4-1.4,0.5c-0.7,0.2-1.5,0.3-2.2,0.3c-2.7,0.2-5,2.3-7.9,1.8c-0.8-0.1-1.6-0.2-2.3-0.5c-1-0.5-2-1.1-2.5-2.2
			c-0.8-2.6-1-5.1,0.6-7.5c1-1.2,2.9-3.2,3.2-0.6c1,8.7,6.1,4.1,10,3.6c2.3-1.1,3.5-2.8,3.6-5.4C205.7,65,205.6,63.2,207.1,62z"/>
		<path class="st100" d="M188.8,69c0.1,2.6,0.2,5.2,0.4,7.8c-2.1,2.2-4.6,1.6-7.1,1.1c-3.3-1.7-1.6-4.8-2-7.3
			c-0.1-0.2-0.1-0.5-0.1-0.7c0.8-1.3,1.7-2.4,3.1-2.9c0.5,1.3,1.5,2,2.9,2C186.9,69,187.8,69,188.8,69z"/>
		<path class="st101" d="M207.1,62c0,1.5-0.3,3-0.1,4.4c0.6,4-0.7,6-5,5.6c1.1-2.6-2.5-6.3,1.9-8c0.5-1.1,1-2.2,2.2-2.8
			C206.5,61.5,206.8,61.8,207.1,62z"/>
		<path class="st102" d="M206.1,61.2c-0.2,1.4-0.3,2.7-2.2,2.8c-1,0-2,0-3,0.1c-1.8,0.1-4.7,1.8-5.1-0.7c-0.3-2.1,2.7-2.8,4.9-3.3
			c0.8-0.2,1.6-0.1,2.5-0.2C204.5,59.8,205.4,60.3,206.1,61.2z"/>
		<path class="st103" d="M220.3,45.1c-2,2.8-5.8,3.3-7.9,6c-1.2,0.2-2.4,0.3-4.6,0.6c3.2-2.6,5.8-4.7,8.3-6.7c0,0,0.1,0.1,0.1,0.1
			C217.5,45.7,218.9,43.2,220.3,45.1z"/>
		<path class="st104" d="M220.3,45.1c-1.4-0.7-2.8,1.6-4.2,0c10.6-7.7,21.4-15.1,33.2-20.8c3.5-1.7,7.2-2.3,11.1-2.3
			c10,0,19.9-1.6,29.9-1c1,0.1,2-0.1,2.7-0.9c6.3,0,12.6,0.1,18.9,0.1c-0.9,3.3-3.3,2.7-5.9,2.6c-14.4-0.9-28.7,0.1-43,1.3
			C245.9,25.3,233.9,36.8,220.3,45.1z"/>
		<path class="st105" d="M391.9,20.1c-0.2,1.8-0.2,4-3,2c-0.3-0.1-0.6-0.2-0.9-0.2c-1.9-0.6-3.9-0.5-5.9-0.5
			c-18.6,0-37.2,0-55.8-0.1c-3.3,0-6.2,0.5-8.6,2.9c-1.2,0.6-2.4,0.7-3.4-0.4c0-0.9,0.1-1.9,0.2-2.8c1.2-2.4,3.5-2,5.6-2
			c18.4,0,36.7,0,55.1,0C380.6,19.6,386.4,17.8,391.9,20.1z"/>
		<path class="st106" d="M108,83c-0.7,0-1.3,0-2,0c-1.6,0-3.3,0-4.9,0c14.3-4.5,29.1-6.1,43.7-8c1.1-0.1,2.4,0.1,3.1-1.1
			c4.3-0.6,8.7-1.3,13-1.9c6.4,0,12.8,0.5,18.9-2.1c0,0,0.4,0.3,0.4,0.3c0.8,2.7-1,5.1-1.1,7.6c-0.2,1-0.5,1.9-1.5,2.4
			c-0.2-0.1-0.5-0.1-0.7-0.2c-0.2-2.6-2.2-2.1-3.7-2c-12.6,0.9-25.3,1.8-37.9,2.7c-5.4,0.4-10.8,0.8-16.3,1.3
			C115.4,83.3,111.6,81.6,108,83z"/>
		<path class="st107" d="M263,24.1c0.8-1.2,2-1,3.1-1.1c13.1-0.9,26.2-1.2,39.3-1c2.3,0,4.7,0.1,6.5-1.8c1.2,3.7-0.7,7.2-1,10.8
			c-2,2.5-4.5,4.4-5.2,7.9c-0.5,2.4-2.5,2.1-4,0.2c-0.3-3.3,0.4-6.3,2.3-9c0.3-0.9,0.6-1.9,0.9-2.8c1-3.3,0.2-4.7-3.6-4.5
			C288.5,23.4,275.8,23.7,263,24.1z"/>
		<path class="st108" d="M302.2,39.1c1.2,0.6,2.9,1.2,2.7-0.9c-0.4-4.6,2.1-6.3,6-7.2c-0.2,1.4-0.5,2.7-0.7,4.1
			c1.3,5.8-0.6,11-2.8,16.2c-2.1,1.3-4.2,2.1-6.6,0.9c-1.2-1.5-1-3.3-1.1-5C299.8,44.2,299.5,41.1,302.2,39.1z"/>
		<path class="st109" d="M314.2,23.9c0.9,0.1,1.9,0.1,2.8,0.2c2.8,4.9,1,9.9,0.4,14.9c-1,2.3-5.6,5.4-7.9,5.4
			c-0.2-3.3,0.5-6.3,1.7-9.3C312.1,31.3,313.1,27.6,314.2,23.9z"/>
		<path class="st110" d="M311.1,35c0,3.4-1.7,6.6-1.1,10c1,4.4-0.7,8.6-1,12.8c-0.9,3.8-0.6,7.9-1.9,11.6c-0.6,1.7-0.8,3.4-1.2,5.1
			c-0.3,1-0.8,1.9-1.6,2.5c-0.5,0.2-1,0.2-1.5,0c-0.5-0.6-0.8-1.3-0.9-2.1c-0.1-0.8,0-1.5,0.1-2.3c0.3-1.3,0.6-2.5,0.8-3.8
			c0.7-4.2,1.3-8.4,1.9-12.6c0.2-2,0.8-3.9,2.2-5.4c1.1-5.3,2.1-10.6,3.2-15.9C310.4,35,310.8,35,311.1,35z"/>
		<path class="st111" d="M39,119.1c0-0.3-0.1-0.6-0.1-0.9c7.7,0.2,15.4-1,23,0.7C54.3,119,46.6,119,39,119.1z"/>
		<path class="st112" d="M178,138c-0.3-4-0.6-8-0.9-12c3.7-2.1,7.7-2.5,11.9-2.5c25.3,0.2,50.6-0.6,75.9-0.6
			c9.6,0,19.3-0.2,28.9-0.3c2.1,0,4.4-0.2,6.3,1.2c2,6.2,2,12.4,0.1,18.6c-1.7,1.3-3.8,1.1-5.8,1.1c-36.9,0.3-73.8-0.7-110.7-0.4
			c-1.6,0-3.4,0.4-4.6-1.2C178.9,140.5,179.4,139,178,138z"/>
		<path class="st113" d="M302.9,143.9c18.7,0,37.4,0.1,56.1,0.1c5.3,1.4,10.7-0.5,16,1c-1.7,1.7-3.8,0.9-5.7,0.9
			c-48,0.1-96-0.4-143.9,0.3c-19.4,0.3-38.9,0.6-58.4,0.8c-1.8,0-3.6,0-6.1,0c1.9-2.7,3.8-1.9,5.4-1.9c22-0.1,44,0,66-0.1
			c1.9,0,4,0.7,5.7-0.9c1.3-1.4,3.1-1,4.7-1c18.8,0,37.6,0,56.4,0C300.5,143,301.8,142.8,302.9,143.9z"/>
		<path class="st114" d="M302.9,143.9c-21.6,0.1-43.2,0.1-64.9,0.2c-18.5,0-37.1,0-55.6-0.1c-1.2,0-4.5,1.9-3.3-2.2
			c2.5,0.1,5,0.3,7.5,0.3c37.8,0,75.6-0.1,113.4-0.1c1.2-0.1,2.3,0,3.1,1.1C303,143.3,303,143.6,302.9,143.9z"/>
		<path class="st115" d="M377.1,118.8c2.2-1.2,4.6-0.8,6.8-0.6c3.8,0.4,6.4-0.8,7.9-4.3c0.4-0.5,0.8-0.5,1.2,0.1
			c-0.9,3-3.3,5.5-3.1,8.9c-2.3,5.1-3.5,10.5-3.9,16c-0.8,3-2.5,4.2-6,4.1c-13.6-0.3-27.3-0.1-41-0.1c-0.3-0.6-0.2-1.1,0.4-1.5
			c2.1-1.2,4.5-1,6.8-0.9c10.8,0.3,21.5-0.4,32.3-0.9c2.3-0.1,3.8-0.8,4.3-3.2c0.9-4.6,2-9.1,3.4-13.5c0.6-2.1,0-2.6-2-2.6
			C381.7,120.4,379,121,377.1,118.8z"/>
		<path class="st116" d="M339,142c0,0.3,0,0.7,0,1c-12,0-23.9,0-35.9,0.1c-1.1-0.1-2.4,0.2-3.1-1.1c-0.1-6-0.2-12-0.3-17.9
			c-0.6-1-0.5-1.9,0.2-2.8c0.4,0,0.7,0,1.1,0c2.7,3.7,1.3,8,1.5,12.1c0.3,6.7,0.5,7.1,7,7.2c7.6,0.1,15.3,0,22.9,0
			C334.7,140.5,337.1,140.2,339,142z"/>
		<path class="st61" d="M375,145c-5.3-0.6-10.8,1.1-16-1c9.3,0,18.5,0,27.8,0c0,0.3,0,0.7,0,1C382.9,145,379,145,375,145z"/>
		<path class="st117" d="M304,77c0.1-0.8,0.3-1.6,1.1-2.1c1.4-2.5,3.7-2.5,6.1-2.5c8.8,0.2,17.6,0.3,26.3,0
			c8.1-0.3,16.2-1.2,24.3-0.9c12-1.6,24-0.8,36-1c2.2,0,4.4,0.2,6.6-0.2c0.5-0.1,1.1-0.1,1.6-0.1c0.8,0,1.6,0.2,2.4,0.2
			c8.1-0.4,16.2-1.2,24.4-0.9c13.8-1.5,27.6-0.9,41.4-1c6.9,0,13.9,0,20.8,0c2.1,0,4.4-0.4,6.1,1.4c0.9,1.1,2.1,2.2,3.3,1.4
			c1.5-0.9,2.9-2.3,4.3-0.6c1.6,1.8,2.9,4,4.1,6.2c0.5,0.9-0.1,2.1-1.1,2.5c-5.3,2.3-8.8,7.5-14.8,8.8c-3.4,0.7-6.6,2.3-6,7.1
			c0.4,3.5-2.5,4.6-5.3,4.5c-4.1-0.2-7.4,1.1-10.3,4c-2.9,2.9-5.7,2.7-9.2,0.6c-5.9-3.6-11.6-7.8-19.1-7.4c-2.2,2-5,1.3-7.5,1.4
			c-4.4,0.2-8.9-0.3-13.3,0.3c-0.8,0.2-1.6,0.2-2.3,0.2c-2.8-0.9-5.4,0.6-8.2,0.3c-0.2,0-0.4-0.1-0.7-0.1c-3-0.7-5.3,1.6-8,2
			c-0.4-0.3-0.7-0.7-1.1-1c-0.5-0.8-0.4-1.5,0.2-2.1c2.3-7.1-0.2-14.4,0.6-21.6c-0.2,0.6-0.1,1.3-0.5,1.9c-0.9,0.8-2.1,1.2-3.2,1
			c-7.3-1.8-14.6,1.1-22,0.3c-1.6-0.2-4.1-0.8-4.4,1.9c-0.4,3,2,3.3,4.2,3.4c0.8,0.1,1.6,0.2,2.4,0.4c3.5,0.9,7.1,0.6,10.7,0.3
			c4.1-0.9,8.2-1.5,12.2,0.3c1.6,3.7,0.9,7.4,0.4,11.1c-2.3,4.2-6.3,6.6-10.2,9.1c-8,2.3-16,3.9-24.4,3.7c-12.9-0.2-25.9,0-38.8,0.2
			c-6.8,0.1-13.8-1.3-20.8-1.6c-5.4-0.2-9.6-2.3-11-8.1C301.4,92.3,301.4,84.5,304,77z"/>
		<path class="st118" d="M423,98c0.7,0,1.3,0,2,0c8-0.7,16.1-1.3,24,1c0,0,0,0,0,0c1.4,1.7,4.4,0.5,5.5,2.9c-0.2,1.1-1.1,1.2-1.9,1
			c-11.6-3.8-23.3-1.3-35-0.5c-3.5,0.2-3.9-0.5-2.7-3.4c0,0,0,0,0,0C417.6,98.2,420.3,98.4,423,98z"/>
		<path class="st119" d="M397,104.9c3-2.3,6-4.7,9-7c0,0,0.1,0.1,0.1,0.1c0,0.6-0.1,1.3-0.1,1.9c-5.7,3.4-9.8,8.3-12.9,14
			c-0.4,0-0.8-0.1-1.2-0.1c-0.3-1-0.5-1.9-0.8-2.9C392.9,108.8,394,106,397,104.9z"/>
		<path class="st120" d="M501,70c-9,0-18.1,0-27.1-0.1c-8.3-1-16.6-0.2-24.9-0.4c-2-0.1-4,0.2-6-0.2c0.5-3.4,3.3-2.6,5.3-2.6
			c8.9-0.1,17.8-0.6,26.8,0c10.7-1,21.4,1.9,32.2,0.6c1.6-0.1,3.2-0.1,4.9-0.2c0.6,0,1.3,0,1.9,0c-1.7,3.1-4.7,1.8-7.2,2.1
			C504.9,69.4,503,69.7,501,70z"/>
		<path class="st66" d="M449,99c-8-1.3-16-0.9-24-1c5.1-2.2,10.4-0.5,15.6-1c2.1-0.2,4.3,0,6.4,0C447.7,97.7,448.3,98.3,449,99z"/>
		<path class="st57" d="M177.1,82.1c-0.7,0-1.4,0-2.1-0.1c-2.8-2.4-5.6,0.5-8.6,0.1c-3.4-0.5-7-0.1-10.5-0.1
			c6.9-1.6,13.9-1.9,20.9-2c0,0,0.2,0,0.2,0c0.5,0.4,0.6,1,0.4,1.6C177.3,81.8,177.2,81.9,177.1,82.1z"/>
		<path class="st63" d="M108,83c3.5-2.1,7.4-0.5,11-1C115.5,84,111.7,82.5,108,83z"/>
		<path class="st121" d="M339,142c-10.6,0-21.3-0.3-31.9,0c-5,0.2-6.4-1.7-6.1-6.4c0.3-4.8,0-9.6,0-14.5c1.4-1.2,3.1-0.9,4.8-1
			c23.8-0.5,47.5-0.9,71.3-1.4c1,0.1,2,0.2,3,0.2c8.7,0.1,7.9,0,6.4,8.7c-1.6,9.4-4,14.7-15.6,13.9C360.3,141,349.6,141.4,339,142z"
			/>
		<path class="st122" d="M397,104.9c-2,2-2.7,5.3-5.9,6.1c-23,0.4-46,0.7-69.1,1.1c-6,0.9-11.9,0.2-17.9,0.4c-1.5,0.1-2.8-0.5-3-2
			c-0.4-3.5-1.5-7.2,1.2-10.5c0.2,0,0.4,0,0.5,0.1c2.3,7.4,8.6,6.4,14.3,6.9c20,1.7,40.1,0.6,60.1,1c6.1,0.1,11.6-2,17.3-3.3
			C395.3,104.6,396.2,103.8,397,104.9z"/>
		<path class="st123" d="M299.9,112.7c-21,0.5-42.1,1-63.1,1.5c-11.6,0.3-23.2,0.5-34.8,0.8c-7.9,0.9-15.9,0.2-23.9,0.4
			c-0.7,0-1.2-0.4-1.6-1c-0.7-2.8-1-5.6,0.3-8.4c0.3-0.1,0.9-0.2,0.9-0.1c3.7,5.7,9.4,4.5,14.8,4.5c20.5,0,40.9-0.2,61.4,0.1
			c10.5,0.2,20.9-2.2,31.4-0.3c2.5,0.5,4.9-0.7,7.3-1.5c2.3-0.8,4.6-2,7.2-1.1C301.4,109.3,301.3,111,299.9,112.7z"/>
		<path class="st124" d="M299.9,121.2c-0.1,0.9-0.2,1.9-0.2,2.8c-37.4,0-74.8,0.1-112.1-0.2c-3.8,0-6.6,3-10.4,2.1
			c-0.3-3,2.8-1.3,3.7-2.8c27.2-0.5,54.5-0.9,81.7-1.5C275,121.4,287.5,120.8,299.9,121.2z"/>
		<path class="st125" d="M299.9,112.7c0-1.6,0-3.2,0-4.7c-1.4-1.6-1.6-3.6-1.1-5.6c0.9-3.4,0.6-6.8,0.9-10.2
			c1.6-4.9-0.2-10.6,3.3-15.2c0.3,0,0.6,0,0.9,0c0.3,7.7-1.4,15.3-1.7,23c-0.7,11.9-0.7,11.9,10.9,11.9c3,0,5.9,0.1,8.9,0.2
			C314.7,113.6,307.3,112.8,299.9,112.7z"/>
		<path class="st126" d="M176.9,114c3,2.1,6.4,0.7,9.7,0.9c5.1,0.3,10.3,0.1,15.5,0.2c-9,1.2-18.1,1.7-27.1-0.2
			c-0.3-0.2-0.4-0.4-0.3-0.6c0.1-0.2,0.1-0.3,0.2-0.3c0.4-10.7-0.4-21.4,2.2-31.9c0,0,0,0.1,0,0.1c3,0.7,2.2,3.2,2.2,5.1
			c-0.1,2.9-0.9,5.8-0.8,8.7c-0.3,2.6,0.2,5.2-0.5,7.8C175.8,106.9,176.3,110.4,176.9,114z"/>
		<path class="st127" d="M174.8,114c0,0.3,0.1,0.6,0.1,0.9c-8.9,0.8-17.8,1.2-26.8,0.7c0.1-1.7,0.8-2,2.6-2
			C158.7,113.9,166.8,113.9,174.8,114z"/>
		<path class="st128" d="M171,89.6c-0.6,3.8-5.2,6.9-6.5,11.7c-0.3,1-1.7,0.5-2.6-0.1c-5.2-3.6-10.7-2.8-16.2-1.2
			c-2.8,0.8-4.3,0.1-5.9-1.9c-2.3-2.9-1.6-4.6,1.8-5.9c6.8-2.6,13.3-6.8,21.1-5.3c1.4,0.3,2.4-0.8,3.6-1.5
			C169.8,83.5,171.1,84.2,171,89.6z"/>
		<path class="st129" d="M166.9,108c-0.8,3.6-4,2.4-6,2.4c-2.4,0-1.7-2.6-1.7-4.3c0.3,0,0.5-0.1,0.8-0.2c2.4,0,5.1-2.1,6.8,1.3
			C166.8,107.4,166.8,107.7,166.9,108z"/>
		<path class="st128" d="M166.9,107.2c-2-2-4.6-0.9-6.8-1.3C162.3,106.3,165.8,100.7,166.9,107.2z"/>
		<path class="st130" d="M415,44c-0.4-3.3-0.1-6.8-4.1-8.8c-1.6-0.8-2.2-3.9-1.7-5.9c0.6-2.3,3.1-1.2,4.7-1.2c3-0.1,5.9,0,8.9,0
			c4.4-0.5,8.9-1,13.3-0.1c8.8,0.7,17.6,1.4,26.5,1.6c2.2,0.1,4.7-0.5,6.4,1.6c-0.1,1.9-1.7,1.8-2.9,2c-1.9,0.4-3.3,1.3-4.2,3.1
			c-2.1,3.9-5.8,5.3-9.9,5.9c-1.5,0.2-3,0.3-4.5,0.1C436.6,41.2,425.8,42.6,415,44z"/>
		<path class="st131" d="M415,44c7.6-3.6,15.6-3.7,23.9-3.3c6.3,0.3,12.9,1.7,18.9-1.8c1-0.6,2.5-1.2,2.6-2.2
			c0.5-5.9,4.8-4.7,8.5-4.8c3.2-0.4,4.6,1.7,4.8,4.3c0.2,3,1.1,5.8,1.3,8.7c0,1.3,0.1,2.6,0.1,3.9c-4.5,2.9-9.7,2.8-14.3,1.7
			c-11.4-2.5-22.6-1.8-34-0.5c-4,0.5-8.3,1.4-11.7-2.2C415,46.7,415,45.3,415,44z"/>
		<path class="st132" d="M415.1,48c7.4,2.7,14.9,0.4,22.2-0.3c6.9-0.6,13.5-0.5,20.1,1.3c5.9,1.5,11.8,0,17.7,0
			c1.9,6.1,1.8,6.5-4.2,6.2c-14.8-0.7-29.4,1.2-44,3.9c-2.4,0.4-6.4,2.1-6.9,0.2C418.9,55.2,413.3,53.1,415.1,48z"/>
		<path class="st133" d="M475,67.9c-8.7,0-17.3-0.1-26,0c-2.1,0-4.3-0.3-6.2,1c-3.5,1.5-7.1,1.1-10.8,1c-3.8-0.8-7.6-0.3-11.4-0.5
			c-1.9-0.1-4,0.3-5.5-1.5c0.6-3.1,3.2-1.9,4.9-1.9c18.3-0.5,36.5-0.8,54.8-1.1c7.6-0.2,15.3-0.5,22.9-0.6c1.6,0,3.3-0.6,5.7,1.3
			c-3.3,0.2-5.8,0.4-8.3,0.5c-2.7,1.9-5.8,0.7-8.7,1C482.5,67.4,478.6,66.2,475,67.9z"/>
		<path class="st134" d="M407.2,71.8c-0.4-0.3-0.8-0.5-1.3-0.8c-2.2-4.7-2.9-9.9-4.2-14.9c0.7-3.5-3.5-6.6-0.7-10.2
			c2.7,0.2,6.3-1.8,7.2,3c0.1,0.5,0.6-0.7,0.9-1.1c2.8,6.4,3.2,13.4,5.1,20.1c0.2,0.5,0.2,0.9-0.1,1.3C412,70.7,409,69.6,407.2,71.8
			z"/>
		<path class="st135" d="M475,45.1c-1.5-2.8-1.2-6-2.1-8.9c-0.6-1.9-2.3-3.1-4-4.1c-7-1.9-14.3-0.7-21.4-1.8
			c-3.9-0.6-7.9,0.5-11.7-1.1c1.9-2.2,4.8-1,7.1-2.1c7.4-1.3,14.9,0.8,22.3-0.3c-6.4-0.3-12.8-0.2-19.2-0.3c-2.6,0-5.3,0.5-7.8-0.9
			c-0.5-0.4-0.6-0.9-0.2-1.4c11,0,22,0,32.9,0c1.5,2.7,2.4,5.9,5.3,7.6c0.7,1,1,2.1,0.8,3.4C472.3,37.5,476.1,41.8,475,45.1z"/>
		<path class="st136" d="M477,35c-1.2-0.7-1-1.9-1-3c1.9-1.9,2-4.7,3-7c3.3-1.5,6.3-1.7,8.9,1.4c1.3,1.6,2.5,1.6,4-0.1
			c2.1-2.2,4.6-2,7-0.2c-0.7,2.7-1.2,5.5-2.9,7.9c-1.1-0.9-1.8-2-3.7-1.3c-2.3,0.9-4.7,1.1-7.3-0.4C482,30.8,480.1,35.2,477,35z"/>
		<path class="st137" d="M496,34c-0.5-3.2,0.6-5.8,2.9-7.9c3.9,9.7,5.5,19.9,7.4,30c-0.5,0.2-1.1,0.4-1.6,0.5
			C501.8,49.1,498.9,41.6,496,34z"/>
		<path class="st138" d="M438,24c0,0.3,0,0.6,0,0.9c-1.2,1.2-2.4,1.3-3.1,0.7c2,1.1,5.7-0.3,8,2.4c-2.2,1.9-4.8,0.4-7.2,1.1
			c-4.3-0.3-8.7,0.5-12.9-1C426.8,22.7,432.6,24,438,24z"/>
		<path class="st139" d="M479,25c0.8,3.1,1.2,6.1-3,7c-4.4-1-5.3-4.1-5.1-8C473.5,25.5,476.3,24.9,479,25z"/>
		<path class="st140" d="M475,67.9c0.9-1.8,2.5-1.8,4.2-1.8c5.3,0,10.5-0.1,15.8-0.1c3.9,2.1,8.3,0.2,12.3,1.2
			C496.6,68.4,485.8,68,475,67.9z"/>
		<path class="st141" d="M414,68.8c0-0.3,0.1-0.6,0.2-0.9c0.3,0,0.6-0.1,0.8,0c5.6,0.6,11.4-0.8,17,0.9c-1.1,1.5-2.7,1.1-4.1,1.2
			c-4.2-0.1-8.4,0.2-12.5-0.1C414.8,69.7,414.3,69.3,414,68.8z"/>
		<path class="st142" d="M401,46c-0.8,3.6,2.7,6.4,1.9,10.1c-0.8,0.6-0.1,2.1-1.6,2.2c-0.8-0.3-1.2-0.9-1.4-1.7
			c-1.1-5.8-2.7-11.5-3-17.5c0.7-2-2.2-3.9,0-5.9C398.3,37.4,399.7,41.7,401,46z"/>
		<path class="st93" d="M388.9,22.1c0.3,5.6,2.4,10.7,4.1,15.9c2.8,7.9,5.8,15.7,7.1,24c0.2,1.2,0.2,2.3-0.1,3.5
			c-1.4,3.8-5.1,2.5-7.7,3.7c-25.1,1-50.1,1.5-75.2,1.4c-2.6,0-4.2-0.7-4.1-3.6c1.1-1.6-0.6-5.7,3.8-4.3c1.2,1.6,2.9,2,4.9,1.9
			c16.1-1.3,32.2-2,48.3-1.9c0.3,0,0.7,0,1,0c6-0.3,6.9-1.1,8.2-7.1c0.5-2.5,0.3-5,0.4-7.5c-0.1-6.4-2.3-12.3-3.5-18.5
			c-0.5-2.6-2.5-3.4-4.9-3.1c-16.2,1.5-32.4,1.2-48.5,2.5c-3.2,0.3-3.8-1-4-3.5c0-3.4,2-4.5,5.2-4.5c20.3,0.4,40.5-1.3,60.8,0
			C386.2,21.1,387.7,20.9,388.9,22.1L388.9,22.1z"/>
		<path class="st143" d="M399,62c-1.8-8.1-5-15.8-6-24c1.5,0.9,1.6,2.6,2.5,4.3c0.6-1.2,1.1-2.3,1.6-3.3c2.7,5.7,3.1,11.9,4,18
			C400.2,58.6,402.4,61.4,399,62z"/>
		<path class="st144" d="M225.8,54.9c7.1-5,14.1-9.9,21.2-14.9c0.9-0.9,1.6-2,2.5-3c2.2-2,4.7-3.3,7.6-4c13.8-3.6,27.8-4,41.9-4
			c3,0.6,4.8,1.7,3.4,5.3c-1,2.7-1.1,5.8-2.2,8.5c-1.5,1.1-2.3-1.4-3.7-0.7c-10.3,7.1-21.7,10.4-34.1,11.2c-5,0.3-9.8,1.6-14.6,3
			c-2.3,0.7-4.8,1.4-6.6-0.6c-3.4-3.9-6.9-2.9-10.7-1c-1,0.5-2.2,0.9-3.4,0.8C226.6,55.6,226.1,55.3,225.8,54.9z"/>
		<path class="st145" d="M296.3,54.1c-1.4,4-2.9,7.9-4.3,11.9c-9.3,2-18.7,1.4-28.1,1.5c-0.8-0.1-1.6-0.3-2.4-0.4
			c-1.7-0.3-4.1,0.6-4.7-1.7c-0.7-2.5,1.4-3.9,3.2-5.1c5.8-3.9,12.5-5.4,19.3-6.1c5.9-0.6,11.8-0.9,17.3-3.5
			C298.4,52,297.1,53,296.3,54.1z"/>
		<path class="st146" d="M263,66.9c9.7,0.6,19.3-0.7,29-0.9c-1.9,2.1-4.6,1.8-6.9,1.8c-17.2,0.5-34.5,0.5-51.7,1.4
			c-6.4,0.3-9.6-2.8-11.7-7.7c-1.4-3.2,1.5-5.2,4.1-6.7c0,0,0.4,0.2,0.4,0.2c1.2,2,2.7,3.8,3,6.2c0.6,4.4,3.3,5.8,7.4,5.4
			c3,0,5.9-0.2,8.8-0.8C251.3,64.7,257.1,66.3,263,66.9z"/>
		<path class="st147" d="M204,75.9c2.6-3.8,7-0.9,10.1-2.7c14.9-0.4,29.8-0.8,44.6-1.3c4-0.7,8-0.3,12-0.2c0.5,0.5,0.6,1,0.3,1.6
			c-2.9,2-6.2,2-9.4,2.1c-6.2,0.3-12.5-0.7-18.7,0.7c-6.5,0.6-13.1,0.1-19.6,0.4c-4.7,1-9.5,1.1-14.2,0.9
			C207.2,77.3,205.3,77.5,204,75.9z"/>
		<path class="st148" d="M257.1,33c-2.4,1.6-4.8,3.2-7.2,4.8c-2.3,0.5-1.5-2.3-2.9-2.8c-0.2-4.5,3.2-5.5,6.4-6.2
			c6.7-1.4,13.6-2.3,20.5-1.3c-5.5,0.5-11.1,1-16.4,2.8C256.6,30.7,253.2,31.3,257.1,33z"/>
		<path class="st149" d="M296.3,54.1c0.3-1,0.6-2.1,0.8-3.1c-0.6-3-0.4-5.7,1.9-8c1-3.4,1.8-6.9,2.9-10.3c0.8-2.7-1.7-2.6-2.9-3.7
			c1.8-0.4,3.5,0,5,1c0.1,3.2-1,6.1-1.8,9.1c-0.6,2.5-1.5,4.9-1.3,7.6c-0.5,2-0.5,4.1-0.7,6.2c-0.1,1.4-0.1,3-2.1,3.3
			C297.9,55.1,297.7,54.1,296.3,54.1z"/>
		<path class="st150" d="M270.9,72c-4.1-0.1-8.1-0.1-12.2-0.2c3.9-1.4,7.9-0.6,11.8-0.8c8.1-0.5,16.2-0.8,24.4-1.2
			c0.2,0.3,0.3,0.5,0.5,0.8c0.1,1.1-0.4,1.7-1.4,2.2C286.3,73.2,278.5,74.7,270.9,72z"/>
		<path class="st151" d="M298.1,56.1c0.9-3.2,1.8-6.3,2.8-9.5c0.1,1.8,0.1,3.6,0.2,5.4c1.2,1.4,1.1,3.1,0.6,4.7
			c-1.2,4.3-1.7,8.7-3.2,13c-0.9,1-1.9,1.1-3,0.2c-0.2-0.1-0.4-0.1-0.6-0.1C296.6,65.5,297.3,60.8,298.1,56.1z"/>
		<path class="st152" d="M247,35c2.2-0.3,1.7,2.1,2.9,2.8c-0.3,1.6-1.4,2.2-2.8,2.2C247,38.3,247,36.7,247,35z"/>
		<path class="st153" d="M219,62c2.1,2.4,2.5,4.2,1.6,6.4C218.2,66.9,219,64.8,219,62z"/>
		<path class="st91" d="M177.1,96.1c-1.1-4.7,2.7-9.3-0.1-14c0-0.7,0-1.4,0-2.1c0.3-0.7,0.7-1.4,1-2.1c0.4-0.2,0.9-0.3,1.3-0.1
			c3.8,1.3,7.8-0.4,11.6,0.3c0.6,0,1.3,0,1.9,0c3.4,2.4,5.7,0,8.1-2c0.6,0,1.2,0,1.8,0.1c-0.2,1.5,0.8,1.6,1.9,1.7
			c4.1,3.3,8.5,6.3,11.8,10.5c1.6,2.6,3.7,4.7,5.2,7.3c1.7,2.7,2.2,5.7,0.8,8.6c-1.4,2.9-4.4,2.5-7.1,2.4
			c-8.2-0.6-16.1,2.2-24.3,1.9c-1.7-0.1-3.3,0-5-0.1c-5.4-0.3-7.5-2.2-8.2-7.4C177.8,99.3,177.7,97.7,177.1,96.1z"/>
		<path class="st154" d="M204,78.2c-1.3-0.2-1.9-0.7-1.1-2c0.4-0.1,0.7-0.2,1.1-0.2c6.4,0.4,12.8-0.1,19.2-0.5c4.3,0.8,8.8-1,13,1.1
			c-0.6,1.5-1.9,1.8-3.2,1.8c-7.3-0.3-14.4,1.2-21.7,1.3C208.7,79.6,206.3,79.2,204,78.2z"/>
		<path class="st155" d="M191.1,78c-3.3,1.8-7.1,0.8-10.5,1.8c-0.9,0.3-1.3-0.8-1.4-1.6c0.1-1.1,0.7-1.5,1.8-1.3c2.7,0,5.5,0,8.2,0
			C189.9,77,190.7,77.2,191.1,78z"/>
		<path class="st156" d="M201.1,76.1c-1.8,4.6-4.2,5.2-8.1,2C196,78.6,198.1,75.6,201.1,76.1z"/>
		<path class="st157" d="M180.9,76.8c-0.6,0.4-1.2,0.9-1.8,1.3c-0.3-0.1-0.7-0.2-1-0.3c-0.3-2.9,1.9-5,2.2-7.7
			C183,72.2,180.1,74.7,180.9,76.8z"/>
		<path class="st158" d="M388.9,22.1c-7.5-0.2-15-0.7-22.4-0.7c-14.2,0-28.3,0.4-42.5,0.5c-2.7,0-4.7,0.4-4,3.8
			c-0.7,4.7,0.5,9.8-2.5,14.1c-0.5,0.4-0.9,0.5-1.5,0.1c1.1-5.3,1.1-10.6,1-15.9c0.8-3,2.9-4.1,5.9-4.1c20.8,0,41.6,0,62.4,0
			C386.8,20,388.9,19.4,388.9,22.1z"/>
		<path class="st159" d="M298.1,70c-0.7-6.2,2.8-11.8,3-17.9c2-0.4,3.9-0.8,5.9-1.2c-1.1,6.4-1.3,13-3.2,19.3
			C301.8,71.5,299.9,71.6,298.1,70z"/>
		<path class="st160" d="M316,40c0.3,0,0.6,0,0.9,0c2.6,4.6,0.2,8.9-0.5,13.4c-0.2,0.5-0.5,0.9-0.5,1.4c-0.5,3.1-1.7,5.2-5.4,3.5
			c-0.7-0.3-1.6,0.3-2.4-0.2c0-4.4,0.5-8.8,2-13C310.9,43,312.8,41.5,316,40z"/>
		<path class="st91" d="M303.1,77.1c-0.8,5-0.6,10.1-2.1,14.9c-0.8,1.3-0.7,2.9-0.9,4.3c-0.9,7.3-2.6,8.9-9.7,9.2
			c-11.2,0.4-22.3,2.8-33.6,2.1c-8.8-0.5-17.4-2.1-26.2-2.4c-5.1-0.2-8.7-5.6-7.8-10.8c0.8-4.5,0.9-8.9,0.9-13.4
			c0.2-2.7,1.7-3.6,4.3-3.5c9.4,0.1,18.7-1.8,28.2-1.6c4.4,0.1,8.9,1.9,13.1-0.9c10-1.2,19.9-1.8,30-1.4c1.3,0.1,2.6,0.3,3.7,1.2
			C303,75.6,303,76.3,303.1,77.1z"/>
		<path class="st161" d="M302.9,74.9c-11.3,0.4-22.6,0.7-33.9,1.1c-6,2.3-12.1,0-18.2,0.6c-1,0.1-2-0.1-3-0.1
			c-1.8-0.1-3.7,0.1-5-1.6c5.2-1.4,10.6-0.6,15.8-1c4.1-0.3,8.3-0.6,12.4-0.9c7.9-1.2,15.8-0.1,23.7-0.5c2.8-1,5.6-1.6,8.2,0.6
			C302.9,73.6,302.9,74.3,302.9,74.9z"/>
		<path class="st162" d="M362,72.7c-16.9,1-33.7,1.6-50.6,1.4c-2.1,0-4.3-0.3-6.3,0.9c0-1.8-0.3-3.6,0.9-5.1
			c2.9-2.1,5.5-0.7,8.1,0.9c7.7-0.2,15.3-0.2,23-0.6c6.4,1,12.9,0.2,19.4,0.5C358.4,70.7,360.9,70,362,72.7z"/>
		<path class="st163" d="M313,72c-1.7-2.7-4.5-1.9-7-2.1c0.9-3.9,0.4-8.1,2-11.9c1.9-0.7,3.8-4.5,5.5,0.4c0.9-1.6,0-3.4,1.4-4.4
			c3.2,3.4,0.2,6.6-0.5,9.8C312.7,66.3,314.4,69.4,313,72z"/>
		<path class="st164" d="M302.9,73c-2.7,0-5.4-0.1-8-0.1l-0.3-0.4c0,0,0.2-0.5,0.2-0.5c0.3-0.7,0.6-1.4,0.9-2.1c0.9,0,1.7,0,2.6,0
			c1.9,0.1,3.8,0.1,5.7,0.2C303.4,71.1,303.2,72.1,302.9,73z"/>
		<path class="st165" d="M381,86c-2.3,0-4.9,0.6-5.7-2.5c-0.7-3-1-5.4,3.6-5.6c6.2-0.2,12.4,1.1,18.6-1.4c1.9-0.8,5.3,2.1,8.4,1.5
			c0.7,0.6,0.8,1.3,0.8,2.2c-0.6,1.5-0.1,3.9-2.8,3.9c-1.2-1.1-2.1-2.6-4-2.6c-6.1-0.2-12.1-0.1-18.2,0c-0.5,0-1.6-0.1-1.3,0.9
			c0.2,0.6,1,0.8,1.5,1.2C382.8,84.8,381.9,85.4,381,86z"/>
		<path class="st166" d="M362,72.7c-5.5-1.5-11.1-0.3-16.7-0.7c-2.8-0.2-5.6,0.6-8.3-0.5c1.2-2.1,3.2-1.4,4.9-1.4
			c17.1,0.2,34.2-0.5,51.3-1.1c1.9-0.4,3.8-0.5,5.5,0.6c0.8,0.7,0.9,1.6,0.3,2.5C386.7,72.2,374.3,72.4,362,72.7z"/>
		<path class="st167" d="M428.1,69.2c1.3-0.1,2.7-0.2,4-0.4c3.6,0,7.2,0.1,10.7,0.1c8.6,0.1,17.3,0.1,25.9,0.2
			c1.8,0,3.7-0.6,5.2,0.8c-14,0.2-28,0.5-42.1,0.7c-1.3-0.4-2.6,0.1-3.8-0.4C427.7,69.9,427.7,69.5,428.1,69.2z"/>
		<path class="st168" d="M404,84c1.6-0.8,0.4-3.1,1.9-4c1.5,2,1.5,4,0,6c-4,0.3-8.1-0.9-11.9,1c-3.6-1.4-7.5,0.3-11.1-1
			c-0.6,0-1.2,0-1.9,0c0.3-0.6,0.6-1.2,1-1.9c3.3-2.7,7.2-1.4,10.9-1.5C396.6,82.4,400.4,82.7,404,84z"/>
		<path class="st169" d="M405.9,86c0-2,0-4,0-6c0-0.7,0-1.4,0-2c0.1-1.3,0.2-2.6,0.3-4.3c2.7,7.3,2.5,20.1-0.1,24.3
			c0,0-0.1-0.1-0.1-0.1C405.9,94,405.9,90,405.9,86z"/>
		<path class="st170" d="M428.1,70c1.3,0.1,2.6-0.3,3.7,0.7c-8.2,0.4-16.4,0.8-24.7,1.2c0.3-5.5,4.6-1.7,6.8-3
			c0.3,0.2,0.6,0.3,1,0.5C419.3,70.1,423.8,68.8,428.1,70z"/>
		<path class="st171" d="M402,58c0.1-0.8,0.1-1.6,1-2c1,5,3.3,9.7,2.9,15c0,0-0.4,0-0.4,0l-0.4,0c-0.5-0.2-0.9-0.5-1.2-1
			C402.7,66.1,400.7,62.3,402,58z"/>
		<path class="st172" d="M404.9,70.1c0.1,0.3,0.2,0.6,0.2,0.8c-1.8,2-4.1,0.8-6.1,1c0-0.6,0-1.2,0-1.8c0.3-0.5,0.7-0.8,1.3-1
			C401.9,68.6,403.5,68.9,404.9,70.1z"/>
		<path class="st66" d="M423,98c-2.5,2-5.3,0.6-8,1C417.6,98.1,420.1,96.3,423,98z"/>
		<path class="st173" d="M382.9,86c3.7,0.5,7.5-1.2,11.1,1C390.3,86.7,386.5,88.1,382.9,86z"/>
		<path class="st174" d="M225,81c-0.1,4.8,0.4,9.6-1,14.3c-0.9,3.2,2.9,8.6,6.4,8.6c12.4,0.1,24.6,2.6,37.1,2.3
			c8.9-0.2,17.5-3.4,26.5-2.3c3.1,0.4,4.4-2.7,4.9-5.4c0.4-2.3,0.6-4.6,2.1-6.5c-0.3,5.3-0.7,10.7-1,16c-4.9,0.7-9.1,4-14.2,4
			c-32.3,0-64.6-0.1-97,0.1c-5.3,0-10.1,0.3-11.7-6.1c-0.7-0.7-0.6-1.3-0.1-2.1c0.1-2.6,0.1-5.2,0.2-7.9c0.1,0.1,0.3,0.2,0.4,0.3
			c4.4,10.6,4.4,10.7,16.2,10.5c8.2-0.1,16.3-2.6,24.7-1.8c3.7,0.3,5.2-4.8,2.6-8.6c-2-2.9-4.5-5.3-5.9-8.6
			C220.4,88.6,221.8,83.6,225,81z"/>
		<path class="st91" d="M177,103.9c0,0.7,0.1,1.4,0.1,2.1c-0.1,2.7-0.1,5.3-0.2,8C175.6,110.6,175.6,107.3,177,103.9z"/>
		<path class="st175" d="M443,28c-3.3,0-6.3-0.9-9.6-2.1c1.6-1.4,3.2-0.7,4.6-1c10.4,0,20.7,0,31.5,0c-1.3,3.2-3.2,4.2-6,4
			C456.7,28.5,449.8,28.3,443,28z"/>
		<path class="st176" d="M428.1,70c-4.4-0.4-8.9,1.1-13.2-0.7c4.4,0,8.7-0.1,13.1-0.1C428,69.4,428.1,69.7,428.1,70z"/>
		<path class="st177" d="M404.9,70.1c-1.7-0.1-3.3-0.2-5-0.3c-1.6-1.5,0.3-3.5-0.7-5c0-1-0.1-1.9-0.1-2.9c1.9-1.2,0.1-3.8,2-5
			c0.3,0.3,0.7,0.7,1,1C402.9,62.1,403.9,66.1,404.9,70.1z"/>
		<path class="st178" d="M314,64.1c0.5-3.3,1.3-6.6,1-10.1c1-4.6,1.8-9.3,1.9-14c1.6-4.6,1-9.7,3-14.2c0.5,0.7-0.7,2.6,1.5,2.2
			c11-1.7,22-1.6,33.1-1.9c6-0.2,11.9-0.6,17.8-1.1c2.3-0.2,4.3,0.2,4.8,3.1c1.3,6.6,3.6,13.1,3.8,19.9c-0.6,0.1-1.1-0.1-1.6-0.5
			c-2.2-4.4-2.8-9.2-3.7-13.9c-0.7-3.5-2.6-5.1-6.2-5.1c-14.1,0.1-28.1,1.2-42.2,1.4c-3.4,0.2-5.1,1.5-5.4,5.3
			c-0.6,6.8-2.2,13.6-2.9,20.4c-0.7,2.3-0.4,4.8-1.5,7.1c-0.3,0.5-0.8,0.7-1.4,0.6c-2.2-0.1-0.4,2.6-2,2.9
			C313.4,65.5,313.4,64.8,314,64.1z"/>
		<path class="st179" d="M314,64.1c0.1,0.7,0.1,1.3,0.2,2c-0.8,2.7,0.1,3.3,2.9,3.2c25.3-0.6,50.6-1,75.9-1.4c1.7,0,1.7,0.9,1,2.1
			c-16.9,1.1-33.7,1-50.6,1.1c-2.1,0-4.3,0.2-6.4,0.4c-8,0.2-16,0.3-24,0.5C313.2,69.3,312.1,66.5,314,64.1z"/>
		<path class="st180" d="M380.2,47.8c0.3,0.1,0.5,0.1,0.8,0.1c-0.6,18.4-0.5,15.3-14.4,15.9c-15,0.7-30.1,1.3-45.1,1.9
			c-2.1,0.1-5,1.3-5.3-2.5c0.3-0.1,0.5-0.2,0.7-0.3c9.1-0.4,18.2-1.1,27.3-1.2c9.5-0.1,18.9-0.9,28.3-1.1c3.2-0.1,5-1.3,5.4-4.6
			c0.2-1.5,0.7-2.9,0.8-4.4c0.1-0.8,0.2-1.7,0.5-2.5C379.3,48.5,379.7,48.1,380.2,47.8z"/>
		<path class="st181" d="M394,70c-0.3-0.7-0.7-1.4-1-2.1c1.5-2.1,5.4,0.8,6.1-3c1.3,1.5,1,3.3,0.7,5c-0.3,0-0.6,0.1-0.9,0.3
			C397.3,70.1,395.7,70,394,70z"/>
		<path class="st182" d="M235.1,67.9c-1.8,0.1-3.9,0.4-5-1.4c-2.1-3.5-3.2-7.4-3.9-11.4c1.7-0.6,3.3-1.4,5-2.1
			c3.5-1.4,7.4-4,10.1,1.4c0.8,1.6,2.5,2.1,3.9,1.5c10.5-4.4,22.1-3.4,32.9-6.4c7-1.9,13.2-5.2,19-9.5c1.9,5.5-0.3,10.1-5.5,11.7
			c-3.1,0.9-6.2,0.6-9.4,0.7c-11.5,0.2-22.2,3.1-32.3,8.5c-0.6,0.3,0-0.2-0.4,0.3C245.7,65.9,240.5,67.1,235.1,67.9z"/>
		<path class="st183" d="M235.1,67.9c0.6-1.1,1.4-1.9,2.7-1.8c3.8,0.2,6.7-1.2,8.7-4.7c1.3-2.2,4.1-2.1,6.1-3.2
			c10.5-5.8,21.8-7.3,33.5-7.2c8.4,0,10.9-2.5,11-11c2.1,0.1,2,1.6,2,3c-0.6,2.7-0.6,5.5-1.9,8c-6.1,5.9-14.1,3.2-21.2,4.9
			c-5.2,1.2-10.2,2.5-14.9,5.1c-1.6,0.9-3.7,2.1-3.5,3.8c0.3,2.2,2.8,0.7,4.2,1.3c0.4,0.2,0.8,0.5,1.2,0.8
			C253.7,67.2,244.4,67.6,235.1,67.9z"/>
		<path class="st184" d="M294.7,72.1c0.2,0.2,0.3,0.5,0.2,0.8c-7.9,0-15.9,0.1-23.8,0.1c0-0.3-0.1-0.7-0.1-1
			C278.8,72,286.7,72.1,294.7,72.1z"/>
		<path class="st185" d="M242.8,74.9c1.4,0.4,3.1-0.3,4.2,1.1c-3.6,1.7-7.2,1.5-10.9,0.2c-4.3-0.7-8.7,0.6-13-0.8
			C229.7,75.2,236.2,75,242.8,74.9z"/>
		<path class="st186" d="M236.1,76.1c3.6-0.1,7.2-0.1,10.9-0.2c7.3,0,14.7,0,22,0c-1.5,3-4.4,2.2-6.6,1.9
			c-11.2-1.3-22.3,0.7-33.5,0.1c-2.2-0.1-4.1,0-3.9,3c-0.3,0.5-0.9,1.1-1,1.6c-0.5,6-3.8,7.2-9,5.4c-3.7-3.3-7.3-6.6-11-9.8
			C214.8,78,225.5,77.4,236.1,76.1z"/>
		<path class="st187" d="M299.9,83.1c-0.1,0.9-0.1,1.9-0.2,2.8c-8.1,2.3-16.3,1.6-24.4,0.8c-0.9-0.1-1.6-0.7-1.7-1.6
			c-0.1-1.2,0.8-1.8,1.8-2.1c2.3-0.7,4.6-0.4,6.9-0.5c2.8-0.1,5.6,0.2,8.4-0.6C293.8,81.8,297,81.4,299.9,83.1z"/>
		<path class="st188" d="M299.9,83.1c-3,0-5.9,0-8.9,0c-6,0.5-11.9,0.6-17.9,0c0.5-0.4,0.9-1.2,1.4-1.3c7.9-0.9,15.9-2.6,23.8-0.5
			C299,81.5,299.4,82.5,299.9,83.1z"/>
		<path class="st189" d="M273.2,83.1c6,0,11.9,0,17.9,0c-5.3,2-11.1-0.1-16.5,1.3c0,0.5,0,1,0,1.5c8.4,0,16.8,0,25.2,0
			c0.1,0.3,0.2,0.6,0.2,0.9c-8.6,1.6-17.3,2.4-26,0.3C272.5,86,272.7,84.6,273.2,83.1z"/>
		<path class="st190" d="M292.1,88.1c-4.4,3.5-9.7,3.5-13.2,0C283.3,87.2,287.7,87.1,292.1,88.1z"/>
		<path class="st191" d="M292.1,88.1c-4.4,0-8.8,0-13.2,0c-1.6-0.3-3.6,0.6-4.9-1c8.7-0.1,17.3-0.2,26-0.3
			C297.7,89.4,294.7,87.4,292.1,88.1z"/>
		<path class="st192" d="M404,84c-7.3,1-14.7,0-22,0.1c-1,0-2,0-3-0.1c-1.3-0.1-2.2-0.7-2.1-2.2c0.1-1.2,1-1.7,2.1-1.7
			c7.6,0,15.2-0.1,22.8,0C404.9,80.1,404,82.3,404,84z"/>
		<path class="st180" d="M327,29c2.1-1.5,4.5-0.7,6.7-0.8c11.7-0.5,23.5-0.7,35.2-1.4c5.1-0.3,7.6,1.2,8.2,6.5c0.5,4.9,2,9.7,3,14.5
			c0,0-0.3,0.2-0.3,0.2c-3.3-2.1-6.6-2.4-10.2-0.8c-2.9,1.3-6.2,1.1-9.3,1.1c-3.5,0-7,0-10.3,1.5c-3,1.4-5.9,0.1-8.9-0.1
			c-6.7-0.4-13.4-1.4-20.1-1.3c-2.4-3.2,0-6.3,0.2-9.5C321.6,34.6,322.9,31.1,327,29z"/>
		<path class="st193" d="M379.9,50c0.6,3.2-1,6.2-1.1,9.4c-0.1,2.4-2.1,2.6-4.1,2.6c-10.6,0-21.2,1.4-31.9,1.1
			c-7.1-0.2-14.2,1.4-21.4,0.9c-1.6-0.1-3.4,0.5-4.6-1.1c0.2-2.3,0-4.7,1-6.9c1.8-1.2-0.8-5.3,3.3-5.1c0.9,0.5,0.9,2.5,2.5,1.9
			c7.4-2.9,14.5-0.1,21.7,1.2c1,0.2,1.9,0.8,2.9,0.6c9.6-2.6,20.1,0.1,29.4-4.8C378.4,49.4,379.2,49.3,379.9,50z"/>
		<path class="st194" d="M321,51c-2.6,0.7-1.2,3.9-3.2,5c1.1-8.2,2-16.4,3.3-24.5c0.6-3.8,3.7-2.4,6-2.4c0.3,1.9,0.4,2.4-1.4,2.8
			c-2.4,0.5-2.8,1.9-2.6,3.9c0.2,4.3-3.2,7.9-2,12.3C321.8,49,321.9,50,321,51z"/>
		<path class="st195" d="M321,51c0-1,0-2,0-3c8.7-2.2,17.1,0.7,25.7,1.3c0.3,0,0.7,0.3,1,0.2c7.8-4.9,17.3-0.1,25.2-4.5
			c3.8-2.1,5.8-0.3,7.2,3.1c0,0.7,0,1.3,0,2c-7.7,1.9-14.8,7.6-23.5,4.1c-0.4-0.2-1.1-0.2-1.5-0.1c-9.2,4.5-17.9-2.2-27-1.2
			c-0.9,0.1-2-1-2.7,0.1c-0.8,1.4-1.2,3.6-3.4,2.6C320.2,54.7,321.3,52.5,321,51z"/>
	</g>
	<line class="st0" x1="555" y1="165" x2="0" y2="165"/>
</g>
<path id="indicatorFront" class="st0" d="M25.4,96.1c0.4-0.9,1.8-1,2.1-1c1.5-0.1,2.6,0.8,2.8,1c1.5,1.2,1.7,3,1.8,3.5
	c0.2,1.4-0.3,1.4-0.3,3.3c0.1,1,0.2,1.1,0.3,2.8c0.1,1.6,0,2.1-0.2,2.5c-0.4,0.9-1.2,1.3-1.3,1.4c-0.5,0.3-1,0.3-1.8,0.4
	c-0.8,0.1-1.3,0.1-1.6,0c-0.7-0.3-0.9-1.4-1.4-3.5c-0.2-0.8-0.4-1.6-0.5-2.8c-0.1-0.7-0.1-1.5,0-2.5c0.1-1.5,0.4-1.4,0.4-2.4
	C25.8,97.3,25,96.8,25.4,96.1z"/>
<path id="indicatorSide" class="st0" d="M159.3,106.1c0-0.1,0.1-0.1,0.4-0.1c0.3,0,0.3-0.1,0.4-0.1c0.4-0.1,0.9,0,1.3,0
	c0.4,0,0.5,0,1.1-0.1c0.8-0.1,1.9-0.1,2.9,0.3c0.3,0.1,0.1,0.1,1,0.5c0.3,0.1,0.5,0.2,0.5,0.4c0,0.1-0.1,0.2-0.1,0.4
	c0,0.2,0.1,0.2,0.1,0.4c0,0.1,0,0.2-0.1,0.4c-0.1,0.2-0.2,0.6-0.3,0.8c-0.2,0.4-0.8,1.1-1.9,1.4c-0.6,0.2-1.2,0.1-2.5-0.1
	c-0.2,0-0.4-0.1-0.8-0.1c-0.5,0-0.6,0-0.8,0c-0.5-0.1-0.8-0.4-0.9-0.5c-0.4-0.4-0.5-1-0.5-1.3c-0.1-0.6,0.1-1,0.1-1.5
	c0-0.1,0-0.2,0-0.4c0-0.1,0-0.2,0.1-0.3C159.3,106.3,159.2,106.2,159.3,106.1z"/>
<path id="headlight" class="st0" d="M23.1,95.3c0.2,0,0.3,0.5,0.8,0.7c0.4,0.1,0.6-0.1,0.8,0.1c0.2,0.1,0.3,0.4,0.4,1.3
	c0.1,0.9,0,1.6,0,1.8c-0.1,1.2-0.1,1.9-0.1,2.1c0,0.7-0.1,1.4-0.1,2.3c0,1.2,0,2.3,0.4,3.6c0.3,0.9,0.4,1.4,0.8,2
	c0.3,0.5,0.5,0.8,0.4,1c-0.2,0.3-0.8-0.2-1.9-0.2c-1.3,0-1.9,0.6-2.3,0.3c-0.3-0.3-0.2-0.9-0.1-1.6c0.1-0.9,0-0.5-0.2-4.1
	c-0.1-1.7-0.1-3.3,0-5c0-0.4,0.2-1.2,0.5-2.8C22.7,96.1,22.8,95.3,23.1,95.3z"/>
<path id="rearLight" class="st0" d="M537.2,74.2c-0.2,0,0.4,1.4-0.3,2.7c-0.6,1.1-1.7,1.1-2,2.2c-0.2,0.8,0.1,1.5,0.3,2
	c0.5,1.1,1.1,1.2,2,2.3c1.2,1.5,1.2,2.7,1.5,2.7c0.4-0.1,0.5-2.9,0.2-5.7C538.4,76.8,537.4,74.1,537.2,74.2z"/>
<path id="indicatorRear" class="st0" d="M531,55.2c-0.9,0.5-2.8-0.5-3.3-1.8c-0.3-0.9,0.1-1.4,0.2-2.5c0.1-1.2-0.2-2-2.5-6.5
	c-1.8-3.6-2.2-4.3-2-5.5c0.3-1.4,1.4-2.8,2.2-2.7c0.6,0.1,0.8,1.1,1.3,2.7c0.6,1.9,1.4,3.8,2.2,5.7c1.5,4,2.2,4.6,2.5,7
	C531.7,52.9,531.9,54.7,531,55.2z"/>
<g id="Warstwa_3">
	<polygon points="92.5,111.7 107.2,106.2 131.8,109 148.8,135.3 148.8,150.7 73.2,150.7 72.2,129 83.2,113.3 	"/>
	<polyline points="470.5,143.5 467.2,128.2 457.2,111.8 439.2,105 412.5,107.4 400.2,118.9 394.2,143.5 395.2,152.9 470.5,146.9 
		470.5,146.9 	"/>
</g>
</svg>
