<?xml version="1.0" encoding="utf-8"?>
<!-- Generator: Adobe Illustrator 21.0.0, SVG Export Plug-In . SVG Version: 6.00 Build 0)  -->
<svg version="1.1" id="Warstwa_1" xmlns="http://www.w3.org/2000/svg" xmlns:xlink="http://www.w3.org/1999/xlink" x="0px" y="0px"
	 viewBox="0 0 612 792" style="enable-background:new 0 0 612 792;" xml:space="preserve">
<style type="text/css">
	.st0{fill:#FDFDFD;}
	.st1{fill:#2D362E;}
	.st2{fill:#AFB1AC;}
	.st3{fill:#7E7E76;}
	.st4{fill:#8C8D8A;}
	.st5{fill:#9D9E9B;}
	.st6{fill:#A1A19A;}
	.st7{fill:#060805;}
	.st8{fill:#B8BBB6;}
	.st9{fill:#060704;}
	.st10{fill:#5C5D52;}
	.st11{fill:#0E110B;}
	.st12{fill:#161711;}
	.st13{fill:#5E6159;}
	.st14{fill:#888A85;}
	.st15{fill:#2A2C23;}
	.st16{fill:#2B2E28;}
	.st17{fill:#ACACA6;}
	.st18{fill:#1F130B;}
	.st19{fill:#A9AAA5;}
	.st20{fill:#6C4E3E;}
	.st21{fill:#2E302A;}
	.st22{fill:#706A5D;}
	.st23{fill:#43463F;}
	.st24{fill:#302F2A;}
</style>
<g id="wheel">
	<path id="tire" d="M298.7,359.2c0.1,0,0.3-0.1,0.5-0.1h12.8c11.9,0.1,19.9,6.7,26.7,15.5c2.9,3.7,3,8.1,4.2,12.3
		c0,0.1,0.1,0.3,0.1,0.4V401c0,0.1,0,0.2,0,0.2c-1.8,13.9-11.1,21.6-22.8,27.2c-2.1,1-4.5,1.3-6.8,1.1c-3.3,0.3-6.6-0.5-9.9,0.4
		c-1.6,0-3.1,0.1-4.7,0.1c-17.1-4.4-26.6-15.3-27.8-33.2c0.1-1.7,0.3-4.5,0.4-6.3c0.7-3.3,0.3-6.8,1.5-10.1
		c3.2-8.5,9.6-14.1,16.6-19.3C292.1,359.2,295.7,360.2,298.7,359.2z"/>
	<path class="st0" d="M314.2,429.3c13.3-4.6,28.6-10.5,28.8-1.6c0,2.2-0.4,2.6-2.6,2.6c-8.8-0.2-17.7-0.1-26.5-0.1
		C313.4,429.7,313.5,429.4,314.2,429.3z"/>
	<path class="st0" d="M270.9,397.2c2,1.6,1,3.9,1.5,5.9c3.5,12.6,11.6,20.8,23.7,25.4c1,0.4,2.4,0.2,2.8,1.7c-8.5,0-17-0.1-25.5,0.1
		c-2.2,0-2.6-0.4-2.6-2.6C271,417.5,270.9,407.3,270.9,397.2z"/>
	<path class="st0" d="M342.9,387.2c-3.3-10.1-9.1-18.1-18.3-23.6c-4-2.4-8.5-2.8-12.7-4.4c9.4,0,18.8,0.1,28.3-0.1"/>
	<path class="st1" d="M314.2,429.3c0,0.3-0.1,0.6-0.3,0.9c-3.7,0-7.3,0-11,0C306.6,428.2,310.4,429.6,314.2,429.3z"/>
	<path class="st2" d="M280.1,403.1c-3.4-10.5-1-19.8,6.3-27.7c8.1-8.7,18.3-11.5,29.6-7.9c10.4,3.3,17.2,10.4,19,21.6
		c0.9,1.9,0.7,3.4-1.5,4.3c-1.7-0.3-1.5-2.2-2.6-3c-2.7-1.5-4.3,0.9-6.4,1.6c-1.4,0.6-2.9,1.1-4.1,2.1c-1.3,1-2.3,2.3-4,2.7
		c-2,0-3.1-1-3.4-2.9c0-1.3,0.3-2.6,0.4-3.9c0.5-1.8-2.3-2.2-1.7-4c2.7-2.7,6.3-3.6,9.7-4.9c3.3-1.2,3.4-2.8,0.9-4.9
		c-1.6-1.5-3.5-2.5-5.5-3.4c-5.7-2.6-6.4-2.3-9,2.9c-3,1.1-6.7,1.3-7,5.7c-3.7-1.2-1.6-4.7-2.9-6.9c-0.4-0.6-0.8-1.2-1.5-1.1
		c-4.4,0.6-10.2,7.3-10.5,12.1c4.3,1.5,8.8,0.9,13.1,1.8c1.6,1.2,2.5,2.9,3,4.8c-0.8,1.2-2.1,2.1-1.9,3.8c-0.2,1.4-0.3,2.9-1.9,3.6
		c-0.7,0.2-1.5,0-2.1-0.3c-3.4-1-6.7-2.3-10.2-2.7c-4.5-0.5-3.2,2.8-3.3,5.1C282.3,403,281.8,404.2,280.1,403.1z"/>
	<path class="st3" d="M333.9,403.2c-3.9,16.4-25.1,24.9-40.1,16.1c0.6-0.9,1.6-1.1,2.6-1.2c2.2,1.1,1.8-2.8,3.8-2.1
		c4.4,4.2,9.4,2.7,14.2,1.2c2-0.6,3.8-1.8,5.8-2.6c3.9-0.7,5.9-2.8,5.7-6.8c2.9-1.4,3.2-4.8,5.3-6.9
		C332.8,400.8,332.8,402.6,333.9,403.2z"/>
	<path class="st4" d="M296.9,419.2c-1.1,0-2.1,0.1-3.2,0.1c-7-3.3-11.6-8.6-13.6-16.2c1.4,0,1.6-1,1.9-2.1c1.8-0.1,2.2,1.4,2.6,2.5
		c1.6,4.1,4.3,7.3,7.5,10.3c0,1.1,0.2,2,1.6,2.4C295.1,416.7,297.1,416.8,296.9,419.2z"/>
	<path class="st5" d="M333.9,403.2c-2.6,1.2-1.5-1.3-2-2.1c-0.3-0.4-0.5-0.9-0.4-1.5c0.5-2.2-0.5-4.8,1.8-6.5c1.7-0.8,1.7-2.4,1.8-4
		C336.6,394,335.6,398.6,333.9,403.2z"/>
	<path class="st6" d="M298,399.2c1.4-1.1,0.8-2.8,1.1-4.2c2.9-1.5,4,0.6,4.6,2.7c0.7,2.8,2.5,2.5,4.6,2.1c2.2-0.4,3.1-1.6,2.6-3.9
		c-0.6-2.7-0.1-4.4,3.2-2.7c0.1,1.8,1,2.8,2.9,2.9c1.1,0.6,1.5,1.7,2,2.7c0.4,0.8,0.7,1.7,0.5,2.7c-1.2,3-1.9,6.3-4.2,8.8
		c-1.9,0.5-2.4-1.1-3.2-2.2c-2.9-3.6-4.5-0.7-6.3,1.3c-0.7,0.7-1.4,1.2-2.4,1.4c-2.3,0.4-4.7,0.1-5.4-2.2c-0.7-2.2-2.1-0.5-2.9-1.2
		c-0.6-0.9-0.2-1.7,0.2-2.5C296.7,403.3,297.2,401.1,298,399.2z"/>
	<path class="st7" d="M308.1,375.1c-0.2-6.4,0.2-6.7,6.5-4.7c1.1,0.3,2.2,0.8,3.2,1.3c3.6,1.8,8.4,3.8,8.5,7.4
		c0.1,3-5.2,3.4-8.3,4.6c-2.1,0.8-3.7,2.7-6.2,2.5c-0.8-0.2-1.2-0.6-1.4-1.4c0-0.2,0-0.4,0.1-0.5c2.9-4.3,2.9-4.3-1.8-7.2
		C308.4,376.5,308.1,375.9,308.1,375.1z"/>
	<path class="st8" d="M308.1,375.1c0.3,0.4,0.5,0.7,0.8,1.1c2.2,2.6,2.3,5.7,2.1,8.8c0.3,0.4,0.6,0.7,0.9,1.1c4.3,2.1,4.3,2.1,2,4
		c-3.4,2.8-7.8,2-11.7,3c-0.3,0.1-0.5-0.7-0.2-1.2c-1.6-0.9-3.7-1.6-2.2-4.2c-0.6-2.3-0.6-4.5,1-6.5
		C299.8,375.2,304,375.2,308.1,375.1z"/>
	<path class="st9" d="M296.1,405.4c-0.3,0.6-0.7,1.2-1,1.8c0.9,3.2-0.4,5.4-3.2,7c-6.1-2.2-7.3-8.2-9.9-13.1
		c-2.3-5.4-1.8-6.2,3.8-5.7c2.3,0.4,3.7,1.9,4.3,4c0.8,2.6,2.6,3.9,5.2,4.3C296.1,404.1,296.5,404.6,296.1,405.4z"/>
	<path class="st10" d="M302,392c3.9-1.5,8-1.3,12-1.9c0.6,1,0.6,2,0,3.1c-1.8,0.2-3.5,0.2-1.5,2.7c1.1,1.4,0.6,3.9-0.8,4.4
		c-2.5,1-5.3,1.6-8,1.5c-1.9-0.1-1.4-2.1-1.2-3.6c0.3-2.3-1.4-3.1-3.4-3.3C298.8,392.8,299.9,391.9,302,392z"/>
	<path class="st11" d="M328.9,400.2c-0.1,0.3-0.1,0.5-0.1,0.8c-1.4,2.1-0.3,7.6-3.8,7c-1.1-0.2-1.6-1.3-1.9-2.9
		c-0.3-2.8,1.3-4.6,1.5-7.1c0.4-2.5-1.4-4.3-0.9-6.8c1.6-0.9,2.7-5,5.1-2.1C329.3,392.8,329.3,396.5,328.9,400.2z"/>
	<path class="st9" d="M284,386.1c0.5-5.6,8.6-14.4,13.7-14.9c1-0.1,1.5,0.5,1.4,1.5c0.3,2.6,1.3,5.3-1.8,7c-2,1.5-3.8,3.2-5.6,4.9
		C289.6,387.6,286.8,386.9,284,386.1z"/>
	<path class="st12" d="M284,386.1c2.8,0,5.7,0.6,7-2.9c4.7,1.8,5.1,1.5,4.9-4.1c3.4-1,3-3.8,3.2-6.4c1.6,2.7,0.3,5.9,1.8,8.6
		c-0.2,2.2,0.7,4.6-1,6.5C294.4,388.8,289.1,387.9,284,386.1z"/>
	<path class="st13" d="M294.8,404c-3.5,2.4-4.1-1-5.1-2.8c-1.2-2-1.1-4.8-3.8-5.9c3.8,0.4,7.5,1.4,11,2.9
		C296.8,400.4,297.3,402.7,294.8,404z"/>
	<path class="st14" d="M324.1,391.3c2,1.8,3.2,3.9,2.7,6.7c-3.5,3.8-3.5,3.8-7.6-1.1c-0.4-1.3,0-2.5,0.7-3.5
		C321,392,322.3,391.2,324.1,391.3z"/>
	<path class="st15" d="M294.8,404c0.7-1.9,1.4-3.8,2-5.7c0.4,0.3,0.7,0.6,1.1,0.9c1.1,2.6-0.1,4.5-1.8,6.3
		C295.7,404.9,295.2,404.5,294.8,404z"/>
	<path class="st16" d="M319.9,393.3c0.1,1.2,0.1,2.3,0.2,3.5c0.6,2.1,0.3,3.3-2.3,2.4c-1.1-0.8-0.8-2-1-3.1
		C317.4,394.7,318.1,393.4,319.9,393.3z"/>
	<path class="st3" d="M332,400.2c0-3.7-0.1-7.3-0.1-11c1.3,1,0.9,2.6,1.2,3.9C332.5,395.4,333.9,398.1,332,400.2z"/>
	<path class="st17" d="M323.8,405.3c0.7,0.9,1.5,1.8,2.2,2.7c0.7,1.3,2.7,2.4,0.9,4.1c-1.7,1.6-2.8,4.3-6,3
		c-1.1-0.1-1.9-0.8-2.7-1.5c-1.1-1.2-3-1.7-3.2-3.7c0.9-3.1,1.4-6.4,3.9-8.8C321.5,401.4,322.9,403,323.8,405.3z"/>
	<path class="st18" d="M319.1,413c0.6,0.7,1.2,1.5,1.8,2.2c-5.2,4-11.1,5.4-17.5,4.6c-2.1-0.3-4-0.7-3.4-3.6c-0.2-1.8,0.6-3,2.2-3.7
		c1.2-0.3,2.3-0.2,3.3,0.3c3.6,1.8,7.1,2.2,10.7,0C317.1,412.4,318.2,412.5,319.1,413z"/>
	<path class="st19" d="M302.1,413.2c-0.7,1-1.3,2-2,3c-1.9,0.1,0.1,4.3-3.1,3c-1.7-0.9-3.4-1.8-5.1-2.6c-2.2-1,0.1-1.6,0.1-2.4
		c1.3-2.2,2.7-4.4,3.2-7c3.5-0.9,4.8,3.5,7.9,3.3C303.9,411.8,302.8,412.5,302.1,413.2z"/>
	<path class="st20" d="M302.1,413.2c0.3-0.9,0.7-1.9,1-2.8c0.6-0.4,1.2-0.9,1.7-1.3c2.5-1.5,5.1-2.2,8-1.8c0.7,0.9,1.5,1.8,2.2,2.6
		c1.4,1,2.8,2,4.1,3C313.5,417.6,307.8,415.8,302.1,413.2z"/>
	<path class="st21" d="M323.8,405.3c-1.7-1.4-3.3-2.8-5-4.2c-0.3-0.7-0.7-1.3-1-2c1.5-0.1,2.1-1.1,2.3-2.4c1.8,2.8,4,3.6,6.7,1.2
		C327.1,400.9,323.7,402.5,323.8,405.3z"/>
	<path class="st22" d="M312.8,407.3c-2.3,2.2-5.1,2-8,1.8C307.7,403.6,309.7,403.2,312.8,407.3z"/>
	<path class="st23" d="M311,385c-2.3-2.6-1.3-5.9-2.1-8.8C316.9,379.3,316.9,379.3,311,385z"/>
	<path class="st24" d="M295.9,379.1c3.5,2.3,1.8,4.8-0.3,6.4c-2,1.5-4.2,0.7-4.6-2.3C292.6,381.8,294.3,380.5,295.9,379.1z"/>
</g>
</svg>
