<?xml version="1.0" encoding="utf-8"?>
<!-- Generator: Adobe Illustrator 21.0.0, SVG Export Plug-In . SVG Version: 6.00 Build 0)  -->
<svg version="1.1" id="Warstwa_1" xmlns="http://www.w3.org/2000/svg" xmlns:xlink="http://www.w3.org/1999/xlink" x="0px" y="0px"
	 viewBox="0 0 612 792" style="enable-background:new 0 0 612 792;" xml:space="preserve">
<style type="text/css">
	.st0{clip-path:url(#SVGID_2_);}
	.st1{fill:#FEFEFE;}
	.st2{fill:#060405;}
	.st3{fill:#C4BB40;}
	.st4{fill:#FBEC9A;}
	.st5{fill:#C0AC27;}
	.st6{fill:#B58431;}
	.st7{fill:#FBF098;}
	.st8{fill:#070605;}
	.st9{fill:#4D0C0E;}
	.st10{fill:#D3C855;}
	.st11{fill:#463C16;}
	.st12{fill:#CCC55D;}
	.st13{fill:#6D110A;}
	.st14{fill:#B6AE45;}
	.st15{fill:#C19950;}
	.st16{fill:#1E1205;}
	.st17{fill:#5D4A32;}
	.st18{fill:#D1BF50;}
	.st19{fill:#B18C58;}
	.st20{fill:#E3CA54;}
	.st21{fill:#F7DC7A;}
	.st22{fill:#BBAA2A;}
	.st23{fill:#DDC177;}
	.st24{fill:#6D3C19;}
	.st25{fill:#989168;}
	.st26{fill:#483821;}
	.st27{fill:#70522D;}
	.st28{fill:#412F23;}
	.st29{fill:#BAA141;}
	.st30{fill:#9B672D;}
	.st31{fill:#E9CA7A;}
	.st32{fill:#484432;}
	.st33{fill:#A78364;}
	.st34{fill:#AC9419;}
	.st35{fill:#937139;}
	.st36{fill:#BC9E76;}
	.st37{fill:#DEBD79;}
	.st38{fill:#B26F56;}
	.st39{fill:#A48239;}
	.st40{fill:#D5C179;}
	.st41{fill:#352715;}
	.st42{fill:#C3BC45;}
	.st43{fill:#C9B53A;}
	.st44{fill:#AEAC5F;}
	.st45{fill:#9A943C;}
	.st46{fill:#F1D769;}
	.st47{fill:#765C2B;}
	.st48{fill:#E6CE82;}
	.st49{fill:#CEBB43;}
	.st50{fill:#D1C464;}
	.st51{fill:#CDBC60;}
	.st52{fill:#D8C862;}
	.st53{fill:#EBD274;}
	.st54{fill:#CDBC5F;}
	.st55{fill:#B09818;}
	.st56{fill:#B59D35;}
	.st57{fill:#402D0F;}
	.st58{fill:#D1B830;}
	.st59{fill:#4A3521;}
	.st60{fill:#61582C;}
	.st61{fill:#6D5F26;}
	.st62{fill:#C1B742;}
	.st63{fill:#FCEE90;}
	.st64{fill:#D2B941;}
	.st65{fill:#C6C047;}
	.st66{fill:#A59D27;}
	.st67{fill:#C9B639;}
	.st68{fill:#B8AA30;}
	.st69{fill:#BDB64E;}
	.st70{fill:#C0AE2C;}
	.st71{fill:#D9BE3F;}
	.st72{fill:#CAA54F;}
	.st73{fill:#1A1A14;}
	.st74{fill:#C6C04B;}
	.st75{fill:#B1AC35;}
	.st76{fill:#ECD05B;}
	.st77{fill:#4B1705;}
	.st78{fill:#1D1B13;}
	.st79{fill:#F0D656;}
	.st80{fill:#E2C943;}
	.st81{fill:#9F7A2F;}
	.st82{fill:#7B580A;}
	.st83{fill:#201708;}
	.st84{fill:#543C1F;}
	.st85{fill:#927B45;}
	.st86{fill:#F5DC60;}
	.st87{fill:#816429;}
	.st88{fill:#907341;}
	.st89{fill:#9C9188;}
	.st90{fill:#18150D;}
	.st91{fill:#8D8810;}
	.st92{fill:#BBA91F;}
	.st93{fill:#C0AC32;}
	.st94{fill:#0B0806;}
	.st95{fill:#F9EF9F;}
	.st96{fill:#E6CA50;}
	.st97{fill:#DFC85A;}
	.st98{fill:#795E27;}
	.st99{fill:#0F0B07;}
	.st100{fill:#2E2007;}
	.st101{fill:#B0A12A;}
	.st102{fill:#B2AC35;}
	.st103{fill:#E9D779;}
	.st104{fill:#DCCA6E;}
	.st105{fill:#EADC80;}
	.st106{fill:#F9E87B;}
	.st107{fill:#C4AD2B;}
	.st108{fill:#EBD66C;}
	.st109{fill:#DCC643;}
	.st110{fill:#E4CF52;}
	.st111{fill:#A58C18;}
	.st112{fill:#827974;}
	.st113{fill:#C4BE40;}
	.st114{fill:#B6AE37;}
	.st115{fill:#7E7502;}
	.st116{fill:#8A810D;}
	.st117{fill:#7C7403;}
	.st118{fill:#BBA71F;}
	.st119{fill:#E0CA4A;}
	.st120{fill:#8B7506;}
	.st121{fill:#E2CF75;}
	.st122{fill:#C4BD40;}
	.st123{fill:#BCB137;}
	.st124{fill:#BBB041;}
	.st125{fill:#B9B75B;}
	.st126{fill:#867408;}
	.st127{fill:#796805;}
	.st128{fill:#BBB05D;}
	.st129{fill:#BBA61E;}
	.st130{fill:#763204;}
	.st131{fill:#A8773E;}
	.st132{fill:#B28045;}
	.st133{fill:#BE8C53;}
	.st134{fill:#5D564D;}
	.st135{fill:#D1B63A;}
	.st136{fill:#39200C;}
	.st137{fill:#3E3414;}
	.st138{fill:#744D33;}
	.st139{fill:#231106;}
	.st140{fill:#1A1408;}
	.st141{fill:#2D2408;}
	.st142{fill:#4E3F0B;}
	.st143{fill:#BA9E1A;}
	.st144{fill:#CAB646;}
	.st145{fill:#A57439;}
	.st146{fill:#BE8C50;}
	.st147{fill:#926E46;}
	.st148{fill:#827662;}
	.st149{fill:#251A13;}
	.st150{fill:#4C310B;}
	.st151{fill:#6A6764;}
	.st152{fill:#BFAD56;}
	.st153{fill:#5E4127;}
	.st154{fill:#524B44;}
	.st155{fill:#F3E489;}
	.st156{fill:#E6D05D;}
	.st157{fill:#8C7C28;}
	.st158{fill:#8C7403;}
	.st159{fill:#D9C870;}
	.st160{fill:#C2AF27;}
	.st161{fill:#CEB93C;}
	.st162{fill:#ECDA8F;}
	.st163{fill:#E8D173;}
	.st164{fill:#B9A72D;}
	.st165{fill:#E3CE6E;}
	.st166{fill:#A29539;}
	.st167{fill:#E0D99C;}
	.st168{fill:#F2DE9F;}
	.st169{fill:#AEA357;}
	.st170{fill:#8C7705;}
	.st171{fill:#FCEE9A;}
	.st172{fill:#947903;}
	.st173{fill:#F1D971;}
	.st174{fill:#E3D261;}
	.st175{fill:#C0B32C;}
	.st176{fill:#543B29;}
	.st177{fill:#C2B47E;}
	.st178{fill:#BCA737;}
	.st179{fill:#291503;}
	.st180{fill:#6B624B;}
	.st181{fill:#AA793B;}
	.st182{fill:#42391E;}
	.st183{fill:#B47F3A;}
	.st184{fill:#B58446;}
	.st185{fill:#766638;}
	.st186{fill:#F9EAB4;}
	.st187{fill:#CDB629;}
	.st188{fill:#140A00;}
	.st189{fill:#7D6A2B;}
	.st190{fill:#4A400F;}
	.st191{fill:#CAB541;}
	.st192{fill:#888154;}
	.st193{fill:#2A2009;}
	.st194{fill:#BD8B4E;}
	.st195{fill:#A27D56;}
	.st196{fill:#B68546;}
	.st197{fill:none;}
</style>
<g>
	<defs>
		<rect id="SVGID_1_" x="35.5" y="361" width="555" height="165"/>
	</defs>
	<clipPath id="SVGID_2_">
		<use xlink:href="#SVGID_1_"  style="overflow:visible;"/>
	</clipPath>
	<g class="st0">
		<g>
			<path class="st1" d="M314,527c-91.2,0-182.3,0-273.5,0.1c-3.4,0-4.1-0.7-4.1-4.1c0.1-52.3,0.1-104.7,0-157c0-3.4,0.7-4.1,4.1-4.1
				c182.3,0.1,364.7,0.1,547,0c3.4,0,4.1,0.7,4.1,4.1c-0.1,52.3-0.1,104.7,0,157c0,3.4-0.7,4.1-4.1,4.1C496.3,527,405.2,527,314,527
				z"/>
			<path class="st2" d="M195.4,521c-1.4-0.2-2.9,0.7-4-0.7c-0.7-1.1-1.2-2.4-3-2c-5.6-1.5-6.4-5.2-6.3-10.6
				c0.2-29.1-26.3-44.7-50.3-34.4c-12.5,5.4-20.5,15.8-20.6,30.4c-0.1,8.8,0.2,8.8-8.4,12.2c-0.9-0.4-1-1.2-1-2.1
				c0.5-7.6,1.4-15.2,3.6-22.5c2.2-5.7,3.8-11.6,7.4-16.7c5-7.2,12.6-9.2,20.5-10.7c8.7-0.7,17.5-2.4,26.2-0.1
				c4.4,1,8.5,2.6,12.1,5.3c5.3,3.8,8.4,9.3,11.1,15.1c1,2.2,2.1,4.2,4.2,5.4c1.8,2.1,2.6,4.8,3.5,7.3c0.6,2.4,2.1,4.6,2.3,7.1
				c0.1,4.5,0.6,9,2.4,13.2C195.5,518.5,196.2,519.7,195.4,521z"/>
			<path class="st3" d="M106.6,491.2c-1.3,7.7-2.6,15.3-3.9,23c-4.9,2.2-9.9,2.6-15,0.8c-3.3-1.2-7,0.4-10.2-1.7
				c-0.4-2.3,1.5-2.2,2.8-2.5c2.1-0.5,4.2-0.6,6.3-1.5c-10.1-1.5-20.2-0.4-30.3-1.1c-0.8-0.2-1.6-0.6-2-1.3c0-0.2,0-0.4,0-0.6
				c-0.3-1.4,0.7-1.9,1.7-1.8c6.6,1,12.2-2.6,19.2-3.6c-2.3-1.8-4.4-2.3-6.4-2.3c-6.9,0-12.7-3.6-18.9-5.8c-2-0.7-4.9-2-1.3-4.7
				c16.9-0.9,33.7-0.2,50.6-0.4c1.7,0,3.3-0.1,4.9,0.2C105.9,488.2,107.5,488.9,106.6,491.2z"/>
			<path class="st4" d="M536.5,372.9c0.6-0.3,1.2-0.6,1.9-1c6.4-2.1,12.8-1.7,19.6-1.2c-1.3,2.8-3.4,2.5-5,3.2c-5,1.1-10.2,0.9-15,3
				c-4.9,0.9-9.8,0.3-14.7,0.5c-2.4,0.1-4.9,0-7.3,0.8c-26.2,0.6-52.4,0.1-78.6,0.3c-2.6,0-5.3-0.3-7.9,0.7
				c-11.3,0.7-22.6,0.1-33.9,0.3c-10.1,0-20.3-0.7-30.3,0.2c-11.1,1-22.2,0.1-33.2,1.3c-2.3,0.6-4.7,0.4-7,0.5
				c-11-0.1-21.8,0.8-32.7,1.9c-4.2,0.4-8.2,1.6-11.8,3.7c-9.8,5.9-19.9,11.4-29.1,18.2c-3.5,2.1-6.8,4.7-10.4,6.6
				c-3.3,1.1-5.7,3.8-8.5,5.7c-0.5,0.2-0.9,0.3-1.4,0.3c-1.1-0.1-1.9-0.5-2.2-1.6c0.1-2,1.8-2.7,3-3.9c10.6-7.2,21.2-14.3,32.1-21.1
				c4.9-3.5,10.3-5.9,15.6-8.6c9.6-4.5,19.8-4.6,30.1-4.6c3.3,0,6.6-0.1,9.8-0.9c1.2-0.3,2.4-0.3,3.5-0.4
				c15.3,0.1,30.6-0.6,45.8-1.4c12.4-0.7,24.9,0.7,37.3-1.5c1.6-0.3,3.3,0.2,4.9,0.5c3.3,0.5,6.6,1,9.8-0.6c1.5-0.8,3.2-0.9,4.8-0.9
				c20.4-0.2,40.8-1.8,61.2-1.1c7.8,0.3,15.5-1.9,23.3-0.7c2.4,0.7,4.7,2,7.3,1.8c1.7,0.1,3.2,0.6,4.8,0.9
				C527.1,373.2,531.8,374.3,536.5,372.9z"/>
			<path class="st5" d="M54.6,475.3c2.8-0.1,3-2.1,3.1-4.2c1.2-1.3,2.9-1.4,4.5-1.4c2.6,0.1,4-1,4-3.8c0-1.5,0.1-3,1.3-4.1
				c11.2-3.3,22.9-3.4,34.4-5c1-0.1,2-0.1,3,0c10.2,0.6,10.1,4.7,6.6,10.5c-1.6,2.6-0.8,5.5-1.3,8.3c-1.1,2.2-2.7,1.9-4.9,1.6
				c-10.5-1.2-21.1-0.7-31.6-0.3c-0.6,0-1.2,0.5-1.8,0.9c-1.4,0.6-2.8,0.7-4.3,0.8c-3.4-0.1-6.8,0.3-10.2-0.3
				C56.1,477.5,54.7,477.1,54.6,475.3z"/>
			<path class="st6" d="M386.5,517.8c-17.8,0.1-35.6,0.2-53.4,0.3c-26.3,0.2-52.5,0.5-78.8,0.7c-14.1-0.9-28.2,0-42.3,0.4
				c-4.1,0.1-8.3,1.1-12.2-0.9c-0.5-0.5-0.6-1.1-0.1-1.7c5-2.1,10.5-1.4,15.7-2.2c1.3-0.2,2.7-0.1,4-0.1c25.2,0.7,50.3-0.5,75.4-1.3
				c23.8-0.7,47.6-0.8,71.4-0.5c13.1,0.2,26.3-1.6,39.4,0.7c1.6,0.3,3.3,0.3,4.8,1.3c1.5,3.1-0.9,2.8-2.6,2.8
				c-5.4,0.1-10.9,0-16.3,0C389.8,517.5,388.1,517.2,386.5,517.8z"/>
			<path class="st7" d="M59.4,453.9c2.5-5.8,7.4-8.3,13.1-9.7c13.3-3.1,26.5-6.8,40.1-8.9c2-0.3,3.9-0.7,5.9-0.8
				c1.3-0.5,2.7-0.4,4.1-0.4c8.9,0.7,17.7-1.8,26.8-0.8c4.3,0.5,8.6-2.3,13.2-1.6c2.2,0.3,5.7-0.2,5.6,2.7c-0.1,3-3.6,3.1-6,2.4
				c-4-1-7.1,1.1-10.4,2.4c-5.1,1.7-10.4,2.2-15.6,3c-8.9,1.3-17.7,3-26.6,4.2c-5.5,0-10.8,1.8-16.2,2.7c-10,1.7-19.8,4.4-29.9,5.6
				C62.1,454.8,60.6,455.2,59.4,453.9z"/>
			<path class="st8" d="M503.7,497c-5.1-17.6-16.2-28.3-32.5-29.6c-25.6-2-40.5,15-39.5,40.2c0.2,6.5,0.6,6.5-6,7.5
				c-0.8,0.5-1.6,0.5-2.4,0c-1.4-2-1.1-4.3-0.9-6.6c0.4-1.8,0.9-3.6,1-5.5c2.6-10.2,4.6-20.7,11.4-29.3c2.3-2.7,5.4-4.3,8.3-6.1
				c12.1-3.4,24.5-4.9,37.1-3.3c15.3,0.5,21.1,11.9,26.6,23.5c1.3,3,2.1,6.2,3.2,9.3c0.6,1.8,1.5,4.3-1,5c-2.3,0.6-4.5-0.7-4.8-3.6
				C504,497.9,503.9,497.4,503.7,497z"/>
			<path class="st9" d="M574.5,448.1c0.2,4.9,1.7,9.8,0,14.7c-1.4,1.5-3.2,1.6-5,1.5c-0.9,0-1.8-0.1-2.7-0.3
				c-3.6-1.5-3.7-4.8-3.8-7.9c-0.1-7.5,0.1-14.9-1-22.3c-0.5-8-2.4-15.7-4.4-23.4c-0.5-1.8-1.2-3.6-1.2-5.5c0.1-1.1,0.1-2.5,1.5-2.8
				c1.4-0.3,2.4,0.7,2.7,1.8c1.7,6.7,7,11.8,8.6,18.3c1.5,5.8,4.1,11.6,1.9,17.9c-0.7,2,0.6,3.4,2.3,4.4
				C574.4,445.5,573.5,447.1,574.5,448.1z"/>
			<path class="st10" d="M47.4,489.1c0.2,1.1,0.8,1.7,1.9,2c6.9,2,13,6.4,20.7,6.1c2.6-0.1,5.4,1.3,8.6,3.9
				c-7.6,1.4-13.9,5.1-21.2,4.7c-1.1-0.1-2.2-1-3.1,0.4c-5-5.4-11.9-9.4-11.8-18.1C44.4,487.2,46,487.6,47.4,489.1z"/>
			<path class="st11" d="M567.4,463.1c0.6,0,1.3-0.1,1.9-0.1c1.5,2,3,3.9,5.4,5c1.7,0.9,3.6,0.6,5.4,0.8c2.2,0.3,5.2-0.8,5.8,2.3
				c0.6,2.9,1.8,6.3-1.5,8.6c-0.4,0.5-0.9,0.9-1.5,1.2c-13.5,0.7-27,2-40.5,1.5c-1.3,0-2.6-0.3-3.7-1.2c0.4-3.4,3.2-2.8,5.2-2.7
				c10.7,0.3,21.2-1.5,31.9-1.2c2.4,0.1,6.5,1.1,6.4-2.5c-0.1-3.6-4.2-2.2-6.5-2.2c-21.8-0.1-43.5-0.1-65.3-0.1
				c-2.7,0-5.3-0.1-7.7,1.4c-2.7,0.9-4-0.3-4.3-3c0.6-1.2,1.6-1.8,2.8-2.1c7.1-1.4,14.3-1.5,21.5-1.3c13.2,0.8,26.4-0.7,39.6-0.9
				c1.2,0,2.3-0.3,3.2-1.1C566,464.7,566.7,463.9,567.4,463.1z"/>
			<path class="st12" d="M583.5,480.1c0.2-0.2,0.5-0.3,0.9-0.3c0,0.8-0.1,1.7,0,2.5c0.4,4.8,0.4,9.4-4.9,12
				c-0.3,4.9-3.2,6.7-7.7,7.3c-7.9,1-15.8,1.5-23.7,1.9c-0.6,0-1.3,0-1.9-0.2c-1.1-0.3-2.6-0.4-2.4-1.9c0.1-1,1.4-1.4,2.4-1.4
				c4.2,0.1,8-2,12-2.1c3.3,0,4.1-1.5,4.4-4.2c3.5-1.4,7.5,0.1,10.5-1.4c-2.9,0.8-6.4,0.8-9.9,0.7c-1.4-0.1-3.3,0.4-3.5-1.6
				c-0.2-1.8,1.6-2.4,3.1-2.6C570.4,487.7,577,484,583.5,480.1z"/>
			<path class="st13" d="M573.3,445c-5.7,0.2-4.2-3.9-3.3-6.5c2.4-7.2-1.1-13.4-2.5-20c-0.2-0.9-0.9-1.5-1.8-1.4
				c-2.8,0.1-3.3-1.5-3.2-3.8c0.1-3.4-2.3-6.1-3-9.3c-0.1-0.6-0.6-1.8-1.6-1c-0.4,0.3-0.2,1.2-0.3,1.9c-2.2,0.3-2.3-1.5-2.9-2.8
				c-0.4-3.1-1.6-6-3-8.8c-1.2-3.4-3.5-6.4-3.8-10.1c0.3-1.9,1.8-2.8,3.3-3.7c0.5-0.2,1-0.1,1.4,0c10,17.2,16.9,35.5,20.1,55.1
				C573.5,438.2,571.7,441.7,573.3,445z"/>
			<path class="st14" d="M47.4,489.1c-1.7,0-3.4-0.2-4.9-1c-0.3-0.5-0.6-1-0.9-1.5c2.2-1.4,4.5,0,6.8,0c17.2,0,34.4,0,51.6,0
				c0.8,0,1.7-0.1,2.4-0.4c2.1-1,2.7-2.9,2.9-4.9c-1.8-3.1-5-2.7-7.8-2.8c-6.8-0.3-13.7,0-20.5-0.1c-1.9,0-4.1,0.4-5.5-1.6
				c0.3-1.8,1.7-1.8,3-1.8c9.6,0,19.2,0,28.8,0c1.2,0,2.2,0,3.2,1c1.5,1.5,2.3,0.2,3-1c2.2-2.5,4.4-5.1,6.6-7.6
				c1.5-1.3,3.1-2.5,5-3.3c0.8-0.3,1.6-0.4,2.4-0.4c3.1,0.3,6.5-1.1,9.2,1.5c-10.3,1.9-18.7,6.3-22.6,16.9c-1.1,3.1-2.4,6.1-3.6,9.2
				c-0.4-2.7-2.5-2.2-4.3-2.2C84,489.1,65.7,489.1,47.4,489.1z"/>
			<path class="st15" d="M232.7,413.1c-1.1,1-2.1,1.9-3.2,2.9c-4.3,5.4-10.3,8.7-15.7,12.9c-1.7,1-3.4,1.9-5.4,1.4
				c-1.1-2.9-6.1-0.9-6.2-5.1c-0.9,0.5-1.8,0.8-2.8,1c-1.9,0.2-3.8,1.2-5.7,0.2c-1.1-2.2,1.3-1.5,1.9-2.2c3.3-1.2,6.5-2.7,10.1-1.8
				c1.9,0.5,3.2-0.6,4.5-1.5c5.8-3.6,11.5-7.3,17.2-10.9c0.8,0.1,1.6,0.1,2.4-0.2c1.4-0.7,3.2-2.1,4.4-0.6
				C235.6,410.7,232.6,411.5,232.7,413.1z"/>
			<path class="st16" d="M552.4,504.9c-2.3,1.9-5.1,2.1-7.9,2.1c-7.8,0-15.6,0.3-23.4-0.1c-4.4-0.2-5.6,1.2-4.9,5.2
				c0.2,1.3,0.2,2.7,0,4c-0.2,1.4,1.1,3.7-1.7,3.8c-2.4,0.1-2.1-2.1-2.6-3.6c-0.9-3.3-1.8-6.7-2.7-10.1c1.4-3.9,1.2-7.5-0.6-11.4
				c-0.6-1.2-3.7-4.1,0.6-5.4c1.3,0.4,2.1,1.3,2.9,2.3c1.6,2.5,2.6,5.3,3.3,8.1c0.4,1.6,0.6,3.3,2.5,3.9c9.7,0.4,19.3-1.9,29-1.3
				C548.8,503.3,551.6,501.9,552.4,504.9z"/>
			<path class="st17" d="M326.2,371.8c1.2-2.3,3.4-1.7,5.3-1.7c31.5-0.5,63.1-0.9,94.6-1.3c6.6-0.1,13.3,0.1,19.9,0.1
				c15-0.9,30.1-0.2,45.1-0.4c0.7,0,1.2,0.4,1.5,1c-1.6,2.4-4.1,1.8-6.3,1.9c-11.9,0.1-23.7,0.1-35.6,0c-5.1,0.2-10.3-0.6-15.3,0.6
				c-4.5,0.6-9.1,0.3-13.6,0.2c-0.6,0-1.2-0.1-1.8-0.2c-6.9-1-13.8-0.5-20.8-0.6c-9.1-0.7-18,1.1-27,1c-13.9,0-27.9,0-41.8,0
				C329,372.4,327.5,373,326.2,371.8z"/>
			<path class="st18" d="M77.5,513c4.6,0.4,9.3-0.8,13.8,1.7c1.9,1.1,5.2,1,7.5-0.6c1.3-0.9,2.6-1.6,3.8,0.1
				c0.1,0.6,0.1,1.1,0.2,1.7c-1,1.7-2.6,1.2-4,1.2c-15-0.3-29.9-0.7-44.9-0.9c-3.1,0-4-1.8-4.9-4c-1-2.3,0.6-2.9,2.3-3.5
				c4.8,3.5,10.2,3,15.7,2.7C70.5,511.2,74.2,510.8,77.5,513z"/>
			<path class="st19" d="M232.7,413.1c-1.7-1.8,1.7-2,1-3.6c-2-0.8-4,3.3-6.2,0.4c11.2-7.7,23.1-14.4,34.9-21.2
				c1,0.9,1.4,2.2,2.1,3.3C253.9,399,243.3,406,232.7,413.1z"/>
			<path class="st20" d="M59.4,453.9c14.7-2,29.1-5.5,43.7-8.3c2.1-0.4,4.2-0.6,6.4-0.6c-0.8,3.5-5.1,2-6.6,4.6
				c-1.8,1.5-3.9,1.5-6.1,1.7c-2.3,0.2-4.7,0.3-6.1,2.6c-3.2,2.1-7,1.9-10.6,2.5c-4.5,0.7-9.2,0.9-12.4,4.9c-0.4-0.2-0.8-0.6-1-1
				c-0.5-2.4-1.5-4.2-4.4-4c-1.3,0.1-2.6-0.2-3.5-1.2C59,454.6,59.2,454.3,59.4,453.9z"/>
			<path class="st21" d="M195.6,424.1c-0.7,0.5-1.5,1-2.2,1.6c-0.3,1.2-1.3,1.9-2.3,2.4c-5.9,3.3-12.3,2.5-18.5,2
				c-4.7-0.3-9.2-0.3-13.8,0.4c-12,1.9-24.1,3.2-36.2,4.6c-1.3,0-2.7,0-4,0c-0.5-0.4-0.6-0.8,0-1.2c11.4-2.9,23.1-4.1,34.7-5.5
				C167.2,426.6,181.4,425.5,195.6,424.1z"/>
			<path class="st22" d="M77.5,513c-6,0-12.1-0.2-18.1,0.1c-3.7,0.2-6.4-1.1-8.1-4.3c0.7-0.6,1.1-1.6,2.2-1.6
				c2.1,2.9,5.1,2.5,8.1,2.5c2.5,0,4.9,0,7.8,0c-3.2-0.4-6,0-8.7-0.3c-1.6-0.2-3.8,0.4-4.2-2.2c9.1,0,18.2-0.1,27.3,0
				c2.6,0,6.4,0,6.7,2.6c0.2,2.3-3.7,0.7-5.5,1.7C82.7,512.7,79.7,510.9,77.5,513z"/>
			<path class="st23" d="M319.5,378.2c-4.8,2.3-9.7,0.3-14.6,0.6c-8.9,0.4-17.4,2.1-25.7,5.1c-1.8-0.1-4,0.6-4.8-2
				c3.3-4,8.1-4.5,12.6-4.8c8.3-0.5,16.6,0,24.9,0.1C314.4,377.8,317.3,375.4,319.5,378.2z"/>
			<path class="st24" d="M199.5,517.9c16.5,0.1,33,0.1,49.6,0.2c1.8,0,3.7-0.6,5.3,0.7c-17.7-0.2-35.4,1.1-53,2.5
				c-2,0.2-4,0.4-5.9-0.4c-0.3-1-0.7-1.9-1-2.9c-0.4-0.5-0.3-0.9,0.1-1.3C196.4,516.3,198,516.8,199.5,517.9z"/>
			<path class="st25" d="M552.4,504.9c-1.6-0.7-3.3-1.3-4.9-2c-0.3-0.2-0.4-0.4-0.3-0.6c0.1-0.2,0.2-0.3,0.3-0.3
				c8.6,0.1,17-1.2,25.5-2.1c3.7-0.4,5.2-2.9,6.5-5.8c0.2,0.8,0.2,2,0.7,2.3c2,1.1,1.5,2.6,1,4.3c-0.6,2-2.1,2.1-3.9,2.3
				C568.9,503.6,560.7,504.3,552.4,504.9z"/>
			<path class="st26" d="M319.5,378.2c-2.5-0.7-5.3,0.6-7.7-1c4.7-1.9,8.4-6.7,14.3-5.3c4.6-1.4,9.2-0.7,13.9-0.8
				c10.8-0.1,21.6-0.1,32.5-0.1c0.3,0.6,0.2,1.1-0.4,1.5c-1.9,1.1-4.1,0.8-6.1,0.9c-6-0.1-12,0.2-18,0.1c-3.4,0-6.8-0.5-10.1,0.4
				c-4.2,1.3-8.8-0.7-12.8,1.7c-0.8,0.9-1.8,1.7-2.8,2.4C321.4,378,320.5,378.1,319.5,378.2z"/>
			<path class="st27" d="M492.5,370c-1.5-1.6-3.4-0.9-5.2-0.9c-13.8-0.1-27.5-0.1-41.3-0.1c11.7-1.2,23.5-0.6,35.3-0.8
				c7.5-0.2,15,0.2,22.4-0.2c6.9-0.4,13.1,0.9,18.6,5.3c0.2,0.1,0.5,0.3,0.7,0.4c-0.3,0.1-0.5,0.2-0.8,0.3c-1.6,0-3.2,0-4.8,0.1
				c-2.5-2.3-5.3-3.7-8.8-2.9c-4.1,0.1-8.1-0.2-12.2,0.2C495,371.2,493.6,371.2,492.5,370z"/>
			<path class="st28" d="M104.4,487c-1.3,1.9-3.3,1.2-5,1.2c-16.7,0-33.3-0.1-50-0.1c-2.7,0-5.3-0.5-7.8-1.4c-0.6-1.5-1-3-0.2-4.6
				c2.7-3.3,5.8-3.1,9.2-1.2c0.2,1.9-2,2-2.7,3.6c1.7,1.4,3.7,1,5.5,1c14.7,0,29.3,0,44,0.1C99.8,485.5,102.4,485,104.4,487z"/>
			<path class="st29" d="M552.5,379.7l-0.4,0.1l-0.4-0.1c-2.2-1.4-4.2-1.4-6,0.8c-2.9-0.7-7.5,1.3-7.2-4.6c1.4-3.5,4.6-1.4,6.9-2
				c2.3-0.6,4.8-0.7,7.3-1c1.8,0.1,4.6-2.4,4.9,1.8C555,375.7,552.1,376.1,552.5,379.7z"/>
			<path class="st30" d="M423.6,514.9c0.7,0.1,1.4,0.2,2.1,0.2c0.9,3.3-0.8,3.8-3.6,3.7c-11.9-0.4-23.7-0.7-35.6-1
				c6.5-1.8,13.1-0.4,19.6-0.8c1.7-0.1,3.8,0.8,4.4-1.9C414.8,512.5,419.2,513.5,423.6,514.9z"/>
			<path class="st31" d="M118.4,433.8c0,0.4,0,0.8,0,1.2c-13.4,2.2-26.7,5.2-39.9,8.4c-1.9,0.5-3.8,2-6,0.7
				C87.5,439,102.7,435.4,118.4,433.8z"/>
			<path class="st32" d="M509.2,490c-2.1,3.4,1,5.8,1.7,8.6c0.6,2.9,2.5,5.8-1.6,7.6c-5.8,1.1-5.8,1.1-5.8-4.8c0-1.5,0.1-3,0.1-4.5
				c1.1,2.3,2.4,4.3,5.6,4.1c-0.2-4.7-2.9-8.7-3.8-13.1C507.3,487.7,509.3,487,509.2,490z"/>
			<path class="st33" d="M50.5,481.1c-3.1-0.1-6.2-0.8-9.1,0.9c2.5-5.9,8.4-5.3,13.2-6.8c0.7,0.5,1.3,1,2,1.6c0,0.9-0.1,1.8-0.9,2.4
				c-0.6-0.1,0.1-0.1-0.4,0.1c-0.5,0.2-0.4,0.3,0,0.2c2.9-1.2,5.9-0.9,8.8-0.6c1.1,0.1,2.9,0.1,2.3,2.2
				C61.1,483.2,55.8,483.4,50.5,481.1z"/>
			<path class="st34" d="M56.5,507c3.4,2,7.1,0.6,10.6,0.9c2.1,0.2,4.3-0.2,6.7,2.8c-6.6,0-12.5,0.1-18.4-0.1
				c-1.8-0.1-1.9-2-1.9-3.5c0.2-0.2,0.5-0.3,0.8-0.3C55,506.9,55.8,507,56.5,507z"/>
			<path class="st35" d="M274.4,381.9c1.6,0.7,3.2,1.3,4.8,2c-4.9,2.7-9.8,5.4-14.8,8.1c-2.5,0-2.7-1.4-2.1-3.3
				c0.4-0.2,0.8-0.4,1.2-0.6c3.2-1.3,6.6-2.4,8.8-5.4C273,382.4,273.7,382.1,274.4,381.9z"/>
			<path class="st36" d="M62.7,470.9c-1.7,0-3.4,0.1-5.1,0.1c0-5.1-0.8-10.2,0.7-15.2c1,0.2,2,0.4,2.6,1.3
				C63.3,461.5,62.3,466.3,62.7,470.9z"/>
			<path class="st37" d="M557.4,374.8c-0.8-2.9-3.3-1.2-4.9-1.8c0.9-1.5,2.9-0.3,4-1.6c-6.2-1.2-12.2,0.3-18.2,0.6
				c0.8-0.6,1.5-1.7,2.3-1.7c5.4-0.3,10.7-0.6,16.1-0.5c1.2,0,3.4-0.4,3.6,1.7C560.5,373.2,559.1,374.3,557.4,374.8z"/>
			<path class="st38" d="M573.3,445c-2.6-1.5-4.1-3.3-1.7-6c1.2-1.3,0.5-2.8,1-4.1c1.7,4.3,2.3,8.7,1.9,13.3
				C574.1,447.1,573.7,446.1,573.3,445z"/>
			<path class="st39" d="M574.7,468c-3.9,0.6-6.2-0.5-5.4-5c1.7,0,3.5-0.1,5.2-0.1C574.6,464.5,574.6,466.3,574.7,468z"/>
			<path class="st5" d="M60.8,457c-1-0.1-1.8-0.3-2.4-1.2c0-0.3,0.1-0.6,0.3-0.8c1.3,0,2.7,0,4-0.1c3.7-0.4,5.3,1.2,4.7,4.9
				C65.1,459.1,63.3,457.2,60.8,457z"/>
			<path class="st19" d="M272.3,382.6c-1.5,4.2-5,5-8.8,5.4C266.2,385.8,269.2,384.1,272.3,382.6z"/>
			<path class="st40" d="M522.2,373.8c0-0.2,0-0.5,0.1-0.7c4.7-0.1,9.4-0.1,14.2-0.2C531.8,375.2,527,373.6,522.2,373.8z"/>
			<path class="st41" d="M188.4,518.3c0.5-1,1-2.5,2.4-1.7c1.3,0.8,0.5,2.4,0.6,3.6C190.4,519.6,189.4,518.9,188.4,518.3z"/>
			<path class="st42" d="M189.3,497.1c-0.9-2.3-1.9-4.7-2.8-7c-1.4-2.3-0.6-4.1,1.3-5.7c7.5-2.8,15.1-2.3,22.8-1
				c1.5,0.9,2.3,2.4,2.3,4.1c-0.1,3.9,1,7.8,1.2,11.7c-0.5,5.6-1.1,6.3-6.6,6.2c-4.5-0.1-9.3,1.3-13.6-1.5
				C191.5,502,191,499.2,189.3,497.1z"/>
			<path class="st43" d="M132.8,465.1c-3.4,0-6.8-0.1-10.2-0.1c0.2-2.7,2.5-2.9,4.3-3.2c9-1.5,18-2.9,27.1-1.9
				c4.1,1.4,8.8,0,12.6,2.8c0.5,0.9,0.5,1.7-0.2,2.4c-2,0.8-4,0.4-6-0.1C151.1,463.6,142,464.7,132.8,465.1z"/>
			<path class="st44" d="M187.5,484.9c-0.4,1.7-0.7,3.5-1.1,5.2c-2.6,0.2-3.3-1.7-4.1-3.6c-2.6-6.2-6-11.8-11-16.4
				c0.2-0.2,0.3-0.4,0.5-0.6c4.1-1,5.3,2.3,7.2,4.7c0.7,1.2,2,1.7,2.9,2.6C183.9,479.5,184.7,482.9,187.5,484.9z"/>
			<path class="st45" d="M189.3,497.1c2.7,0.5,2,4,4.2,4.9c1.9,3.3,3.3,6.7,3.2,10.5c-0.2,2.1,1.6,3.1,2.8,4.3c0,0.3,0,0.6,0,1
				c-1.8,0.2-3.5,0.2-4.9-1c-2.8-3.9-1.4-8.7-3.1-12.9C190.7,501.7,190,499.4,189.3,497.1z"/>
			<path class="st41" d="M191.5,504.1c2.7,3.9,1.5,8.7,3.1,12.9c-0.1,0.4-0.1,0.7-0.2,1.1C191.6,513.8,191.5,508.9,191.5,504.1z"/>
			<path class="st44" d="M160.3,465.1c2.1,0,4.1-0.1,6.2-0.1c0.2,0,0.5,0,0.7,0.1c1.9,0.7,3.9,1.4,4.7,3.7c0.1,0.5,0,0.9-0.3,1.3
				c0,0-0.2,0.2-0.2,0.2C167.9,468.1,164.2,466.4,160.3,465.1z"/>
			<path class="st46" d="M538.4,375.9c0.7,5.1,5.8,1.8,8,4.1c1.7,0.1,1.6,1.7,2.2,2.8c1.4,3.3,2.7,6.6,4.1,10
				c0.4,1.1,0.8,2.5-1.2,2.1c-1.2-0.2-1.7-1.4-2.3-2.4c-0.9-1.7-1.4-3.9-3.1-4.9c-2.7-1.6-2.3,2.6-4.3,2.8c-0.5,0-1-0.1-1.4-0.3
				c-2.4-6.9-7.6-7.8-14.2-7.6c-14.1,0.4-28.3,0.1-42.4,0.1c-13.1,0-26.2,1.6-39.3,1.1c-4.4-0.2-4.8,0.6-3.6,5.1
				c0.5,1.8,1,3.5,0.9,5.4c-0.4,2.2-1.1,4.2-3.6,1.8c-2.1-1.9-5.4-1.6-7.2-4c-0.8-3.8-3.6-7.5-1-11.6c6.6-0.9,13.2-1.6,19.8-1.7
				c27.8-0.1,55.6,0,83.3-0.1c-3.7-0.5-7.4,0-11-0.2c-1.9-0.1-4.1,0.4-5.6-1.5C523.7,375,531.1,376.7,538.4,375.9z"/>
			<path class="st47" d="M492.5,370c6.1,0,12.1,0,18.2,0c1.8,0.2,1.5,1.2,0.7,2.2c-21.6,0.4-43.2,0.9-64.8,1.3
				c-6.8,0.1-13.6,0.3-20.5,0.5c-1.6,0.1-3.3-0.6-4.8,0.7c-0.3,0.7-0.7,0.7-1.2,0.2c-0.7-1.4-0.8-2.7,0.6-3.8c0.3,0,0.6,0,1,0.1
				c9.4,1.3,18.7-0.6,28.1-0.2c0.2-0.3,0.5-0.6,0.8-0.9C464.5,370,478.5,370,492.5,370z"/>
			<path class="st48" d="M420.4,374.7c0.3,0.1,0.7,0.1,1,0c-1,2-2.9,1.4-4.4,1.3c-6.4-0.5-12.8-0.4-19.2-0.1
				c-17.5,0.7-35.1,0.4-52.6,1.3c-7.6,0.4-15.2,0.8-22.8,0.7c0.5-0.9,0.9-1.8,1.4-2.7c1.5-1.3,3.4-0.7,5.1-1.2
				c3.8-0.1,7.5,0.2,11.3-0.4c20.4-0.3,40.8-1.3,61.2-1.1c3.1,0,6.3-0.2,9.4,0.3C413.8,373.9,417.4,372.8,420.4,374.7z"/>
			<path class="st49" d="M240.5,411c3.3-2,6.6-4.1,9.9-6.1c1-0.4,1.2,0.2,1.3,1c-0.7,2.3-2.5,3.6-4.4,4.9c-0.3,0.2-1.2-0.1-0.8,0.7
				c0.1,0.2,0.9,0.3,1.2,0.6c-0.1,3-2.9,3.8-4.7,5.3c-1.5,1.3-2.9,2.7-4.3,4.1c-2.4,1.1-5,1.6-7,3.2c2.4-0.5,5-1.3,7.6-0.1
				c-0.8,3,0.2,6.3-1.6,9.1c-1.2,1.1-2.7,1.2-4.1,1.6c-3,0.8-5.6,0.8-6.6-3c-0.3-1.3-1.2-1.9-2.6-1.5c-0.9,0.2-1.8,0.1-2.7-0.4
				c-1.7-2.3,0.4-3.2,1.6-4.4c3.5-3.6,7.8-6.2,11.7-9.3c1.4-1.1,3.1-2,3.8-3.8C239.1,412,239.8,411.6,240.5,411z"/>
			<path class="st50" d="M516.4,376.9c5.3,0,10.6,0.1,16,0.1c1.1,0,3.1-0.6,2.1,1.9c-1.3,1-2.9,0.6-4.3,0.6c-27,0-54,0.1-81,0
				c-4.5-1.2-9.1,0.3-13.7-0.1c-2.1-0.2-4.3,0.4-6-1.4c1.7-1.5,3.8-0.9,5.7-0.9C462.3,377,489.3,376.9,516.4,376.9z"/>
			<path class="st51" d="M251.5,406c-0.4-0.4-0.8-0.7-1.2-1.1c4.4-4.9,10.5-7.4,15.8-10.8c9.3-5.9,18.5-12.5,30.1-13
				c9.4-0.4,18.9-0.7,28.3-1c1.1,1.1,3.2-0.5,4.1,1.4c-1,2.1-3,1.9-4.8,1.8c-9.3-0.5-18.5,1.1-27.8,1.1c-8.4-0.1-15.2,4.2-22,8.3
				c-7.3,4.5-14.3,9.6-21.9,13.6C252,406.2,251.8,406.1,251.5,406z"/>
			<path class="st52" d="M331.4,379.9c0.9-0.3,1.9-0.8,2.8-0.8c20.5,0,40.9-1.9,61.4-1c4.2,1,8.4,0.2,12.6,0.5
				c1.1,0.1,2.9-0.5,2.1,1.8c-2.1,1.5-4.5,1-6.7,1c-15.1,0-30.1,0-45.2,0c-2.8,0-5.6,0-8.3,1c-3.9-1.5-8.1-0.8-12.1-1
				C335.6,381.3,333.2,381.9,331.4,379.9z"/>
			<path class="st53" d="M213.5,428c5.2-4.2,10.3-8.5,16-12c0.7,0.4,1.4,0.7,2.2,1.1c0.2,2.4-1.6,3.6-3.2,4.6
				c-3.3,2.2-6.3,4.8-9.3,7.3c-1.5,1-2.7,2.4-4.2,3.3c-5.9,2.2-11.9,3-18.1,1.1c-0.8-3,1.7-2.5,3.1-2.7c2.9-0.3,5.9-0.1,8.8-0.5
				C210.4,430.2,212.8,430.6,213.5,428z"/>
			<path class="st54" d="M410.5,380c-2.8-1.9-6-0.5-8.9-1c-2-0.3-4.2,0.8-6-0.9c11.3,0,22.6-0.1,33.9-0.1c6.3,0.6,12.8-1.1,19.1,1
				c-4.8,1.1-9.7,1-14.6,1.1c-1.8,0-3.7-0.5-5.1,1.1c-0.5,0.4-1,0.6-1.6,0.6c-3.6-0.5-7.3-0.3-11-0.4
				C414.2,381.3,412.1,381.7,410.5,380z"/>
			<path class="st55" d="M218.5,428c3.9-4.2,9.6-6.2,13.1-10.9c0.3,0,0.6-0.1,0.8-0.2c2.4-1.1,3.8-4.1,6.9-4.1c0.8,2.7-1.7,3-3,4.1
				c-5,4.4-11.2,7.3-15,13C219.4,430.9,218.4,430.2,218.5,428z"/>
			<path class="st56" d="M331.4,379.9c4.7,0,9.5,0,14.2,0.1c1.7,0,3.8-0.5,4.2,2.1c0.8,0.9,0.9,2,0.8,3.1c-1.1,3.8-0.7,8-3.6,11.2
				c-0.5,0.1-1,0.1-1.5-0.1c-1.2-1.4-0.4-2.9-0.4-4.4c-0.2-3.1,3.1-6.3-0.2-9.4c-3.8-0.2-7.6,0-11.4-0.1c-1.8,0-3.7,0.1-5.1-1.3
				c-1.3-0.3-2.9,0.4-3.9-1C326.9,380,329.1,380,331.4,379.9z"/>
			<path class="st57" d="M511.4,372.2c0.3-0.9,0-1.6-0.7-2.2c3.4-0.7,5.9,0.3,6.8,3.9C515.2,374,512.9,374.5,511.4,372.2z"/>
			<path class="st53" d="M239.4,412.8c-2.6,0.9-4,3.7-6.9,4.1c2-2.9,4.6-4.9,8-5.9C240.1,411.6,239.8,412.2,239.4,412.8z"/>
			<path class="st58" d="M166.5,465c0-0.7,0-1.3,0-2c-1.4-4.4-5.5-5.5-9-6.1c-11.3-2-22.8-2.5-33.7,1.8c-3.9,1.5-8,3.8-7.3,9.4
				c-1.9,2.8-3.3,6.1-7,7c-2.1-4,0.1-7.4,1.9-10.7c1.8-3.2,1.4-5-2.7-5.8c-6.6-1.3-12.8,0.7-19.2,1c-6.8,0.4-13.5,1.2-20,3.2
				c-0.5,0.1-1.2-0.4-1.8-0.7c-0.2-0.2-0.3-0.4-0.2-0.7c0.1-0.2,0.2-0.3,0.3-0.3c1.9-7.1,8.3-4.7,13-5.9c3.2-0.8,6.7-0.6,9.9-2.1
				c6-2.7,12.6-2.4,18.9-3.3c16.8-2.5,33.8-4,50.8-5.9c8.1-0.9,16.2-1.3,24.2-2.1c2-0.2,4-0.3,5.9,0.5c2.4,2.2,0.2,2.9-1.3,2.9
				c-7.3,0-13.9,2.9-20.8,4.2c-1.4,0.3-3.3,0.1-3.7,1.8c-0.4,1.5,1.4,2.1,2.2,3c2.7,3,6.4,5.4,5.8,10.3
				C170.7,466.1,168.7,466.4,166.5,465L166.5,465z"/>
			<path class="st59" d="M67.7,461c-0.2,0.3-0.2,0.6-0.1,1c0,1.3-0.3,2.7-0.1,4c0.7,4-0.9,5.6-4.8,5c-3-4.3-0.7-9.3-1.9-13.9
				c3.5-2,5.5-0.5,6.7,2.8C67.5,460.3,67.6,460.7,67.7,461z"/>
			<path class="st60" d="M71.5,476.8c11,0.9,22-0.5,33,1.2c3.1,0.5,3.7,1.6,2.2,4.2c-3.2-0.8-6.5-0.6-9.7-1.2
				c-7.3-1.1-14.7-0.2-22-0.5c-2.6-0.2-5.3,0.4-7.8-0.8c-1.7-1.1-0.5-1.8,0.4-2.6C68.8,476.9,70.2,476.8,71.5,476.8z"/>
			<path class="st61" d="M67.5,477c-0.3,0.6-0.7,1.2-1,1.9c-3.6,0.9-7.2,1-10.8,0c-0.1-0.8,0.1-1.5,0.8-2
				C60.2,476.9,63.8,477,67.5,477z"/>
			<path class="st62" d="M199.5,516.9c-2.9,0.2-4.2-1.1-4-4c0.7-3,2.9-4.2,5.7-4.8c2.3-0.5,4.6-0.5,7-0.5c20,0,40-0.2,59.9,0
				c49.3,0.6,98.5-1.7,147.8-1c2.6,0,5.4-0.7,7.7,1.4c0,2.3,0,4.6,0.1,6.9c-4.4,0-8.7,0.1-13.1,0.1c-8-0.2-15.9-1.2-23.8-1.1
				c-25.4,0.2-50.8-0.4-76.1,0.3c-15.6,0.4-31.3,0-46.8,1.1c-13,0.9-25.9,0.6-38.9,0.6C216.4,515.9,208,517.3,199.5,516.9z"/>
			<path class="st63" d="M213.5,428c1.5,3.1-1.1,2.5-2.6,3c-4.7,1.6-9.8,0-14.4,2c-4.1,2.5-8.8,2.6-13.3,3.4
				c-8.7-0.6-17,1.9-25.6,2.6c-2.1,0.2-4.3,0.8-6.1-0.9c4.6-4.6,10.8-1.8,16.1-3.8c-4.4-1.6-8.9-2.1-13.4-0.4
				c-1.4,0.5-2.8,1.4-4.2,1c-9.2-2.2-18.4,1.6-27.6,0c1.2-1.5,3.1-1.4,4.6-1.6c12.7-1.9,25.4-3.6,38.1-5.4c3.4-0.5,6.5,0.8,9.8,0.9
				c5.8,0.1,11.3-0.3,16.9-1.9c2.8-0.5,5.5-0.1,8.2,0.4c2.6,1.3,5.9,0.8,8.4,2.5C210.1,429.2,211.8,428.6,213.5,428z"/>
			<path class="st64" d="M151.5,438.1c10.7-0.3,21.2-3.5,32-3.1c-0.4,2.8-2.9,2.3-4.6,2.5c-13.6,1.7-27,4.3-40.7,5.9
				c1.1,0.5,2.6-0.5,3.4,0.9c-3.2,3.5-7.7,2.5-11.5,2.8c-7.2,0.6-14.4,2-21.6,2.8c-2.1,0.2-4.3,1-6.1-0.9c1-3.7,5.1-1.8,7-4
				c12.7-2,25.5-4,38.2-6C149,438.8,150.2,438.4,151.5,438.1z"/>
			<path class="st65" d="M509.2,490c-1.2-0.7-2.5-1.4-3.7-2.1c-2.5-5.4-5.7-10.4-9.3-15.1c-3.8-5.1-9.8-6-15.6-7.1
				c2.5-3.5,6-2.1,8.9-1.4c3.8,1,7.3,3,9.2,6.8c0.6,1.3,1.6,2.1,2.8,2.9c0.3,0.1,0.8,0.1,0.9,0.3c5.4,8.5,13.6,6.3,21.4,5.7
				c4.9-0.4,9.9-1.6,14.6,1c15,0.8,30-1.3,45-0.9c-5.4,6.6-13,8.6-20.9,9.9c-1,0.2-2.3,0.1-2.2,1.4c0.1,1,1.4,0.5,2.1,0.7
				c-0.3,2.3-2.2,2.2-3.8,2.3c-13.1,0.4-26.1,1.5-39.2,2.1c-3.7,0.2-6.5-0.8-8-4.4C510.8,491.3,510,490.7,509.2,490z"/>
			<path class="st66" d="M423.5,508c-4.3,0-8.7,0-13,0c-68.1,0.3-136.2,1.5-204.3,1c-4,0-8,0.1-10.7,3.9c0.3-3.8-1.6-7.2-2-10.9
				c5.6,3.9,11.8,1.6,17.7,1.6c2.2,0,0.9-3.1,1.4-4.7c0.5-0.3,0.9-0.4,1.5-0.3c1.6,0.9,1.4,2.8,2.2,4.1c1.8,1.3,3.9,0.8,5.8,0.8
				c15,0,29.9,0,44.9,0.1c2.3,0,4.7-0.5,6.6,1.4c-0.7,2.5-2.7,1.3-4.2,1.4c-21.6,0.6-43.3,0.7-61.9,0.5c18.9,0.3,41,0.5,62.9-0.7
				c21.1-1.1,42.2-0.8,63.3-0.6c23.5,0.2,46.9,0,70.4,0.3c2,0,4,0.2,6-0.3c3.8-0.4,7.5-0.1,10.7-0.2c-8.6-0.3-17.7,0.9-26.9,0.5
				c-16.4,0-32.9,0-49.3,0c-2,0-4,0.3-5.9-0.5c-0.6-0.5-0.7-1-0.3-1.7c1.9-1.5,4.1-1.1,6.2-1.1c9.8-0.1,19.6,0,29.3,0
				c13.1,0,26.2,0,39.3,0c2.5,0,5,0,6.6-2.4c2.8-1.1,2.8,1.9,4.2,2.8C424.5,504.7,424.4,506.4,423.5,508z"/>
			<path class="st67" d="M498.8,471.1c-3-0.4-4.3-3.2-6.9-4.5c-3.9-1.9-7.4-2-11.3-1c-12.9-1-25.7-0.4-38.2,3.3
				c-2.9,1.1-2.9-1.8-3.2-3c-0.7-2.3,1.1-3.9,3.1-5.1c2.6-0.9,5-2.9,8-1.3c1,2.3,3,2.1,5,2.1c6.1,0,12.1-1.5,18.3-1.2
				c4.1,0.2,8.3-0.1,12.6,1.7c0.1,0.1,0.3-0.9-0.1-0.4c-0.1,0.1-0.2,0-0.5-0.2c-0.8-0.4-1.4-0.9-0.9-1.9c4.8-1.5,14.8,3,16.3,7.4
				c0.4,1,0.2,1.9-0.5,2.8C499.9,470.4,499.3,470.7,498.8,471.1z"/>
			<path class="st68" d="M442.5,462c-3.2,2.3-3.7,4.6-0.1,7c-2.3,1.8-4.5,3.5-6.8,5.3c-3,1.1-3.6,4-5.1,6.3
				c-1.3,1.9-2.1,4.8-5.5,3.2c-1.5-3.6,1.5-6,2.2-9c3.7-5.7,6.9-11.9,14.1-14.2C442.2,460.7,442.7,461,442.5,462z"/>
			<path class="st69" d="M425.4,483.9c2.8-0.8,4-3,5.2-5.4c1-2.1,1.9-4.6,5.1-4.2c-6.4,8.5-8.3,18.9-11.3,28.7
				c-2.3,0.2-2.9-1.1-2.9-3.1C419.7,495.3,421.8,486.9,425.4,483.9z"/>
			<path class="st70" d="M500.5,470c-1-5-8.8-9.9-16-10c-0.2,0-0.5,0-0.7-0.1c-1.1-0.6-2.4-1.3-0.7-2.6c4.8-1.1,8.7,1.3,12.7,3.2
				c1.9,0.9,3.7,2.2,5.5,3.4c3.4,2.2,6.4,2.2,9.5-0.6c2.4-2.2,5.2-3.5,8.6-3.5c3.5,0,5.7-1.4,5.9-5.2c0.2-3.3,2.6-5.1,5.4-5.8
				c5.2-1.3,8.9-5.1,13.3-7.7c1.7-1,2.9-2.4,1.8-4.5c-1-1.8-1.8-4.1-4.8-3.4c-2.1,0.5-4.5,1-4.5-2.5c2-1.7,4.5-1.9,7-2
				c1.8-0.1,3.7,0.3,4.9-1.5c1.1-1.7,0.7-3.5,0.8-5.3c0.1-2.1,0.7-3.8,2.1-5.4c3.3-3.6,4.9-3.5,7.3,0.7c0.5,0.9,1.1,1.7,1.5,2.6
				c1,4.4,1.7,8.9,3.2,13.2c1.5,8.1,1.3,16.2,1.4,24.4c0,2.3-0.4,4.8,2.7,5.7c0,1,0,2,0,3c-1,1.8-2.8,1.4-4.4,1.4
				c-12.9-0.2-25.7,1.7-38.6,1c-0.7,0-1.3,0.1-1.9,0.5C515.2,469.3,507.8,469.6,500.5,470z"/>
			<path class="st71" d="M559.5,420c-0.5-0.4-1-0.8-1.5-1.2c-1.3-1.1-0.9-4.5-2.8-3.7c-2.3,1-4.7,2.9-4.8,6.3c0,2.2,0.9,4.6-0.8,6.7
				c-0.7,0.6-1.5,0.6-2.3,0.1c-0.2-7.3-2.7-14.3-2.8-21.7c0.6-1.8,0.5-3.6,1-5.4c0.5-2,1.3-4,3.5-4.4c2.3-0.5,3.6,1.3,4.9,2.8
				c0.6,0.8,0.9,1.8,1.5,2.6c0.7,1,1.4,2,2.1,3c0.3,1.7,0.7,3.3,1,5C557.6,413.4,561.3,416.5,559.5,420z"/>
			<path class="st72" d="M559.5,420c0.7-3.5-3.7-6.4-0.9-10.1c2.7,7.4,4.1,15.1,4.8,23C560.8,429,559.8,424.6,559.5,420z"/>
			<path class="st73" d="M538.5,481c-7.8,0.3-15.6,0-23.2,1c-7.1,0.9-11.3-1.7-13.7-8c-0.2-2.6,1.3-2.9,3.5-2.9
				c25.3,0,50.5,0,75.8,0c2.8,0,3.9,0.9,3.8,3.7c-0.1,2.9-1.1,4.2-4.1,4.3c-12.3,0.3-24.5,0.6-36.8,1
				C541.9,480.1,540,479.4,538.5,481z"/>
			<path class="st39" d="M522.5,469c1.5-1.5,3.5-0.9,5.2-0.9c12-0.4,23.9-0.7,35.9-1.1c1.3,0,2.6-0.6,3.8-0.9
				c-0.2,1.8-1.6,1.9-2.9,1.9C550.5,468.2,536.5,469.5,522.5,469z"/>
			<path class="st74" d="M547.5,502c0,0.3,0,0.6,0,1c-10.3,1.1-20.6,2.6-31.1,2.1c-0.4-0.7-0.5-1.6-0.8-2.4c-1.7-5.7-1-6.4,5-6.8
				c11.2-0.8,22.4-1.2,33.6-2.2c2.8-0.2,5.6-0.7,8.3,0.2c-0.2,1.9,1.7,2.7,3.5,4.9c-8-1.1-14.3,3.1-21.5,2
				C545.2,502.6,546.5,501.7,547.5,502z"/>
			<path class="st75" d="M562.5,494c-14.8,1-29.6,2-44.3,3c-2.3,0.1-2.8,1.3-2.6,3.2c0.2,1.6,0.5,3.2,0.8,4.8
				c-2.7-4-2.8-8.9-4.8-13.1c4.1,5,9.8,3.1,14.7,2.8c10.7-0.7,21.4-1.7,32.1-1.8c1.4,0,3,0.4,4.2-1c3.6,0,7.3,0,11.5,0
				C570,494.4,566.2,493.9,562.5,494z"/>
			<path class="st76" d="M555.4,402c-7-5.6-7-5.6-9.2,3.1c-0.1,0.4-0.6,0.7-1,1.1c-3.7-4.7-4.6-10.2-4.1-16c1.3-0.6,1.4-1.8,1.4-3
				c0-1.4,0.8-2.1,2.2-2.1c1.2,0,2.3,0.1,2.8,1.5c0.9,2.3,2.5,4.2,3.3,6.6c0.7,2.1,1.5,1.1,1.8-0.4C554,395.7,556,398.5,555.4,402z"
				/>
			<path class="st77" d="M548.5,382.8c-0.7-0.9-1.5-1.8-2.2-2.8c0.4-1.1-1.8-2.7,0.5-3.2c2.4-0.6,4.2,0.4,4.9,2.9
				C551.2,381.4,549.5,381.7,548.5,382.8z"/>
			<path class="st78" d="M97.4,479.9c3,1.2,7-1.9,9.3,2.2c-0.8,1.6-1.5,3.3-2.3,4.9c-17.8,0-35.6,0-53.4,0c-1.3,0-2.7,0-4-0.1
				c-1.5-0.2-2.4-1.1-2.4-2.7c-0.1-1.9,1.2-2.1,2.6-2.2c1.1,0,2.4,0.1,3.2-0.9c5.4-0.8,10.9,0.3,16.2-1c2.6-1.3,5.4-0.3,8.2-0.6
				C82.4,479.7,89.9,479,97.4,479.9z"/>
			<path class="st79" d="M154.5,461c-8.9-0.2-17.7,0.7-26.5,2c-1.9,0.3-3.9,0.6-5.4,2c-0.7,0-1.3,0-2,0c-1.9-2.7-0.8-4.8,1.7-6.1
				c1.8-1,3.8-2.1,5.9-2.4c9.5-1.3,19-1.9,28.6-0.3c0.8,0.1,1.5,0.6,2.2,1.1c1.1,0.7,2.3,1.5,1.9,3.1c-0.4,1.6-1.8,1.1-2.9,1.1
				C156.7,461.5,155.6,461.7,154.5,461z"/>
			<path class="st80" d="M154.5,461c1.8-0.4,5.1,1,5.2-1.1c0.2-2.7-3.1-2.5-5.3-3c-8.4-2.1-16.8-0.2-25.2,0.1
				c-5.4,0.2-8.4,3.2-8.7,8c-0.8,1.8-2.6,2.1-4,3c-3.1-1.1-2.6-3.1-0.9-4.9c3.9-4.4,8.8-7.2,14.5-7.9c8.7-1.2,17.4-1.3,26.1-0.1
				c2.7,0.4,5.5,1.2,7.9,2.5c1.9,1,4.3,2.5,2.4,5.4C162.5,462.4,158.4,462.5,154.5,461z"/>
			<path class="st81" d="M208.4,429.9c-3.3,0.6-6.2-0.3-9.1-1.7c-0.1-1-0.6-2.1,0.1-3.1c1.6-0.7,3.2-1.4,4.8-2.2
				c1.6,1.8-1.7,2.2-0.8,3.7C205,427.9,208.9,425.4,208.4,429.9z"/>
			<path class="st82" d="M199.5,425.1c0.6,1,1.5,2.1-0.1,3.1c-2.6,0.3-5-0.7-7.5-1.2c0.1-0.9,0.8-1.1,1.5-1.3
				C195.5,426.7,197.4,424.5,199.5,425.1z"/>
			<path class="st83" d="M420.4,374.7c-3.1,0.4-6.2,1.2-9.1-0.6c-1.4-2.1-3.7-1.6-5.7-1.7c-1.9-0.2-3.9,0.2-5.7-0.8
				c-0.5-0.4-0.5-0.8-0.1-1.3c5.4-0.1,10.9-0.2,16.3-0.2c1.6,0,3.3-0.5,4.6,1C420.6,372.3,420.5,373.5,420.4,374.7z"/>
			<path class="st84" d="M399.7,370.2c-0.1,0.3-0.2,0.6-0.3,1c-0.8,2.7-3.2,1.5-4.9,1.7c-1.8,0.2-3.6,0-5.3,0
				c-5.6-0.6-11.3,1.2-16.7-1c0-0.3,0-0.6,0-1C381.6,371.1,390.6,369.2,399.7,370.2z"/>
			<path class="st85" d="M450.5,371c0.2,0,0.3,0,0.5,0.1c0.6,0.3,0.6,0.8,0,0.8c-5.9,0.1-11.9,0.2-17.8,0c-3.9-0.1-7.8,1-11.6-0.8
				c4.6-0.1,9.2-0.1,13.9-0.2C440.5,370.3,445.5,370.2,450.5,371z"/>
			<path class="st27" d="M450.5,371c-5,0-10,0-15,0c4.9-2.1,10-0.4,15-0.9C450.5,370.3,450.5,370.7,450.5,371z"/>
			<path class="st86" d="M102.5,449c10.1-0.2,19.8-3,29.9-3.6c3-0.2,6.3,0.8,9.1-1.3c0.6-0.7,1.4-1,2.3-1.2
				c3.7-0.4,7.6,0.3,11.2-0.9c12.4-2.2,25.1-2.3,37.6-3.3c5.1-0.4,10.2-1.6,15.4-1c2,0.2,4.6-0.3,4.8,3c-4,3.4-9.1,1.4-13.6,2.7
				c-2.1,0.6-4.6,0.3-6.9,0c-0.3-0.1-0.6-0.1-0.9-0.2c-14.4,0.4-28.7,2-42.9,3.8c-12.9,1.6-25.9,2.9-38.9,4.3
				c-6.4,0.7-12.8,1.3-19.2,2c-1.4-1.6,0-1.6,1.1-2.1C95.1,449.4,99.1,450.9,102.5,449z"/>
			<path class="st87" d="M389.4,372.1c3.3-0.6,6.8,0.9,10-0.8c2.9-0.1,5.8-0.2,8.7-0.3c2.1-0.1,3.5,0.7,3.1,3.2
				c-23.9-0.3-47.9,0.2-71.8,0.8c-3.9-0.5-7.9-1-11.8,0.2c-1.3,1.2-2.6-0.2-3.9,0.1c1.9-3.4,5.2-2,7.9-2.3c1.9-0.2,3.9-0.1,5.9-0.1
				c3.3-1,6.8,0.3,10.1-0.8c6.3,0,12.7,0,19,0.1C374.2,372.7,381.8,372.8,389.4,372.1z"/>
			<path class="st88" d="M389.4,372.1c-7.6,1.6-15.2,1.4-22.8,0.1c1.9-0.1,3.9-0.1,5.8-0.2C378.1,372,383.8,372,389.4,372.1z"/>
			<path class="st84" d="M347.6,372.1c-3.2,1.7-6.7,0.6-10.1,0.8C340.8,371.1,344.3,372.3,347.6,372.1z"/>
			<path class="st89" d="M74.5,480.1c-2.6,0-5.2,0.1-7.8,0.1c-5,0-10.1,0-15.7,0c1.8-1.7,3.4-0.9,4.8-1.3c3.6,0,7.2,0,10.8,0
				c2.6,0.1,5.3,0.2,7.9,0.3c0.4,0.2,0.5,0.3,0.4,0.5C74.7,480,74.6,480.1,74.5,480.1z"/>
			<path class="st90" d="M187.5,484.9c-4.8-0.4-4.7-4.5-5.9-7.7c0.5-0.9,1.4-1.2,2.3-1.4c8.9,0.2,17.7-0.9,26.6-1
				c9.1,1.3,18.2,1.3,27.4,0c1.1-0.3,2.3-0.3,3.5-0.3c22.3,0,44.6-1.1,66.9-1.2c8.9,0,17.9-0.9,26.9-0.8c7.5-0.2,15,0.8,22.5-0.7
				c4-0.7,7.9-0.4,11.9-0.4c16.8,0.2,33.5-1.6,50.2-1c2,0.1,4-0.1,5.9,0.6c1.6,0.7,2.5,1.9,2.1,3.8c-1.2,4.4-4.1,6.1-8.6,5.6
				c-2.5-0.3-5,0-7.4,0.8c-1.5,0.3-3,0.4-4.5,0.4c-20.8-0.2-41.6,1.7-62.4,1c-2.7-0.1-5.3,0.2-8,0.6c-0.6,0.1-1.3,0.2-1.9,0.2
				c-39.3,0.2-78.6,2.1-118,2c-2.2,0.1-4.4-0.1-6.5-1.1C202.9,483.7,195.2,484.1,187.5,484.9z"/>
			<path class="st91" d="M210.6,484.3c1.9,0,3.8-0.1,5.7-0.1c0.2,2-3.1,1.9-2.4,4.2c-0.1,3.5,2.2,7.2-0.4,10.6c-0.3,0-0.6,0-0.9-0.1
				C211.9,494.1,211.3,489.2,210.6,484.3z"/>
			<path class="st92" d="M172.5,464c-2.1-4-4.3-7.8-8.3-10.2c-1.1-0.7-2.5-1.4-2.2-3c0.3-1.9,2.3-2.5,3.8-2.7
				c8.2-0.6,15.7-5.3,24.1-4.3c0.5,0.1,1.1-0.6,1.7-0.9c0,0,0,0,0,0c6.5-0.1,12.9-1.8,19.4-0.7c0.9,8.1-0.2,16-3.2,23.6
				c-0.7,1.7-2.2,2.9-4,3.4c-0.5,0.1-1,0-1.4-0.4c-1.8-3.8-4.6-1.3-7-1c-0.5,0.1-1,0.2-1.4,0.3c-4.5,0.1-8.6,0.4-10.4,5.6
				c-0.8,2.3-2.7,2.7-4.8,1.2c-2.1-2-3.2-5.3-7-5c0-0.3,0-0.7,0-1C170.4,467,171.3,465.5,172.5,464z"/>
			<path class="st93" d="M178.5,475c1.4-0.2,3.5,0.6,3.8-1.4c1-6.9,6-6.7,11-6.6c0.5,0,1,0,1.5,0.1c1.7,4.2,4.8,2.7,7.7,1.9
				c6.2-2.9,5.6-9.1,6.9-14.3c0.9-3.8,0.8-7.8,1.2-11.6c0.9-0.6,1.7-0.4,2.4,0.4c1,1.8,0.3,3.6,0,5.3c-1.2,6.9-1,13.8-1,20.8
				c0,1.8,0.2,3.7-0.9,5.3c-7.1,1.4-14.3,1.1-21.6,1.2c-1.9,0-4-0.6-5.8,0.6c-0.7,0.2-1.3,0.4-2,0.5
				C180.3,476.9,178.6,477.1,178.5,475z"/>
			<path class="st43" d="M172.5,464c-0.3,1.7-0.6,3.3-1,5c-1.1-2-4.1-1.7-5-4C168.6,465.3,170.5,464.3,172.5,464z"/>
			<path class="st94" d="M541.1,390.1c1.4,5.3,2.7,10.7,4.1,16c1,5.2,2,10.4,3.1,15.6c0.4,2.1,0.7,4.3-0.6,6.2
				c-1.6,1.5-3.5,0.8-5.3,1c-2.5-0.1-4.9,0.6-7.4,0.4c-1.8-0.2-3.8,0.1-4.6-2.1c0.3-0.4,0.7-0.7,1-1c0.4-0.4-0.3-0.2-0.3-0.2
				c-19.6,2.5-39.4,0.4-59.1,2.2c-4.9,0.5-10,0-14.9,0.1c-2,0-4-0.2-5.8,0.8c-0.5,0.2-1.1,0.2-1.6,0.1c-2.1-1.5-2-3.9-2.5-6.1
				c-1-4.6-2-9.2-3.6-13.7c-2.2-4.7-2.5-9.7-2.8-14.8c-0.1-3.4-1.6-6.4-2.7-9.6c-0.9-2.7,0-3.6,2.7-3.6c31.1,0,62.2-0.2,93.2-0.2
				c3.2,0,5.4,1,5.6,4.8C539.6,387.5,540.6,388.8,541.1,390.1z"/>
			<path class="st95" d="M428.7,380.9c0.3-2.7,2.4-1.8,3.8-1.8c5.3-0.1,10.7-0.1,16-0.1c28.7,0,57.3,0,86,0c0.6,0.1,1.3,0.2,1.9,0.3
				c-35.6,1.4-71.3-0.2-106.9,1.8C429.2,381.3,428.9,381.3,428.7,380.9z"/>
			<path class="st96" d="M440.6,394.7c2.7,4.4,1.7,9.7,4,14.2c0.5,1.5,0,3.3-1.4,1.6c-2-2.4-4.6-2.1-6.9-3.1
				c-2.9-3.6-3.3-8.3-4.8-12.4c-0.3-1-0.6-1.9-0.1-2.9c2.8,1.2,6.8,0.1,8.4,4.1C440,396.3,440.4,395.2,440.6,394.7z"/>
			<path class="st97" d="M431.5,392c0.3,0.7,0.6,1.4,1,2.1c-0.4,2.2,0.9,4.1,0.8,6.3c-0.3,1.4-0.6,3.5-2.1,3.5
				c-2.5-0.1-2.4-3.1-3.7-4.6c-2-4.9-4.3-9.8-3.8-15.3c1-1.2,3-1.2,3.6-2.9c0.4-0.1,0.9-0.1,1.3-0.2c0.3,0,0.5,0.1,0.8,0.1
				C430.2,384.7,431.9,388.1,431.5,392z"/>
			<path class="st98" d="M327.7,375.1c3.9-2,7.8-1.5,11.8-0.2C335.5,375,331.6,375.1,327.7,375.1z"/>
			<path class="st99" d="M238.8,420.9c-0.9-2.9,2-3,3.2-4.2c1.8-1.7,3.9-3.1,5.8-4.6c0.6-4.3,5.7-4,7.5-7.1
				c9.8-7.3,20.3-13.5,31.3-18.9c4.1-2,8.7-1.5,13.1-2.1c12-0.2,23.9-1.4,35.9-1.4c6.8,0,7.9,2,4.6,8.2c-1.9,1.3-4.1,0.2-6.2,0.6
				c-13.8-0.3-27.4,1.1-40.9,3.6c-1.4-0.1-2.9-0.3-3-2c-0.1-1.8,1.5-2.6,2.9-2.9c4.2-0.8,8.4-1.9,11.6-1.7
				c-4.6,0.1-10.2,1.1-15.7,2.7c-2.5,0.7-4.6,2-5.1,4.8c-0.2,1.5-0.1,3.1-0.6,4.6c-3.1,4.8-8.4,6.9-12.8,10
				c-3.1,2.2-6.2,4.4-9.3,6.7c-1.8,1.7-3,3.6-1.6,6.1c1.4,2.7,3,5.3,6.6,5.2c7.6-0.2,15.2,0.2,22.8-0.6c9.4-1,18.9-0.2,28.3-0.3
				c3,0,6,0,8.6-1.6c3.1-3.2,2.4-8.4,5.9-11.4c1.9-0.3,2.5,0.9,2.8,2.4c-0.7,5.2-0.3,10.7-4.6,14.7c-8.7,2.1-17.6,1.6-26.5,1.6
				c-3.1,0-6.3-0.4-9.3,0.7c-14.6,0-29.2,1.6-43.9,1.4c-0.5,0-1,0-1.5-0.1c-6.8-0.3-6.8-0.3-6.8-7c0-1.2,0-2.3-0.1-3.4
				c-0.2-0.7-0.6-1.2-1-1.7C240.2,422.4,239.1,422,238.8,420.9z"/>
			<path class="st100" d="M242.6,423c1.4,1.3,1.2,3.1,0.9,4.6c-1,5.2,0.9,7.3,6.1,6.5c-0.4,2.3-2.3,1.9-3.8,2.1
				c-1.9,0.2-3.9,0-5.6,1.2c-0.5,0.2-0.9,0.4-1.4,0.5c-0.7,0.2-1.5,0.3-2.2,0.3c-2.7,0.2-5,2.3-7.9,1.8c-0.8-0.1-1.6-0.2-2.3-0.5
				c-1-0.5-2-1.1-2.5-2.2c-0.8-2.6-1-5.1,0.6-7.5c1-1.2,2.9-3.2,3.2-0.6c1,8.7,6.1,4.1,10,3.6c2.3-1.1,3.5-2.8,3.6-5.4
				C241.2,426,241.1,424.2,242.6,423z"/>
			<path class="st101" d="M224.3,430c0.1,2.6,0.2,5.2,0.4,7.8c-2.1,2.2-4.6,1.6-7.1,1.1c-3.3-1.7-1.6-4.8-2-7.3
				c-0.1-0.2-0.1-0.5-0.1-0.7c0.8-1.3,1.7-2.4,3.1-2.9c0.5,1.3,1.5,2,2.9,2C222.4,430,223.3,430,224.3,430z"/>
			<path class="st102" d="M242.6,423c0,1.5-0.3,3-0.1,4.4c0.6,4-0.7,6-5,5.6c1.1-2.6-2.5-6.3,1.9-8c0.5-1.1,1-2.2,2.2-2.8
				C242,422.5,242.3,422.8,242.6,423z"/>
			<path class="st103" d="M241.6,422.2c-0.2,1.4-0.3,2.7-2.2,2.8c-1,0-2,0-3,0.1c-1.8,0.1-4.7,1.8-5.1-0.7c-0.3-2.1,2.7-2.8,4.9-3.3
				c0.8-0.2,1.6-0.1,2.5-0.2C240,420.8,240.9,421.3,241.6,422.2z"/>
			<path class="st104" d="M255.8,406.1c-2,2.8-5.8,3.3-7.9,6c-1.2,0.2-2.4,0.3-4.6,0.6c3.2-2.6,5.8-4.7,8.3-6.7c0,0,0.1,0.1,0.1,0.1
				C253,406.7,254.4,404.2,255.8,406.1z"/>
			<path class="st105" d="M255.8,406.1c-1.4-0.7-2.8,1.6-4.2,0c10.6-7.7,21.4-15.1,33.2-20.8c3.5-1.7,7.2-2.3,11.1-2.3
				c10,0,19.9-1.6,29.9-1c1,0.1,2-0.1,2.7-0.9c6.3,0,12.6,0.1,18.9,0.1c-0.9,3.3-3.3,2.7-5.9,2.6c-14.4-0.9-28.7,0.1-43,1.3
				C281.4,386.3,269.4,397.8,255.8,406.1z"/>
			<path class="st106" d="M427.4,381.1c-0.2,1.8-0.2,4-3,2c-0.3-0.1-0.6-0.2-0.9-0.2c-1.9-0.6-3.9-0.5-5.9-0.5
				c-18.6,0-37.2,0-55.8-0.1c-3.3,0-6.2,0.5-8.6,2.9c-1.2,0.6-2.4,0.7-3.4-0.4c0-0.9,0.1-1.9,0.2-2.8c1.2-2.4,3.5-2,5.6-2
				c18.4,0,36.7,0,55.1,0C416.1,380.6,421.9,378.8,427.4,381.1z"/>
			<path class="st107" d="M143.5,444c-0.7,0-1.3,0-2,0c-1.6,0-3.3,0-4.9,0c14.3-4.5,29.1-6.1,43.7-8c1.1-0.1,2.4,0.1,3.1-1.1
				c4.3-0.6,8.7-1.3,13-1.9c6.4,0,12.8,0.5,18.9-2.1c0,0,0.4,0.3,0.4,0.3c0.8,2.7-1,5.1-1.1,7.6c-0.2,1-0.5,1.9-1.5,2.4
				c-0.2-0.1-0.5-0.1-0.7-0.2c-0.2-2.6-2.2-2.1-3.7-2c-12.6,0.9-25.3,1.8-37.9,2.7c-5.4,0.4-10.8,0.8-16.3,1.3
				C150.9,444.3,147.1,442.6,143.5,444z"/>
			<path class="st108" d="M298.5,385.1c0.8-1.2,2-1,3.1-1.1c13.1-0.9,26.2-1.2,39.3-1c2.3,0,4.7,0.1,6.5-1.8c1.2,3.7-0.7,7.2-1,10.8
				c-2,2.5-4.5,4.4-5.2,7.9c-0.5,2.4-2.5,2.1-4,0.2c-0.3-3.3,0.4-6.3,2.3-9c0.3-0.9,0.6-1.9,0.9-2.8c1-3.3,0.2-4.7-3.6-4.5
				C324,384.4,311.3,384.7,298.5,385.1z"/>
			<path class="st109" d="M337.7,400.1c1.2,0.6,2.9,1.2,2.7-0.9c-0.4-4.6,2.1-6.3,6-7.2c-0.2,1.4-0.5,2.7-0.7,4.1
				c1.3,5.8-0.6,11-2.8,16.2c-2.1,1.3-4.2,2.1-6.6,0.9c-1.2-1.5-1-3.3-1.1-5C335.3,405.2,335,402.1,337.7,400.1z"/>
			<path class="st110" d="M349.7,384.9c0.9,0.1,1.9,0.1,2.8,0.2c2.8,4.9,1,9.9,0.4,14.9c-1,2.3-5.6,5.4-7.9,5.4
				c-0.2-3.3,0.5-6.3,1.7-9.3C347.6,392.3,348.6,388.6,349.7,384.9z"/>
			<path class="st111" d="M346.6,396c0,3.4-1.7,6.6-1.1,10c1,4.4-0.7,8.6-1,12.8c-0.9,3.8-0.6,7.9-1.9,11.6
				c-0.6,1.7-0.8,3.4-1.2,5.1c-0.3,1-0.8,1.9-1.6,2.5c-0.5,0.2-1,0.2-1.5,0c-0.5-0.6-0.8-1.3-0.9-2.1c-0.1-0.8,0-1.5,0.1-2.3
				c0.3-1.3,0.6-2.5,0.8-3.8c0.7-4.2,1.3-8.4,1.9-12.6c0.2-2,0.8-3.9,2.2-5.4c1.1-5.3,2.1-10.6,3.2-15.9
				C345.9,396,346.3,396,346.6,396z"/>
			<path class="st112" d="M74.5,480.1c0-0.3-0.1-0.6-0.1-0.9c7.7,0.2,15.4-1,23,0.7C89.8,480,82.1,480,74.5,480.1z"/>
			<path class="st113" d="M213.5,499c-0.3-4-0.6-8-0.9-12c3.7-2.1,7.7-2.5,11.9-2.5c25.3,0.2,50.6-0.6,75.9-0.6
				c9.6,0,19.3-0.2,28.9-0.3c2.1,0,4.4-0.2,6.3,1.2c2,6.2,2,12.4,0.1,18.6c-1.7,1.3-3.8,1.1-5.8,1.1c-36.9,0.3-73.8-0.7-110.7-0.4
				c-1.6,0-3.4,0.4-4.6-1.2C214.4,501.5,214.9,500,213.5,499z"/>
			<path class="st114" d="M338.4,504.9c18.7,0,37.4,0.1,56.1,0.1c5.3,1.4,10.7-0.5,16,1c-1.7,1.7-3.8,0.9-5.7,0.9
				c-48,0.1-96-0.4-143.9,0.3c-19.4,0.3-38.9,0.6-58.4,0.8c-1.8,0-3.6,0-6.1,0c1.9-2.7,3.8-1.9,5.4-1.9c22-0.1,44,0,66-0.1
				c1.9,0,4,0.7,5.7-0.9c1.3-1.4,3.1-1,4.7-1c18.8,0,37.6,0,56.4,0C336,504,337.3,503.8,338.4,504.9z"/>
			<path class="st115" d="M338.4,504.9c-21.6,0.1-43.2,0.1-64.9,0.2c-18.5,0-37.1,0-55.6-0.1c-1.2,0-4.5,1.9-3.3-2.2
				c2.5,0.1,5,0.3,7.5,0.3c37.8,0,75.6-0.1,113.4-0.1c1.2-0.1,2.3,0,3.1,1.1C338.5,504.3,338.5,504.6,338.4,504.9z"/>
			<path class="st116" d="M412.6,479.8c2.2-1.2,4.6-0.8,6.8-0.6c3.8,0.4,6.4-0.8,7.9-4.3c0.4-0.5,0.8-0.5,1.2,0.1
				c-0.9,3-3.3,5.5-3.1,8.9c-2.3,5.1-3.5,10.5-3.9,16c-0.8,3-2.5,4.2-6,4.1c-13.6-0.3-27.3-0.1-41-0.1c-0.3-0.6-0.2-1.1,0.4-1.5
				c2.1-1.2,4.5-1,6.8-0.9c10.8,0.3,21.5-0.4,32.3-0.9c2.3-0.1,3.8-0.8,4.3-3.2c0.9-4.6,2-9.1,3.4-13.5c0.6-2.1,0-2.6-2-2.6
				C417.2,481.4,414.5,482,412.6,479.8z"/>
			<path class="st117" d="M374.5,503c0,0.3,0,0.7,0,1c-12,0-23.9,0-35.9,0.1c-1.1-0.1-2.4,0.2-3.1-1.1c-0.1-6-0.2-12-0.3-17.9
				c-0.6-1-0.5-1.9,0.2-2.8c0.4,0,0.7,0,1.1,0c2.7,3.7,1.3,8,1.5,12.1c0.3,6.7,0.5,7.1,7,7.2c7.6,0.1,15.3,0,22.9,0
				C370.2,501.5,372.6,501.2,374.5,503z"/>
			<path class="st62" d="M410.5,506c-5.3-0.6-10.8,1.1-16-1c9.3,0,18.5,0,27.8,0c0,0.3,0,0.7,0,1C418.4,506,414.5,506,410.5,506z"/>
			<path class="st118" d="M339.5,438c0.1-0.8,0.3-1.6,1.1-2.1c1.4-2.5,3.7-2.5,6.1-2.5c8.8,0.2,17.6,0.3,26.3,0
				c8.1-0.3,16.2-1.2,24.3-0.9c12-1.6,24-0.8,36-1c2.2,0,4.4,0.2,6.6-0.2c0.5-0.1,1.1-0.1,1.6-0.1c0.8,0,1.6,0.2,2.4,0.2
				c8.1-0.4,16.2-1.2,24.4-0.9c13.8-1.5,27.6-0.9,41.4-1c6.9,0,13.9,0,20.8,0c2.1,0,4.4-0.4,6.1,1.4c0.9,1.1,2.1,2.2,3.3,1.4
				c1.5-0.9,2.9-2.3,4.3-0.6c1.6,1.8,2.9,4,4.1,6.2c0.5,0.9-0.1,2.1-1.1,2.5c-5.3,2.3-8.8,7.5-14.8,8.8c-3.4,0.7-6.6,2.3-6,7.1
				c0.4,3.5-2.5,4.6-5.3,4.5c-4.1-0.2-7.4,1.1-10.3,4c-2.9,2.9-5.7,2.7-9.2,0.6c-5.9-3.6-11.6-7.8-19.1-7.4c-2.2,2-5,1.3-7.5,1.4
				c-4.4,0.2-8.9-0.3-13.3,0.3c-0.8,0.2-1.6,0.2-2.3,0.2c-2.8-0.9-5.4,0.6-8.2,0.3c-0.2,0-0.4-0.1-0.7-0.1c-3-0.7-5.3,1.6-8,2
				c-0.4-0.3-0.7-0.7-1.1-1c-0.5-0.8-0.4-1.5,0.2-2.1c2.3-7.1-0.2-14.4,0.6-21.6c-0.2,0.6-0.1,1.3-0.5,1.9c-0.9,0.8-2.1,1.2-3.2,1
				c-7.3-1.8-14.6,1.1-22,0.3c-1.6-0.2-4.1-0.8-4.4,1.9c-0.4,3,2,3.3,4.2,3.4c0.8,0.1,1.6,0.2,2.4,0.4c3.5,0.9,7.1,0.6,10.7,0.3
				c4.1-0.9,8.2-1.5,12.2,0.3c1.6,3.7,0.9,7.4,0.4,11.1c-2.3,4.2-6.3,6.6-10.2,9.1c-8,2.3-16,3.9-24.4,3.7
				c-12.9-0.2-25.9,0-38.8,0.2c-6.8,0.1-13.8-1.3-20.8-1.6c-5.4-0.2-9.6-2.3-11-8.1C336.9,453.3,336.9,445.5,339.5,438z"/>
			<path class="st119" d="M458.5,459c0.7,0,1.3,0,2,0c8-0.7,16.1-1.3,24,1c0,0,0,0,0,0c1.4,1.7,4.4,0.5,5.5,2.9
				c-0.2,1.1-1.1,1.2-1.9,1c-11.6-3.8-23.3-1.3-35-0.5c-3.5,0.2-3.9-0.5-2.7-3.4c0,0,0,0,0,0C453.1,459.2,455.8,459.4,458.5,459z"/>
			<path class="st120" d="M432.5,465.9c3-2.3,6-4.7,9-7c0,0,0.1,0.1,0.1,0.1c0,0.6-0.1,1.3-0.1,1.9c-5.7,3.4-9.8,8.3-12.9,14
				c-0.4,0-0.8-0.1-1.2-0.1c-0.3-1-0.5-1.9-0.8-2.9C428.4,469.8,429.5,467,432.5,465.9z"/>
			<path class="st121" d="M536.5,431c-9,0-18.1,0-27.1-0.1c-8.3-1-16.6-0.2-24.9-0.4c-2-0.1-4,0.2-6-0.2c0.5-3.4,3.3-2.6,5.3-2.6
				c8.9-0.1,17.8-0.6,26.8,0c10.7-1,21.4,1.9,32.2,0.6c1.6-0.1,3.2-0.1,4.9-0.2c0.6,0,1.3,0,1.9,0c-1.7,3.1-4.7,1.8-7.2,2.1
				C540.4,430.4,538.5,430.7,536.5,431z"/>
			<path class="st67" d="M484.5,460c-8-1.3-16-0.9-24-1c5.1-2.2,10.4-0.5,15.6-1c2.1-0.2,4.3,0,6.4,0
				C483.2,458.7,483.8,459.3,484.5,460z"/>
			<path class="st58" d="M212.6,443.1c-0.7,0-1.4,0-2.1-0.1c-2.8-2.4-5.6,0.5-8.6,0.1c-3.4-0.5-7-0.1-10.5-0.1
				c6.9-1.6,13.9-1.9,20.9-2c0,0,0.2,0,0.2,0c0.5,0.4,0.6,1,0.4,1.6C212.8,442.8,212.7,442.9,212.6,443.1z"/>
			<path class="st64" d="M143.5,444c3.5-2.1,7.4-0.5,11-1C151,445,147.2,443.5,143.5,444z"/>
			<path class="st122" d="M374.5,503c-10.6,0-21.3-0.3-31.9,0c-5,0.2-6.4-1.7-6.1-6.4c0.3-4.8,0-9.6,0-14.5c1.4-1.2,3.1-0.9,4.8-1
				c23.8-0.5,47.5-0.9,71.3-1.4c1,0.1,2,0.2,3,0.2c8.7,0.1,7.9,0,6.4,8.7c-1.6,9.4-4,14.7-15.6,13.9
				C395.8,502,385.1,502.4,374.5,503z"/>
			<path class="st123" d="M432.5,465.9c-2,2-2.7,5.3-5.9,6.1c-23,0.4-46,0.7-69.1,1.1c-6,0.9-11.9,0.2-17.9,0.4
				c-1.5,0.1-2.8-0.5-3-2c-0.4-3.5-1.5-7.2,1.2-10.5c0.2,0,0.4,0,0.5,0.1c2.3,7.4,8.6,6.4,14.3,6.9c20,1.7,40.1,0.6,60.1,1
				c6.1,0.1,11.6-2,17.3-3.3C430.8,465.6,431.7,464.8,432.5,465.9z"/>
			<path class="st124" d="M335.4,473.7c-21,0.5-42.1,1-63.1,1.5c-11.6,0.3-23.2,0.5-34.8,0.8c-7.9,0.9-15.9,0.2-23.9,0.4
				c-0.7,0-1.2-0.4-1.6-1c-0.7-2.8-1-5.6,0.3-8.4c0.3-0.1,0.9-0.2,0.9-0.1c3.7,5.7,9.4,4.5,14.8,4.5c20.5,0,40.9-0.2,61.4,0.1
				c10.5,0.2,20.9-2.2,31.4-0.3c2.5,0.5,4.9-0.7,7.3-1.5c2.3-0.8,4.6-2,7.2-1.1C336.9,470.3,336.8,472,335.4,473.7z"/>
			<path class="st125" d="M335.4,482.2c-0.1,0.9-0.2,1.9-0.2,2.8c-37.4,0-74.8,0.1-112.1-0.1c-3.8,0-6.6,3-10.4,2.1
				c-0.3-3,2.8-1.3,3.7-2.8c27.2-0.5,54.5-0.9,81.7-1.5C310.5,482.4,323,481.8,335.4,482.2z"/>
			<path class="st126" d="M335.4,473.7c0-1.6,0-3.2,0-4.7c-1.4-1.6-1.6-3.6-1.1-5.6c0.9-3.4,0.6-6.8,0.9-10.2
				c1.6-4.9-0.2-10.6,3.3-15.2c0.3,0,0.6,0,0.9,0c0.3,7.7-1.4,15.3-1.7,23c-0.7,11.9-0.7,11.9,10.9,11.9c3,0,5.9,0.1,8.9,0.2
				C350.2,474.6,342.8,473.8,335.4,473.7z"/>
			<path class="st127" d="M212.4,475c3,2.1,6.4,0.7,9.7,0.9c5.1,0.3,10.3,0.1,15.5,0.2c-9,1.2-18.1,1.7-27.1-0.2
				c-0.3-0.2-0.4-0.4-0.3-0.6c0.1-0.2,0.1-0.3,0.2-0.3c0.4-10.7-0.4-21.4,2.2-31.9c0,0,0,0.1,0,0.1c3,0.7,2.2,3.2,2.2,5.1
				c-0.1,2.9-0.9,5.8-0.8,8.7c-0.3,2.6,0.2,5.2-0.5,7.8C211.3,467.9,211.8,471.4,212.4,475z"/>
			<path class="st128" d="M210.3,475c0,0.3,0.1,0.6,0.1,0.9c-8.9,0.8-17.8,1.2-26.8,0.7c0.1-1.7,0.8-2,2.6-2
				C194.2,474.9,202.3,474.9,210.3,475z"/>
			<path class="st129" d="M206.5,450.6c-0.6,3.8-5.2,6.9-6.5,11.7c-0.3,1-1.7,0.5-2.6-0.1c-5.2-3.6-10.7-2.8-16.2-1.2
				c-2.8,0.8-4.3,0.1-5.9-1.9c-2.3-2.9-1.6-4.6,1.8-5.9c6.8-2.6,13.3-6.8,21.1-5.3c1.4,0.3,2.4-0.8,3.6-1.5
				C205.3,444.5,206.6,445.2,206.5,450.6z"/>
			<path class="st130" d="M202.4,469c-0.8,3.6-4,2.4-6,2.4c-2.4,0-1.7-2.6-1.7-4.3c0.3,0,0.5-0.1,0.8-0.2c2.4,0,5.1-2.1,6.8,1.3
				C202.3,468.4,202.3,468.7,202.4,469z"/>
			<path class="st129" d="M202.4,468.2c-2-2-4.6-0.9-6.8-1.3C197.8,467.3,201.3,461.7,202.4,468.2z"/>
			<path class="st131" d="M450.5,405c-0.4-3.3-0.1-6.8-4.1-8.8c-1.6-0.8-2.2-3.9-1.7-5.9c0.6-2.3,3.1-1.2,4.7-1.2c3-0.1,5.9,0,8.9,0
				c4.4-0.5,8.9-1,13.3-0.1c8.8,0.7,17.6,1.4,26.5,1.6c2.2,0.1,4.7-0.5,6.4,1.6c-0.1,1.9-1.7,1.8-2.9,2c-1.9,0.4-3.3,1.3-4.2,3.1
				c-2.1,3.9-5.8,5.3-9.9,5.9c-1.5,0.2-3,0.3-4.5,0.1C472.1,402.2,461.3,403.6,450.5,405z"/>
			<path class="st132" d="M450.5,405c7.6-3.6,15.6-3.7,23.9-3.3c6.3,0.3,12.9,1.7,18.9-1.8c1-0.6,2.5-1.2,2.6-2.2
				c0.5-5.9,4.8-4.7,8.5-4.8c3.2-0.4,4.6,1.7,4.8,4.3c0.2,3,1.1,5.8,1.3,8.7c0,1.3,0.1,2.6,0.1,3.9c-4.5,2.9-9.7,2.8-14.3,1.7
				c-11.4-2.5-22.6-1.8-34-0.5c-4,0.5-8.3,1.4-11.7-2.2C450.5,407.7,450.5,406.3,450.5,405z"/>
			<path class="st133" d="M450.6,409c7.4,2.7,14.9,0.4,22.2-0.3c6.9-0.6,13.5-0.5,20.1,1.3c5.9,1.5,11.8,0,17.7,0
				c1.9,6.1,1.8,6.5-4.2,6.2c-14.8-0.7-29.4,1.2-44,3.9c-2.4,0.4-6.4,2.1-6.9,0.2C454.4,416.2,448.8,414.1,450.6,409z"/>
			<path class="st134" d="M510.5,428.9c-8.7,0-17.3-0.1-26,0c-2.1,0-4.3-0.3-6.2,1c-3.5,1.5-7.1,1.1-10.8,1
				c-3.8-0.8-7.6-0.3-11.4-0.5c-1.9-0.1-4,0.3-5.5-1.5c0.6-3.1,3.2-1.9,4.9-1.9c18.3-0.5,36.5-0.8,54.8-1.1
				c7.6-0.2,15.3-0.5,22.9-0.6c1.6,0,3.3-0.6,5.7,1.3c-3.3,0.2-5.8,0.4-8.3,0.5c-2.7,1.9-5.8,0.7-8.7,1
				C518,428.4,514.1,427.2,510.5,428.9z"/>
			<path class="st135" d="M442.7,432.8c-0.4-0.3-0.8-0.5-1.3-0.8c-2.2-4.7-2.9-9.9-4.2-14.9c0.7-3.5-3.5-6.6-0.7-10.2
				c2.7,0.2,6.3-1.8,7.2,3c0.1,0.5,0.6-0.7,0.9-1.1c2.8,6.4,3.2,13.4,5.1,20.1c0.2,0.5,0.2,0.9-0.1,1.3
				C447.5,431.7,444.5,430.6,442.7,432.8z"/>
			<path class="st136" d="M510.5,406.1c-1.5-2.8-1.2-6-2.1-8.9c-0.6-1.9-2.3-3.1-4-4.1c-7-1.9-14.3-0.7-21.4-1.8
				c-3.9-0.6-7.9,0.5-11.7-1.1c1.9-2.2,4.8-1,7.1-2.1c7.4-1.3,14.9,0.8,22.3-0.3c-6.4-0.3-12.8-0.2-19.2-0.3c-2.6,0-5.3,0.5-7.8-0.9
				c-0.5-0.4-0.6-0.9-0.2-1.4c11,0,22,0,32.9,0c1.5,2.7,2.4,5.9,5.3,7.6c0.7,1,1,2.1,0.8,3.4C507.8,398.5,511.6,402.8,510.5,406.1z"
				/>
			<path class="st137" d="M512.5,396c-1.2-0.7-1-1.9-1-3c1.9-1.9,2-4.7,3-7c3.3-1.5,6.3-1.7,8.9,1.4c1.3,1.6,2.5,1.6,4-0.1
				c2.1-2.2,4.6-2,7-0.2c-0.7,2.7-1.2,5.5-2.9,7.9c-1.1-0.9-1.8-2-3.7-1.3c-2.3,0.9-4.7,1.1-7.3-0.4
				C517.5,391.8,515.6,396.2,512.5,396z"/>
			<path class="st138" d="M531.5,395c-0.5-3.2,0.6-5.8,2.9-7.9c3.9,9.7,5.5,19.9,7.4,30c-0.5,0.2-1.1,0.4-1.6,0.5
				C537.3,410.1,534.4,402.6,531.5,395z"/>
			<path class="st139" d="M473.5,385c0,0.3,0,0.6,0,0.9c-1.2,1.2-2.4,1.3-3.1,0.7c2,1.1,5.7-0.3,8,2.4c-2.2,1.9-4.8,0.4-7.2,1.1
				c-4.3-0.3-8.7,0.5-12.9-1C462.3,383.7,468.1,385,473.5,385z"/>
			<path class="st140" d="M514.5,386c0.8,3.1,1.2,6.1-3,7c-4.4-1-5.3-4.1-5.1-8C509,386.5,511.8,385.9,514.5,386z"/>
			<path class="st141" d="M510.5,428.9c0.9-1.8,2.5-1.8,4.2-1.8c5.3,0,10.5-0.1,15.8-0.1c3.9,2.1,8.3,0.2,12.3,1.2
				C532.1,429.4,521.3,429,510.5,428.9z"/>
			<path class="st142" d="M449.5,429.8c0-0.3,0.1-0.6,0.2-0.9c0.3,0,0.6-0.1,0.8,0c5.6,0.6,11.4-0.8,17,0.9
				c-1.1,1.5-2.7,1.1-4.1,1.2c-4.2-0.1-8.4,0.2-12.5-0.1C450.3,430.7,449.8,430.3,449.5,429.8z"/>
			<path class="st143" d="M436.5,407c-0.8,3.6,2.7,6.4,1.9,10.1c-0.8,0.6-0.1,2.1-1.6,2.2c-0.8-0.3-1.2-0.9-1.4-1.7
				c-1.1-5.8-2.7-11.5-3-17.5c0.7-2-2.2-3.9,0-5.9C433.8,398.4,435.2,402.7,436.5,407z"/>
			<path class="st94" d="M424.4,383.1c0.3,5.6,2.4,10.7,4.1,15.9c2.8,7.9,5.8,15.7,7.1,24c0.2,1.2,0.2,2.3-0.1,3.5
				c-1.4,3.8-5.1,2.5-7.7,3.7c-25.1,1-50.1,1.5-75.2,1.4c-2.6,0-4.2-0.7-4.1-3.6c1.1-1.6-0.6-5.7,3.8-4.3c1.2,1.6,2.9,2,4.9,1.9
				c16.1-1.3,32.2-2,48.3-1.9c0.3,0,0.7,0,1,0c6-0.3,6.9-1.1,8.2-7.1c0.5-2.5,0.3-5,0.4-7.5c-0.1-6.4-2.3-12.3-3.5-18.5
				c-0.5-2.6-2.5-3.4-4.9-3.1c-16.2,1.5-32.4,1.2-48.5,2.5c-3.2,0.3-3.8-1-4-3.5c0-3.4,2-4.5,5.2-4.5c20.3,0.4,40.5-1.3,60.8,0
				C421.7,382.1,423.2,381.9,424.4,383.1L424.4,383.1z"/>
			<path class="st144" d="M434.5,423c-1.8-8.1-5-15.8-6-24c1.5,0.9,1.6,2.6,2.5,4.3c0.6-1.2,1.1-2.3,1.6-3.3c2.7,5.7,3.1,11.9,4,18
				C435.7,419.6,437.9,422.4,434.5,423z"/>
			<path class="st145" d="M261.3,415.9c7.1-5,14.1-9.9,21.2-14.9c0.9-0.9,1.6-2,2.5-3c2.2-2,4.7-3.3,7.6-4c13.8-3.6,27.8-4,41.9-4
				c3,0.6,4.8,1.7,3.4,5.3c-1,2.7-1.1,5.8-2.2,8.5c-1.5,1.1-2.3-1.4-3.7-0.7c-10.3,7.1-21.7,10.4-34.1,11.2c-5,0.3-9.8,1.6-14.6,3
				c-2.3,0.7-4.8,1.4-6.6-0.6c-3.4-3.9-6.9-2.9-10.7-1c-1,0.5-2.2,0.9-3.4,0.8C262.1,416.6,261.6,416.3,261.3,415.9z"/>
			<path class="st146" d="M331.8,415.1c-1.4,4-2.9,7.9-4.3,11.9c-9.3,2-18.7,1.4-28.1,1.5c-0.8-0.1-1.6-0.3-2.4-0.4
				c-1.7-0.3-4.1,0.6-4.7-1.7c-0.7-2.5,1.4-3.9,3.2-5.1c5.8-3.9,12.5-5.4,19.3-6.1c5.9-0.6,11.8-0.9,17.3-3.5
				C333.9,413,332.6,414,331.8,415.1z"/>
			<path class="st147" d="M298.5,427.9c9.7,0.6,19.3-0.7,29-0.9c-1.9,2.1-4.6,1.8-6.9,1.8c-17.2,0.5-34.5,0.5-51.7,1.4
				c-6.4,0.3-9.6-2.8-11.7-7.7c-1.4-3.2,1.5-5.2,4.1-6.7c0,0,0.4,0.2,0.4,0.2c1.2,2,2.7,3.8,3,6.2c0.6,4.4,3.3,5.8,7.4,5.4
				c3,0,5.9-0.2,8.8-0.8C286.8,425.7,292.6,427.3,298.5,427.9z"/>
			<path class="st148" d="M239.5,436.9c2.6-3.8,7-0.9,10.1-2.7c14.9-0.4,29.8-0.8,44.6-1.3c4-0.7,8-0.3,12-0.2
				c0.5,0.5,0.6,1,0.3,1.6c-2.9,2-6.2,2-9.4,2.1c-6.2,0.3-12.5-0.7-18.7,0.7c-6.5,0.6-13.1,0.1-19.6,0.4c-4.7,1-9.5,1.1-14.2,0.9
				C242.7,438.3,240.8,438.5,239.5,436.9z"/>
			<path class="st149" d="M292.6,394c-2.4,1.6-4.8,3.2-7.2,4.8c-2.3,0.5-1.5-2.3-2.9-2.8c-0.2-4.5,3.2-5.5,6.4-6.2
				c6.7-1.4,13.6-2.3,20.5-1.3c-5.5,0.5-11.1,1-16.4,2.8C292.1,391.7,288.7,392.3,292.6,394z"/>
			<path class="st150" d="M331.8,415.1c0.3-1,0.6-2.1,0.8-3.1c-0.6-3-0.4-5.7,1.9-8c1-3.4,1.8-6.9,2.9-10.3c0.8-2.7-1.7-2.6-2.9-3.7
				c1.8-0.4,3.5,0,5,1c0.1,3.2-1,6.1-1.8,9.1c-0.6,2.5-1.5,4.9-1.3,7.6c-0.5,2-0.5,4.1-0.7,6.2c-0.1,1.4-0.1,3-2.1,3.3
				C333.4,416.1,333.2,415.1,331.8,415.1z"/>
			<path class="st151" d="M306.4,433c-4.1-0.1-8.1-0.1-12.2-0.2c3.9-1.4,7.9-0.6,11.8-0.8c8.1-0.5,16.2-0.8,24.4-1.2
				c0.2,0.3,0.3,0.5,0.5,0.8c0.1,1.1-0.4,1.7-1.4,2.2C321.8,434.2,314,435.7,306.4,433z"/>
			<path class="st152" d="M333.6,417.1c0.9-3.2,1.8-6.3,2.8-9.5c0.1,1.8,0.1,3.6,0.2,5.4c1.2,1.4,1.1,3.1,0.6,4.7
				c-1.2,4.3-1.7,8.7-3.2,13c-0.9,1-1.9,1.1-3,0.2c-0.2-0.1-0.4-0.1-0.6-0.1C332.1,426.5,332.8,421.8,333.6,417.1z"/>
			<path class="st153" d="M282.5,396c2.2-0.3,1.7,2.1,2.9,2.8c-0.3,1.6-1.4,2.2-2.8,2.2C282.5,399.3,282.5,397.7,282.5,396z"/>
			<path class="st154" d="M254.5,423c2.1,2.4,2.5,4.2,1.6,6.4C253.7,427.9,254.5,425.8,254.5,423z"/>
			<path class="st92" d="M212.6,457.1c-1.1-4.7,2.7-9.3-0.1-14c0-0.7,0-1.4,0-2.1c0.3-0.7,0.7-1.4,1-2.1c0.4-0.2,0.9-0.3,1.3-0.1
				c3.8,1.3,7.8-0.4,11.6,0.3c0.6,0,1.3,0,1.9,0c3.4,2.4,5.7,0,8.1-2c0.6,0,1.2,0,1.8,0.1c-0.2,1.5,0.8,1.6,1.9,1.7
				c4.1,3.3,8.5,6.3,11.8,10.5c1.6,2.6,3.7,4.7,5.2,7.3c1.7,2.7,2.2,5.7,0.8,8.6c-1.4,2.9-4.4,2.5-7.1,2.4
				c-8.2-0.6-16.1,2.2-24.3,1.9c-1.7-0.1-3.3,0-5-0.1c-5.4-0.3-7.5-2.2-8.2-7.4C213.3,460.3,213.2,458.7,212.6,457.1z"/>
			<path class="st155" d="M239.5,439.2c-1.3-0.2-1.9-0.7-1.1-2c0.4-0.1,0.7-0.2,1.1-0.2c6.4,0.4,12.8-0.1,19.2-0.5
				c4.3,0.8,8.8-1,13,1.1c-0.6,1.5-1.9,1.8-3.2,1.8c-7.3-0.3-14.4,1.2-21.7,1.3C244.2,440.6,241.8,440.2,239.5,439.2z"/>
			<path class="st156" d="M226.6,439c-3.3,1.8-7.1,0.8-10.5,1.8c-0.9,0.3-1.3-0.8-1.4-1.6c0.1-1.1,0.7-1.5,1.8-1.3
				c2.7,0,5.5,0,8.2,0C225.4,438,226.2,438.2,226.6,439z"/>
			<path class="st157" d="M236.6,437.1c-1.8,4.6-4.2,5.2-8.1,2C231.5,439.6,233.6,436.6,236.6,437.1z"/>
			<path class="st158" d="M216.4,437.8c-0.6,0.4-1.2,0.9-1.8,1.3c-0.3-0.1-0.7-0.2-1-0.3c-0.3-2.9,1.9-5,2.2-7.7
				C218.5,433.2,215.6,435.7,216.4,437.8z"/>
			<path class="st159" d="M424.4,383.1c-7.5-0.2-15-0.7-22.4-0.7c-14.2,0-28.3,0.4-42.5,0.5c-2.7,0-4.7,0.4-4,3.8
				c-0.7,4.7,0.5,9.8-2.5,14.1c-0.5,0.4-0.9,0.5-1.5,0.1c1.1-5.3,1.1-10.6,1-15.9c0.8-3,2.9-4.1,5.9-4.1c20.8,0,41.6,0,62.4,0
				C422.3,381,424.4,380.4,424.4,383.1z"/>
			<path class="st160" d="M333.6,431c-0.7-6.2,2.8-11.8,3-17.9c2-0.4,3.9-0.8,5.9-1.2c-1.1,6.4-1.3,13-3.2,19.3
				C337.3,432.5,335.4,432.6,333.6,431z"/>
			<path class="st161" d="M351.5,401c0.3,0,0.6,0,0.9,0c2.6,4.6,0.2,8.9-0.5,13.4c-0.2,0.5-0.5,0.9-0.5,1.4
				c-0.5,3.1-1.7,5.2-5.4,3.5c-0.7-0.3-1.6,0.3-2.4-0.2c0-4.4,0.5-8.8,2-13C346.4,404,348.3,402.5,351.5,401z"/>
			<path class="st92" d="M338.6,438.1c-0.8,5-0.6,10.1-2.1,14.9c-0.8,1.3-0.7,2.9-0.9,4.3c-0.9,7.3-2.6,8.9-9.7,9.2
				c-11.2,0.4-22.3,2.8-33.6,2.1c-8.8-0.5-17.4-2.1-26.2-2.4c-5.1-0.2-8.7-5.6-7.8-10.8c0.8-4.5,0.9-8.9,0.9-13.4
				c0.2-2.7,1.7-3.6,4.3-3.5c9.4,0.1,18.7-1.8,28.2-1.6c4.4,0.1,8.9,1.9,13.1-0.9c10-1.2,19.9-1.8,30-1.4c1.3,0.1,2.6,0.3,3.7,1.2
				C338.5,436.6,338.5,437.3,338.6,438.1z"/>
			<path class="st162" d="M338.4,435.9c-11.3,0.4-22.6,0.7-33.9,1.1c-6,2.3-12.1,0-18.2,0.6c-1,0.1-2-0.1-3-0.1
				c-1.8-0.1-3.7,0.1-5-1.6c5.2-1.4,10.6-0.6,15.8-1c4.1-0.3,8.3-0.6,12.4-0.9c7.9-1.2,15.8-0.1,23.7-0.5c2.8-1,5.6-1.6,8.2,0.6
				C338.4,434.6,338.4,435.3,338.4,435.9z"/>
			<path class="st163" d="M397.5,433.7c-16.9,1-33.7,1.6-50.6,1.4c-2.1,0-4.3-0.3-6.3,0.9c0-1.8-0.3-3.6,0.9-5.1
				c2.9-2.1,5.5-0.7,8.1,0.9c7.7-0.2,15.3-0.2,23-0.6c6.4,1,12.9,0.2,19.4,0.5C393.9,431.7,396.4,431,397.5,433.7z"/>
			<path class="st164" d="M348.5,433c-1.7-2.7-4.5-1.9-7-2.1c0.9-3.9,0.4-8.1,2-11.9c1.9-0.7,3.8-4.5,5.5,0.4c0.9-1.6,0-3.4,1.4-4.4
				c3.2,3.4,0.2,6.6-0.5,9.8C348.2,427.3,349.9,430.4,348.5,433z"/>
			<path class="st165" d="M338.4,434c-2.7,0-5.4-0.1-8-0.1l-0.3-0.4c0,0,0.2-0.5,0.2-0.5c0.3-0.7,0.6-1.4,0.9-2.1c0.9,0,1.7,0,2.6,0
				c1.9,0.1,3.8,0.1,5.7,0.2C338.9,432.1,338.7,433.1,338.4,434z"/>
			<path class="st166" d="M416.5,447c-2.3,0-4.9,0.6-5.7-2.5c-0.7-3-1-5.4,3.6-5.6c6.2-0.2,12.4,1.1,18.6-1.4
				c1.9-0.8,5.3,2.1,8.4,1.5c0.7,0.6,0.8,1.3,0.8,2.2c-0.6,1.5-0.1,3.9-2.8,3.9c-1.2-1.1-2.1-2.6-4-2.6c-6.1-0.2-12.1-0.1-18.2,0
				c-0.5,0-1.6-0.1-1.3,0.9c0.2,0.6,1,0.8,1.5,1.2C418.3,445.8,417.4,446.4,416.5,447z"/>
			<path class="st167" d="M397.5,433.7c-5.5-1.5-11.1-0.3-16.7-0.7c-2.8-0.2-5.6,0.6-8.3-0.5c1.2-2.1,3.2-1.4,4.9-1.4
				c17.1,0.2,34.2-0.5,51.3-1.1c1.9-0.4,3.8-0.5,5.5,0.6c0.8,0.7,0.9,1.6,0.3,2.5C422.2,433.2,409.8,433.4,397.5,433.7z"/>
			<path class="st168" d="M463.6,430.2c1.3-0.1,2.7-0.2,4-0.4c3.6,0,7.2,0.1,10.7,0.1c8.6,0.1,17.3,0.1,25.9,0.2
				c1.8,0,3.7-0.6,5.2,0.8c-14,0.2-28,0.5-42.1,0.7c-1.3-0.4-2.6,0.1-3.8-0.4C463.2,430.9,463.2,430.5,463.6,430.2z"/>
			<path class="st169" d="M439.5,445c1.6-0.8,0.4-3.1,1.9-4c1.5,2,1.5,4,0,6c-4,0.3-8.1-0.9-11.9,1c-3.6-1.4-7.5,0.3-11.1-1
				c-0.6,0-1.2,0-1.9,0c0.3-0.6,0.6-1.2,1-1.9c3.3-2.7,7.2-1.4,10.9-1.5C432.1,443.4,435.9,443.7,439.5,445z"/>
			<path class="st170" d="M441.4,447c0-2,0-4,0-6c0-0.7,0-1.4,0-2c0.1-1.3,0.2-2.6,0.3-4.3c2.7,7.3,2.5,20.1-0.1,24.3
				c0,0-0.1-0.1-0.1-0.1C441.4,455,441.4,451,441.4,447z"/>
			<path class="st171" d="M463.6,431c1.3,0.1,2.6-0.3,3.7,0.7c-8.2,0.4-16.4,0.8-24.7,1.2c0.3-5.5,4.6-1.7,6.8-3
				c0.3,0.2,0.6,0.3,1,0.5C454.8,431.1,459.3,429.8,463.6,431z"/>
			<path class="st172" d="M437.5,419c0.1-0.8,0.1-1.6,1-2c1,5,3.3,9.7,2.9,15c0,0-0.4,0-0.4,0l-0.4,0c-0.5-0.2-0.9-0.5-1.2-1
				C438.2,427.1,436.2,423.3,437.5,419z"/>
			<path class="st173" d="M440.4,431.1c0.1,0.3,0.2,0.6,0.2,0.8c-1.8,2-4.1,0.8-6.1,1c0-0.6,0-1.2,0-1.8c0.3-0.5,0.7-0.8,1.3-1
				C437.4,429.6,439,429.9,440.4,431.1z"/>
			<path class="st67" d="M458.5,459c-2.5,2-5.3,0.6-8,1C453.1,459.1,455.6,457.3,458.5,459z"/>
			<path class="st174" d="M418.4,447c3.7,0.5,7.5-1.2,11.1,1C425.8,447.7,422,449.1,418.4,447z"/>
			<path class="st175" d="M260.5,442c-0.1,4.8,0.4,9.6-1,14.3c-0.9,3.2,2.9,8.6,6.4,8.6c12.4,0.1,24.6,2.6,37.1,2.3
				c8.9-0.2,17.5-3.4,26.5-2.3c3.1,0.4,4.4-2.7,4.9-5.4c0.4-2.3,0.6-4.6,2.1-6.5c-0.3,5.3-0.7,10.7-1,16c-4.9,0.7-9.1,4-14.2,4
				c-32.3,0-64.6-0.1-97,0.1c-5.3,0-10.1,0.3-11.7-6.1c-0.7-0.7-0.6-1.3-0.1-2.1c0.1-2.6,0.1-5.2,0.2-7.9c0.1,0.1,0.3,0.2,0.4,0.3
				c4.4,10.6,4.4,10.7,16.2,10.5c8.2-0.1,16.3-2.6,24.7-1.8c3.7,0.3,5.2-4.8,2.6-8.6c-2-2.9-4.5-5.3-5.9-8.6
				C255.9,449.6,257.3,444.6,260.5,442z"/>
			<path class="st92" d="M212.5,464.9c0,0.7,0.1,1.4,0.1,2.1c-0.1,2.7-0.1,5.3-0.2,8C211.1,471.6,211.1,468.3,212.5,464.9z"/>
			<path class="st176" d="M478.5,389c-3.3,0-6.3-0.9-9.6-2.1c1.6-1.4,3.2-0.7,4.6-1c10.4,0,20.7,0,31.5,0c-1.3,3.2-3.2,4.2-6,4
				C492.2,389.5,485.3,389.3,478.5,389z"/>
			<path class="st177" d="M463.6,431c-4.4-0.4-8.9,1.1-13.2-0.7c4.4,0,8.7-0.1,13.1-0.1C463.5,430.4,463.6,430.7,463.6,431z"/>
			<path class="st178" d="M440.4,431.1c-1.7-0.1-3.3-0.2-5-0.3c-1.6-1.5,0.3-3.5-0.7-5c0-1-0.1-1.9-0.1-2.9c1.9-1.2,0.1-3.8,2-5
				c0.3,0.3,0.7,0.7,1,1C438.4,423.1,439.4,427.1,440.4,431.1z"/>
			<path class="st179" d="M349.5,425.1c0.5-3.3,1.3-6.6,1-10.1c1-4.6,1.8-9.3,1.9-14c1.6-4.6,1-9.7,3-14.2c0.5,0.7-0.7,2.6,1.5,2.2
				c11-1.7,22-1.6,33.1-1.9c6-0.2,11.9-0.6,17.8-1.1c2.3-0.2,4.3,0.2,4.8,3.1c1.3,6.6,3.6,13.1,3.8,19.9c-0.6,0.1-1.1-0.1-1.6-0.5
				c-2.2-4.4-2.8-9.2-3.7-13.9c-0.7-3.5-2.6-5.1-6.2-5.1c-14.1,0.1-28.1,1.2-42.2,1.4c-3.4,0.2-5.1,1.5-5.4,5.3
				c-0.6,6.8-2.2,13.6-2.9,20.4c-0.7,2.3-0.4,4.8-1.5,7.1c-0.3,0.5-0.8,0.7-1.4,0.6c-2.2-0.1-0.4,2.6-2,2.9
				C348.9,426.5,348.9,425.8,349.5,425.1z"/>
			<path class="st180" d="M349.5,425.1c0.1,0.7,0.1,1.3,0.2,2c-0.8,2.7,0.1,3.3,2.9,3.2c25.3-0.6,50.6-1,75.9-1.4
				c1.7,0,1.7,0.9,1,2.1c-16.9,1.1-33.7,1-50.6,1.1c-2.1,0-4.3,0.2-6.4,0.4c-8,0.2-16,0.3-24,0.5
				C348.7,430.3,347.6,427.5,349.5,425.1z"/>
			<path class="st181" d="M415.7,408.8c0.3,0.1,0.5,0.1,0.8,0.1c-0.6,18.4-0.5,15.3-14.4,15.9c-15,0.7-30.1,1.3-45.1,1.9
				c-2.1,0.1-5,1.3-5.3-2.5c0.3-0.1,0.5-0.2,0.7-0.3c9.1-0.4,18.2-1.1,27.3-1.2c9.5-0.1,18.9-0.9,28.3-1.1c3.2-0.1,5-1.3,5.4-4.6
				c0.2-1.5,0.7-2.9,0.8-4.4c0.1-0.8,0.2-1.7,0.5-2.5C414.8,409.5,415.2,409.1,415.7,408.8z"/>
			<path class="st182" d="M429.5,431c-0.3-0.7-0.7-1.4-1-2.1c1.5-2.1,5.4,0.8,6.1-3c1.3,1.5,1,3.3,0.7,5c-0.3,0-0.6,0.1-0.9,0.3
				C432.8,431.1,431.2,431,429.5,431z"/>
			<path class="st183" d="M270.6,428.9c-1.8,0.1-3.9,0.4-5-1.4c-2.1-3.5-3.2-7.4-3.9-11.4c1.7-0.6,3.3-1.4,5-2.1
				c3.5-1.4,7.4-4,10.1,1.4c0.8,1.6,2.5,2.1,3.9,1.5c10.5-4.4,22.1-3.4,32.9-6.4c7-1.9,13.2-5.2,19-9.5c1.9,5.5-0.3,10.1-5.5,11.7
				c-3.1,0.9-6.2,0.6-9.4,0.7c-11.5,0.2-22.2,3.1-32.3,8.5c-0.6,0.3,0-0.2-0.4,0.3C281.2,426.9,276,428.1,270.6,428.9z"/>
			<path class="st184" d="M270.6,428.9c0.6-1.1,1.4-1.9,2.7-1.8c3.8,0.2,6.7-1.2,8.7-4.7c1.3-2.2,4.1-2.1,6.1-3.2
				c10.5-5.8,21.8-7.3,33.5-7.2c8.4,0,10.9-2.5,11-11c2.1,0.1,2,1.6,2,3c-0.6,2.7-0.6,5.5-1.9,8c-6.1,5.9-14.1,3.2-21.2,4.9
				c-5.2,1.2-10.2,2.5-14.9,5.1c-1.6,0.9-3.7,2.1-3.5,3.8c0.3,2.2,2.8,0.7,4.2,1.3c0.4,0.2,0.8,0.5,1.2,0.8
				C289.2,428.2,279.9,428.6,270.6,428.9z"/>
			<path class="st185" d="M330.2,433.1c0.2,0.2,0.3,0.5,0.2,0.8c-7.9,0-15.9,0.1-23.8,0.1c0-0.3-0.1-0.7-0.1-1
				C314.3,433,322.2,433.1,330.2,433.1z"/>
			<path class="st186" d="M278.3,435.9c1.4,0.4,3.1-0.3,4.2,1.1c-3.6,1.7-7.2,1.5-10.9,0.2c-4.3-0.7-8.7,0.6-13-0.8
				C265.2,436.2,271.7,436,278.3,435.9z"/>
			<path class="st187" d="M271.6,437.1c3.6-0.1,7.2-0.1,10.9-0.2c7.3,0,14.7,0,22,0c-1.5,3-4.4,2.2-6.6,1.9
				c-11.2-1.3-22.3,0.7-33.5,0.1c-2.2-0.1-4.1,0-3.9,3c-0.3,0.5-0.9,1.1-1,1.6c-0.5,6-3.8,7.2-9,5.4c-3.7-3.3-7.3-6.6-11-9.8
				C250.3,439,261,438.4,271.6,437.1z"/>
			<path class="st188" d="M335.4,444.1c-0.1,0.9-0.1,1.9-0.2,2.8c-8.1,2.3-16.3,1.6-24.4,0.8c-0.9-0.1-1.6-0.7-1.7-1.6
				c-0.1-1.2,0.8-1.8,1.8-2.1c2.3-0.7,4.6-0.4,6.9-0.5c2.8-0.1,5.6,0.2,8.4-0.6C329.3,442.8,332.5,442.4,335.4,444.1z"/>
			<path class="st189" d="M335.4,444.1c-3,0-5.9,0-8.9,0c-6,0.5-11.9,0.6-17.9,0c0.5-0.4,0.9-1.2,1.4-1.3c7.9-0.9,15.9-2.6,23.8-0.5
				C334.5,442.5,334.9,443.5,335.4,444.1z"/>
			<path class="st190" d="M308.7,444.1c6,0,11.9,0,17.9,0c-5.3,2-11.1-0.1-16.5,1.3c0,0.5,0,1,0,1.5c8.4,0,16.8,0,25.2,0
				c0.1,0.3,0.2,0.6,0.2,0.9c-8.6,1.6-17.3,2.4-26,0.3C308,447,308.2,445.6,308.7,444.1z"/>
			<path class="st191" d="M327.6,449.1c-4.4,3.5-9.7,3.5-13.2,0C318.8,448.2,323.2,448.1,327.6,449.1z"/>
			<path class="st192" d="M327.6,449.1c-4.4,0-8.8,0-13.2,0c-1.6-0.3-3.6,0.6-4.9-1c8.7-0.1,17.3-0.2,26-0.3
				C333.2,450.4,330.2,448.4,327.6,449.1z"/>
			<path class="st193" d="M439.5,445c-7.3,1-14.7,0-22,0.1c-1,0-2,0-3-0.1c-1.3-0.1-2.2-0.7-2.1-2.2c0.1-1.2,1-1.7,2.1-1.7
				c7.6,0,15.2-0.1,22.8,0C440.4,441.1,439.5,443.3,439.5,445z"/>
			<path class="st181" d="M362.5,390c2.1-1.5,4.5-0.7,6.7-0.8c11.7-0.5,23.5-0.7,35.2-1.4c5.1-0.3,7.6,1.2,8.2,6.5
				c0.5,4.9,2,9.7,3,14.5c0,0-0.3,0.2-0.3,0.2c-3.3-2.1-6.6-2.4-10.2-0.8c-2.9,1.3-6.2,1.1-9.3,1.1c-3.5,0-7,0-10.3,1.5
				c-3,1.4-5.9,0.1-8.9-0.1c-6.7-0.4-13.4-1.4-20.1-1.3c-2.4-3.2,0-6.3,0.2-9.5C357.1,395.6,358.4,392.1,362.5,390z"/>
			<path class="st194" d="M415.4,411c0.6,3.2-1,6.2-1.1,9.4c-0.1,2.4-2.1,2.6-4.1,2.6c-10.6,0-21.2,1.4-31.9,1.1
				c-7.1-0.2-14.2,1.4-21.4,0.9c-1.6-0.1-3.4,0.5-4.6-1.1c0.2-2.3,0-4.7,1-6.9c1.8-1.2-0.8-5.3,3.3-5.1c0.9,0.5,0.9,2.5,2.5,1.9
				c7.4-2.9,14.5-0.1,21.7,1.2c1,0.2,1.9,0.8,2.9,0.6c9.6-2.6,20.1,0.1,29.4-4.8C413.9,410.4,414.7,410.3,415.4,411z"/>
			<path class="st195" d="M356.5,412c-2.6,0.7-1.2,3.9-3.2,5c1.1-8.2,2-16.4,3.3-24.5c0.6-3.8,3.7-2.4,6-2.4
				c0.3,1.9,0.4,2.4-1.4,2.8c-2.4,0.5-2.8,1.9-2.6,3.9c0.2,4.3-3.2,7.9-2,12.3C357.3,410,357.4,411,356.5,412z"/>
			<path class="st196" d="M356.5,412c0-1,0-2,0-3c8.7-2.2,17.1,0.7,25.7,1.3c0.3,0,0.7,0.3,1,0.2c7.8-4.9,17.3-0.1,25.2-4.5
				c3.8-2.1,5.8-0.3,7.2,3.1c0,0.7,0,1.3,0,2c-7.7,1.9-14.8,7.6-23.5,4.1c-0.4-0.2-1.1-0.2-1.5-0.1c-9.2,4.5-17.9-2.2-27-1.2
				c-0.9,0.1-2-1-2.7,0.1c-0.8,1.4-1.2,3.6-3.4,2.6C355.7,415.7,356.8,413.5,356.5,412z"/>
		</g>
	</g>
</g>
<path id="_x3C_indicatorFront_x3E_" class="st197" d="M60.9,457.1c0.4-0.9,1.8-1,2.1-1c1.5-0.1,2.6,0.8,2.8,1c1.5,1.2,1.7,3,1.8,3.5
	c0.2,1.4-0.3,1.4-0.3,3.3c0.1,1,0.2,1.1,0.3,2.8c0.1,1.6,0,2.1-0.2,2.5c-0.4,0.9-1.2,1.3-1.3,1.4c-0.5,0.3-1,0.3-1.8,0.4
	c-0.8,0.1-1.3,0.1-1.6,0c-0.7-0.3-0.9-1.4-1.4-3.5c-0.2-0.8-0.4-1.6-0.5-2.8c-0.1-0.7-0.1-1.5,0-2.5c0.1-1.5,0.4-1.4,0.4-2.4
	C61.3,458.3,60.5,457.8,60.9,457.1z"/>
<path id="_x3C_indicatorSide_x3E_" class="st197" d="M194.8,467.1c0-0.1,0.1-0.1,0.4-0.1c0.3,0,0.3-0.1,0.4-0.1c0.4-0.1,0.9,0,1.3,0
	c0.4,0,0.5,0,1.1-0.1c0.8-0.1,1.9-0.1,2.9,0.3c0.3,0.1,0.1,0.1,1,0.5c0.3,0.1,0.5,0.2,0.5,0.4c0,0.1-0.1,0.2-0.1,0.4
	c0,0.2,0.1,0.2,0.1,0.4c0,0.1,0,0.2-0.1,0.4c-0.1,0.2-0.2,0.6-0.3,0.8c-0.2,0.4-0.8,1.1-1.9,1.4c-0.6,0.2-1.2,0.1-2.5-0.1
	c-0.2,0-0.4-0.1-0.8-0.1c-0.5,0-0.6,0-0.8,0c-0.5-0.1-0.8-0.4-0.9-0.5c-0.4-0.4-0.5-1-0.5-1.3c-0.1-0.6,0.1-1,0.1-1.5
	c0-0.1,0-0.2,0-0.4c0-0.1,0-0.2,0.1-0.3C194.8,467.3,194.7,467.2,194.8,467.1z"/>
<path id="_x3C_headlight_x3E_" class="st197" d="M58.6,456.3c0.2,0,0.3,0.5,0.8,0.7c0.4,0.1,0.6-0.1,0.8,0.1
	c0.2,0.1,0.3,0.4,0.4,1.3c0.1,0.9,0,1.6,0,1.8c-0.1,1.2-0.1,1.9-0.1,2.1c0,0.7-0.1,1.4-0.1,2.3c0,1.2,0,2.3,0.4,3.6
	c0.3,0.9,0.4,1.4,0.8,2c0.3,0.5,0.5,0.8,0.4,1c-0.2,0.3-0.8-0.2-1.9-0.2c-1.3,0-1.9,0.6-2.3,0.3c-0.3-0.3-0.2-0.9-0.1-1.6
	c0.1-0.9,0-0.5-0.2-4.1c-0.1-1.7-0.1-3.3,0-5c0-0.4,0.2-1.2,0.5-2.8C58.2,457.1,58.3,456.3,58.6,456.3z"/>
<path id="_x3C_rearLight_x3E_" class="st197" d="M572.7,435.2c-0.2,0,0.4,1.4-0.3,2.7c-0.6,1.1-1.7,1.1-2,2.2
	c-0.2,0.8,0.1,1.5,0.3,2c0.5,1.1,1.1,1.2,2,2.3c1.2,1.5,1.2,2.7,1.5,2.7c0.4-0.1,0.5-2.9,0.2-5.7
	C573.9,437.8,572.9,435.1,572.7,435.2z"/>
<path id="_x3C_indicatorRear_x3E_" class="st197" d="M566.5,416.2c-0.9,0.5-2.8-0.5-3.3-1.8c-0.3-0.9,0.1-1.4,0.2-2.5
	c0.1-1.2-0.2-2-2.5-6.5c-1.8-3.6-2.2-4.3-2-5.5c0.3-1.4,1.4-2.8,2.2-2.7c0.6,0.1,0.8,1.1,1.3,2.7c0.6,1.9,1.4,3.8,2.2,5.7
	c1.5,4,2.2,4.6,2.5,7C567.2,413.9,567.4,415.7,566.5,416.2z"/>
<path id="_x3C_carBody_x3E_" class="st197" d="M529.3,548"/>
<g id="Warstwa_3">
	<polygon points="128,472.7 142.7,467.2 167.3,470 184.3,496.3 184.3,511.7 108.7,511.7 107.7,490 118.7,474.3 	"/>
	<polyline points="506,504.5 502.7,489.2 492.7,472.8 474.7,466 448,468.4 435.7,479.9 429.7,504.5 430.7,513.9 506,507.9 	"/>
</g>
</svg>
